<?xml version="1.0" encoding="UTF-8" standalone="no"?>
<!-- Created with Inkscape (http://www.inkscape.org/) -->

<svg
   width="210mm"
   height="297mm"
   viewBox="0 0 210 297"
   version="1.1"
   id="svg5"
   xml:space="preserve"
   inkscape:version="1.2.2 (b0a8486541, 2022-12-01)"
   sodipodi:docname="lids.svg"
   inkscape:export-filename="lids-bug.svg"
   inkscape:export-xdpi="96"
   inkscape:export-ydpi="96"
   xmlns:inkscape="http://www.inkscape.org/namespaces/inkscape"
   xmlns:sodipodi="http://sodipodi.sourceforge.net/DTD/sodipodi-0.dtd"
   xmlns="http://www.w3.org/2000/svg"
   xmlns:svg="http://www.w3.org/2000/svg"><sodipodi:namedview
     id="namedview7"
     pagecolor="#ffffff"
     bordercolor="#000000"
     borderopacity="0.25"
     inkscape:showpageshadow="2"
     inkscape:pageopacity="0.0"
     inkscape:pagecheckerboard="0"
     inkscape:deskcolor="#d1d1d1"
     inkscape:document-units="mm"
     showgrid="false"
     inkscape:zoom="1.3320199"
     inkscape:cx="302.92339"
     inkscape:cy="478.22107"
     inkscape:window-width="2520"
     inkscape:window-height="2071"
     inkscape:window-x="8"
     inkscape:window-y="8"
     inkscape:window-maximized="1"
     inkscape:current-layer="layer5" /><defs
     id="defs2" /><g
     inkscape:groupmode="layer"
     id="layer2"
     inkscape:label="skull"
     style="display:inline"><path
       style="fill:#000000;stroke-width:0.204603"
       d="m 0.66295915,210.61074 c -0.35798797,-0.358 -0.35798797,-208.6648643 0,-209.0228523 0.35798795,-0.357988 208.66486085,-0.357988 209.02285085,0 0.358,0.357988 0.358,208.6648523 0,209.0228523 -0.35799,0.35799 -208.6648629,0.35799 -209.02285085,0 z M 30.02936,205.89463 c -1.821465,-2.49423 -2.385553,-6.13165 -1.349654,-8.703 0.953252,-2.3662 0.08226,-1.55537 -1.870376,1.74118 -1.844821,3.11454 -3.011011,3.82932 -6.788497,4.16081 -2.913211,0.25564 -6.508779,2.06776 -6.508779,3.28034 0,0.10813 3.549078,0.18563 8.501454,0.18563 8.501454,0 8.501454,0 8.015852,-0.66496 z m 55.988562,0.2062 c -0.224013,-0.25407 -0.90631,-1.23595 -1.516214,-2.18195 -1.202563,-1.86525 -13.854694,-2.33599 -22.291414,-0.82938 -2.322336,0.41471 -3.233264,3.05323 -1.127946,3.26713 4.019983,0.40838 25.328443,0.18981 24.935574,-0.2558 z m 60.232638,-0.56426 c 0.15181,-2.62767 -1.2101,-2.98774 -12.12479,-3.20558 -6.54731,-0.13068 -6.54731,-0.13068 -6.88237,0.56559 -0.18428,0.38294 -0.89914,1.36459 -1.58858,2.18143 -1.25353,1.48516 -1.25353,1.48516 9.64451,1.43223 10.89804,-0.053 10.89804,-0.053 10.95123,-0.97367 z m 49.83055,0.68741 c 0.23298,-0.23298 -0.48189,-1.18042 -1.44496,-1.91503 -0.93881,-0.71611 -0.93881,-0.71611 -4.02385,-0.83924 -4.4914,-0.17926 -5.28548,-0.56355 -6.93291,-3.35513 -0.84521,-1.43222 -0.84521,-1.43222 -1.00407,-0.3069 -0.40267,2.85247 -0.62568,3.79407 -1.19078,5.02788 -0.33379,0.72879 -0.60689,1.3688 -0.60689,1.42224 0,0.14899 15.05415,0.11548 15.20346,-0.0338 z m -17.56263,-3.08992 c 1.0283,-1.0283 1.94996,-3.43868 1.94996,-5.09965 0,-3.04217 -6.30955,-2.81941 -7.07991,0.24995 -0.83726,3.33593 3.00828,6.97138 5.12995,4.8497 z M 34.312565,202.65602 c 2.500416,-1.21043 3.788533,-5.00837 2.215689,-6.53284 -1.171156,-1.13512 -4.291125,-1.20353 -5.316276,-0.11655 -2.637831,2.79692 -0.115474,8.20626 3.100587,6.64939 z m -17.936063,-1.93266 c 0.934452,-0.47714 1.516019,-0.60348 3.428827,-0.7449 5.511284,-0.40746 8.049257,-3.73856 9.06066,-11.89218 0.276305,-2.22747 0.213633,-2.43601 -0.582939,-1.93969 -2.951971,1.83925 -4.011265,2.18533 -7.302971,2.38592 -5.884125,0.35856 -6.927415,2.3102 -7.052093,13.19204 -0.0067,0.58694 -0.0067,0.58694 0.658236,0.0802 0.365728,-0.27872 1.171354,-0.76533 1.79028,-1.08136 z m 151.519218,0.67882 c 3.44644,-3.76071 -1.67981,-12.86278 -7.23694,-12.84976 -1.85429,0.004 -3.77523,1.96261 -6.57864,6.70647 -1.04621,1.77038 -2.44221,3.88495 -3.10221,4.69906 -1.67435,2.0653 -1.47642,2.11907 2.76659,0.75166 1.8492,-0.59596 2.33035,-0.68199 2.83338,-0.50663 1.50733,0.52546 3.08489,0.50131 4.20109,-0.0643 1.60602,-0.81384 2.91197,-0.28122 2.91197,1.18762 0,1.32357 3.01153,1.37793 4.20476,0.0759 z m -121.751929,0.45249 c 0.803459,-0.30548 1.975636,-1.31369 2.830311,-2.43442 1.082397,-1.41933 3.22052,-2.13348 2.333238,-0.77931 -0.563731,0.86036 1.412055,1.28225 5.672528,1.21125 4.136449,-0.0689 3.943195,0.0522 2.437009,-1.52703 -0.926608,-0.97153 -1.636607,-2.06753 -2.948847,-4.55202 -4.536766,-8.58955 -9.205732,-9.21987 -13.649387,-1.84269 -2.855326,4.7403 -0.616339,11.42277 3.325148,9.92422 z m 150.189889,-2.16942 c 0.63361,-6.76158 -0.42675,-8.46791 -6.58262,-10.59274 -1.44815,-0.49986 -3.35166,-1.23972 -4.23002,-1.64414 -0.87835,-0.40442 -1.64112,-0.73531 -1.69502,-0.73531 -0.3572,0 0.53927,4.85102 1.63722,8.85944 0.85052,3.10512 2.36194,4.23155 5.68916,4.24001 1.74252,0.004 2.00884,0.0609 3.22908,0.68415 1.84341,0.94161 1.78568,0.96561 1.9522,-0.81141 z m -50.13631,-0.11646 c 2.62336,-0.58043 4.94685,-2.61223 6.54851,-5.72643 1.42632,-2.77328 2.42091,-4.14934 3.69349,-5.11015 0.61839,-0.46689 1.09888,-0.8722 1.06776,-0.9007 -0.0311,-0.0285 -0.89608,-0.61181 -1.92214,-1.29624 -1.10551,-0.73743 -2.5365,-1.95321 -3.51237,-2.98414 -1.64679,-1.73973 -1.64679,-1.73973 -1.77925,-0.15847 -0.39612,4.72854 -0.93729,6.84094 -2.60664,10.17461 -1.06109,2.11899 -1.53368,2.81194 -3.3704,4.94193 -1.4721,1.70715 -1.35187,1.77487 1.88104,1.05959 z M 66.88341,198.222 c -3.361149,-3.50368 -5.697469,-9.92091 -5.69848,-15.65216 -4.09e-4,-1.88997 0.07128,-1.86934 -1.584156,-0.45616 -0.727727,0.62124 -2.264194,1.77009 -3.414368,2.553 -2.984614,2.0316 -3.009418,2.06763 -1.924658,2.79616 1.147672,0.77079 2.2101,2.18659 3.399269,4.5299 2.593733,5.11107 5.64997,7.51735 9.644152,7.59319 0.903132,0.0172 0.903132,0.0172 -0.421759,-1.36393 z m 13.3059,-0.2046 c -0.493828,-0.53453 -1.496197,-1.70074 -2.227486,-2.59158 -1.866389,-2.27359 -4.298508,-5.01994 -6.356935,-7.17823 -0.96592,-1.01279 -2.366428,-2.62404 -3.112241,-3.58056 -3.531989,-4.52987 -3.698568,-4.55989 -3.11428,-0.56132 1.363743,9.3328 5.850892,14.88356 12.03165,14.88356 3.67716,0 3.67716,0 2.779292,-0.97187 z m 28.45747,0.71611 c -0.003,-0.14066 -0.13487,-2.18804 -0.29256,-4.54972 -0.32981,-4.93978 -0.44663,-4.45335 1.07889,-4.49252 0.89245,-0.0229 1.34385,-0.14564 1.77078,-0.48146 0.72967,-0.57396 0.76488,-0.57073 1.7779,0.16309 1.27609,0.9244 2.59967,0.83108 3.80655,-0.26838 0.46307,-0.42186 0.46307,-0.42186 1.84143,0.22515 1.27705,0.59945 1.78897,0.74137 2.45507,0.68061 0.14206,-0.013 0.58194,-0.5295 0.9775,-1.14786 0.86265,-1.34853 1.52546,-1.83609 2.24916,-1.65445 0.32932,0.0827 0.86669,-0.022 1.45972,-0.28435 0.5162,-0.22834 1.09671,-0.41516 1.29003,-0.41516 0.19332,0 0.52199,-0.18841 0.73039,-0.41868 0.20839,-0.23028 0.93146,-0.71319 1.60681,-1.07315 1.47437,-0.78583 2.53163,-1.84282 3.39433,-3.39344 0.35205,-0.63279 0.83576,-1.46393 1.07491,-1.84696 0.44606,-0.71446 0.64449,-1.50962 1.00054,-4.00945 0.3013,-2.1154 0.52206,-2.69781 1.70622,-4.50128 3.12957,-4.76631 4.49985,-7.92172 5.33114,-12.2762 0.33961,-1.77897 0.61193,-2.84518 0.80751,-3.16163 0.50607,-0.81884 1.73811,-8.50708 1.40918,-8.79367 -0.19303,-0.16819 -2.53772,0.0103 -5.08603,0.38727 -1.93636,0.2864 -3.04089,0.86569 -4.47091,2.34484 -1.32861,1.37425 -1.61449,2.06241 -2.51416,6.05183 -0.57321,2.54177 -0.63682,2.76726 -1.03895,3.68287 -0.22241,0.50639 -0.4698,1.42001 -0.54974,2.03027 -0.08,0.61026 -0.24091,1.28809 -0.35769,1.50629 -0.11678,0.2182 -0.20881,0.85131 -0.2045,1.40692 0.0126,1.62637 -1.39095,2.30706 -2.62169,1.27146 -0.78164,-0.65771 -0.8671,-0.58536 -0.85695,0.72546 0.0108,1.39776 -0.67502,2.26675 -1.78903,2.26675 -0.879,0 -1.2851,0.26577 -1.71948,1.12532 -0.29438,0.5825 -0.37638,0.61442 -1.60761,0.62582 -1.54142,0.0143 -2.31923,0.42199 -3.24619,1.70161 -0.6246,0.86225 -0.6246,0.86225 -1.48624,0.11771 -1.04716,-0.90484 -2.47304,-0.91112 -3.82438,-0.0168 -0.76998,0.50955 -0.76998,0.50955 -1.49632,0.016 -1.70338,-1.15747 -3.26277,-1.14411 -4.37718,0.0375 -1.02051,1.08207 -1.91577,1.15307 -2.74395,0.21762 -0.9124,-1.03058 -1.90854,-1.17523 -3.18401,-0.46236 -0.954802,0.53365 -0.954802,0.53365 -1.432101,0.0853 -0.656865,-0.6171 -2.169617,-0.57123 -3.659733,0.11097 -1.119177,0.51238 -1.119177,0.51238 -1.565617,-0.0915 -0.647507,-0.87581 -1.912862,-1.4211 -3.297667,-1.4211 -1.108001,0 -1.163023,-0.0245 -1.163023,-0.51793 0,-0.31286 -0.141768,-0.56366 -0.358056,-0.63344 -0.519724,-0.16766 -0.729804,-0.25666 -1.074168,-0.45508 -1.076251,-0.62014 -1.662129,-0.83645 -2.369742,-0.87494 -0.98468,-0.0535 -1.31312,-0.28526 -1.31312,-0.92642 0,-0.88381 -1.06878,-2.73636 -1.22105,-2.11648 -0.50641,2.06159 -1.923074,0.12152 -2.065908,-2.82919 -0.06358,-1.31351 -0.220697,-2.71045 -0.349141,-3.10431 -0.128446,-0.39386 -0.438997,-1.40665 -0.690113,-2.25064 -0.251118,-0.84398 -0.531343,-1.62199 -0.622725,-1.72889 -0.09138,-0.10691 -0.166148,-0.34944 -0.166148,-0.53897 0,-3.41946 -7.204211,-9.36014 -10.646797,-8.77947 -1.702345,0.28714 -1.58573,0.0899 -1.390538,2.35169 0.08741,1.01279 0.247251,3.03836 0.355218,4.50127 0.183828,2.49086 0.59707,4.19437 1.017477,4.19437 0.168478,0 0.400642,0.69458 1.16262,3.47826 0.200221,0.73146 0.440548,1.41739 0.534056,1.5243 0.09351,0.1069 0.170152,0.33708 0.170316,0.51151 4.09e-4,0.50309 2.729133,5.77402 3.862425,7.46101 1.659002,2.46955 1.937842,3.12493 2.096563,4.92772 0.315556,3.58419 0.886211,5.75855 1.685386,6.42181 0.184174,0.15285 0.33486,0.37303 0.33486,0.4893 0,0.38771 1.016523,1.55033 1.483238,1.6964 0.253272,0.0793 0.720756,0.36171 1.038853,0.62764 0.318095,0.26593 0.824489,0.48403 1.125319,0.48466 1.281173,0.003 2.032342,0.39056 2.586038,1.33536 0.733708,1.25198 1.290024,1.57646 2.609227,1.52188 1.539686,-0.0637 1.515574,-0.0742 1.869063,0.80931 0.720396,1.80045 1.927667,2.13072 3.428255,0.93787 1.01809,-0.80931 1.368764,-0.87329 1.933946,-0.35288 1.384112,1.27446 1.928956,1.32865 3.784394,0.37641 1.341724,-0.68859 1.341724,-0.68859 2.148333,-0.26769 0.53292,0.27809 1.17783,0.41744 1.90063,0.4107 1.09401,-0.0102 1.09401,-0.0102 0.98355,1.64976 -0.20459,3.07429 -0.65943,7.06196 -0.82423,7.22604 -0.22643,0.22547 2.30422,0.61329 4.21981,0.64669 1.14962,0.02 1.58406,-0.0427 1.57981,-0.22811 z m 30.5153,-0.5945 c 3.90701,-2.59511 6.54545,-7.32815 7.04517,-12.63818 0.059,-0.62739 0.21055,-1.62316 0.33667,-2.21282 0.4472,-2.09068 0.0289,-2.19255 -1.36615,-0.33272 -0.66399,0.88519 -2.45557,2.90724 -3.98129,4.49345 -1.52572,1.58621 -4.15511,4.432 -5.84309,6.32398 -1.68798,1.89198 -3.48337,3.83813 -3.98977,4.32479 -1.42509,1.36954 5.74163,1.40768 7.79846,0.0415 z m 33.78541,-2.58151 c 1.58426,-2.20519 4.66494,-3.01861 7.42342,-1.96009 0.47424,0.18199 -0.14869,-9.44101 -0.65633,-10.13896 -1.4583,-2.00499 -7.5602,6.67438 -7.79011,11.08069 -0.12047,2.30893 0.006,2.43447 1.02302,1.01836 z M 38.311574,190.08902 c -0.197934,-2.01749 -0.829274,-2.79011 -3.009256,-3.68271 -0.787723,-0.32254 -2.000258,-0.92767 -2.694521,-1.34475 -1.262297,-0.75831 -1.262297,-0.75831 -1.402896,1.00925 -0.07733,0.97216 -0.222852,2.21748 -0.323382,2.76736 -0.464585,2.54126 -0.267723,2.86451 2.06786,3.39551 1.176958,0.26758 4.5448,1.91465 4.970588,2.43089 0.290854,0.35265 0.563068,-2.82791 0.391607,-4.57555 z m -25.249031,-0.54847 c 3.695872,-0.93063 4.561043,-6.69656 1.262709,-8.41533 -0.973949,-0.50752 -3.667499,-0.39782 -4.8184875,0.19625 -3.9660007,2.047 -0.8192112,9.32072 3.5557785,8.21908 z m 188.027847,-0.14891 c 4.46757,-2.29801 2.99047,-8.4284 -2.15397,-8.93958 -4.80568,-0.47753 -6.2182,7.04622 -1.6905,9.00434 1.02721,0.44424 2.9168,0.41241 3.84447,-0.0648 z M 25.27675,184.89153 c 1.420658,-0.66019 2.558912,-2.01322 1.820574,-2.1641 -2.14942,-0.43921 -2.846772,-0.78367 -4.16798,-2.05876 -1.715412,-1.65553 -3.90038,-2.75356 -5.479324,-2.75356 -1.797905,0 -1.672162,-1.09826 0.16419,-1.43407 0.655971,-0.11995 1.291437,-0.0425 2.596186,0.31649 1.727617,0.47531 1.727617,0.47531 1.586891,-0.0731 -0.0774,-0.30164 -0.216217,-1.05483 -0.308478,-1.67375 -0.09226,-0.61893 -0.317557,-2.13811 -0.500653,-3.37596 -0.503209,-3.40206 -1.213409,-3.96072 -5.270837,-4.14618 -4.37478,-0.19997 -7.7205281,1.71887 -8.299626,4.75999 -0.2688749,1.41199 -0.4738807,7.87723 -0.2497784,7.87723 0.08219,0 0.7376191,-0.26457 1.4565083,-0.58793 4.4365981,-1.99563 7.2250421,-1.31069 10.3065971,2.53166 2.583757,3.22166 4.032744,3.85691 6.34573,2.78205 z m 164.46762,-0.97466 c 0.35604,-0.18328 1.61409,-1.27093 2.79567,-2.41701 4.06881,-3.94654 7.08073,-4.30517 11.24623,-1.33907 0.75543,0.53792 0.8103,0.35771 0.96665,-3.17475 0.14033,-3.17053 0.15843,-3.12122 -2.08868,-5.69151 -2.50022,-2.85982 -7.35086,-5.45102 -10.20411,-5.45102 -1.32909,0 -3.04684,2.62656 -3.3828,5.17254 -0.49717,3.76777 -1.82204,7.19387 -3.91139,10.11484 -1.35388,1.89277 -1.35875,2.01176 -0.10882,2.66314 1.40088,0.73005 3.40562,0.78259 4.68725,0.12284 z m -25.95077,-1.18059 c 0.42508,-0.28847 0.84496,-0.52449 0.93306,-0.52449 0.36495,0 0.64101,-1.50495 0.50649,-2.76109 -0.28982,-2.70633 -2.43297,-7.35175 -2.62121,-5.68166 -0.19649,1.74331 -2.01329,2.90136 -4.82715,3.07691 -1.7277,0.10779 -1.7277,0.10779 -1.61458,-0.5893 0.23144,-1.4262 1.1919,-3.02735 2.55268,-4.2555 1.31791,-1.18947 1.31791,-1.18947 0.7389,-1.3058 -2.09729,-0.42136 -4.8511,-5.42804 -3.93109,-7.14709 0.58031,-1.08431 4.86943,0.0574 6.42317,1.70978 1.01348,1.07782 1.12328,1.00227 1.12328,-0.77288 0,-3.00984 1.14166,-4.94157 3.67212,-6.21338 1.82192,-0.91569 2.6272,1.2997 1.93683,5.32838 -0.12396,0.72339 -0.12396,0.72339 0.68404,0.64633 1.61678,-0.15418 3.59108,1.13534 4.59654,3.00226 0.42757,0.7939 2.14617,1.65889 3.30177,1.66181 1.57585,0.004 3.13324,1.12123 4.20099,3.01369 1.28917,2.28492 2.89098,-4.10686 1.95229,-7.79033 -4.60892,-18.08562 -31.64266,-14.92399 -32.11277,3.75563 -0.0418,1.66082 -0.008,2.1122 0.11365,1.53452 0.14232,-0.67378 0.15701,-0.58818 0.0831,0.48439 -0.46218,6.71015 8.11231,15.66142 12.28786,12.82782 z M 51.465988,181.41723 c 3.422684,-0.78382 5.224204,-2.46421 7.373856,-6.87807 5.488562,-11.26961 -3.648914,-24.77615 -16.069501,-23.75311 -4.39311,0.36185 -9.348942,4.25854 -11.473812,9.02166 -1.106387,2.48009 -0.8128,9.31972 0.37692,8.781 0.195366,-0.0885 1.229892,-0.19894 2.298945,-0.2455 1.943732,-0.0847 1.943732,-0.0847 2.294944,-0.83182 1.272091,-2.70622 3.349076,-4.23215 5.567069,-4.09005 1.080648,0.0692 1.080648,0.0692 0.810976,-1.05609 -0.529252,-2.20852 -0.198862,-3.57963 1.220226,-5.06393 2.574756,-2.69307 4.941987,1.84815 3.892899,7.46802 -0.159302,0.85337 0.10514,0.84442 0.696104,-0.0236 1.073702,-1.57703 6.515244,-3.35161 6.933677,-2.2612 0.167318,0.43603 -0.652636,3.44136 -1.217824,4.46364 -0.691004,1.24984 -1.931944,2.02167 -3.423912,2.12959 -1.53587,0.1111 -1.399641,0.37072 0.704695,1.34298 3.571682,1.65022 5.844122,6.11247 2.830277,5.55763 -2.151394,-0.39606 -3.565587,-1.49177 -4.69637,-3.63873 -0.888534,-1.68701 -0.977739,-1.70214 -1.005698,-0.17052 -0.03747,2.05262 -0.572495,2.6594 -3.004789,3.40776 -6.613409,2.03478 -1.148419,7.45246 5.891318,5.84032 z m -13.607713,-2.22477 c 1.338865,-1.33886 1.419203,-5.54843 0.132366,-6.93576 -1.866149,-2.01189 -6.386133,-0.75105 -6.978654,1.94668 -0.701469,3.19377 4.703122,7.13225 6.846288,4.98908 z m 139.193225,0.23493 c 2.99962,-1.50785 4.09409,-5.24739 2.09607,-7.16183 -2.89267,-2.77167 -7.27247,-0.85008 -7.27247,3.19072 0,3.4866 2.43069,5.35132 5.1764,3.97111 z m 27.63789,-25.32047 c -0.0246,-8.87214 -0.0246,-8.87214 -0.80875,-13.70843 -0.85064,-5.24599 -0.82975,-5.18602 -1.42195,-4.08212 -0.22252,0.41479 -1.26612,1.68077 -2.3191,2.81329 -2.40181,2.58326 -2.49123,2.75973 -1.84321,3.63779 2.07003,2.80489 3.02868,10.09099 2.09764,15.94274 -0.11261,0.70777 -0.0702,0.77647 0.87316,1.41417 0.54534,0.36865 1.5141,1.16176 2.15281,1.76248 0.6387,0.60073 1.19113,1.09222 1.22762,1.09222 0.0365,0 0.0553,-3.99247 0.0418,-8.87214 z M 8.1086727,160.89485 c 1.6889323,-2.41547 5.2575053,-2.95338 8.4941783,-1.28037 0.522275,0.26996 0.538472,0.25793 0.786614,-0.58398 0.936658,-3.17797 3.284967,-5.27196 6.455061,-5.75601 2.47463,-0.37786 1.986456,-2.53725 -0.902988,-3.9943 -2.985298,-1.50537 -4.020828,-1.59618 -8.463594,-0.74215 -1.993778,0.38326 -2.100893,0.33737 -2.511982,-1.07605 -0.76802,-2.64065 -0.0859,-4.36319 2.653056,-6.69971 1.561415,-1.332 1.66874,-2.32641 0.251969,-2.33461 -0.473722,-0.003 -2.958069,-2.28995 -4.264795,-3.92638 -1.6814661,-2.10572 -1.7971671,-2.10048 -2.1868347,0.099 -0.4779601,2.69791 -1.2844831,16.69031 -1.205294,20.9107 0.031672,1.68798 -0.015531,3.94373 -0.1048989,5.01278 -0.1781857,2.13155 -0.2204928,2.11585 0.9995083,0.37103 z m 181.5817773,-0.0788 c 0.68886,-0.68167 1.4316,-1.21173 1.84737,-1.31839 0.38242,-0.0981 1.03694,-0.26511 1.45448,-0.37113 4.37317,-1.11043 4.86379,-8.99085 0.69224,-11.11898 -5.55597,-2.83441 -11.63629,3.47997 -8.19314,8.50855 0.90993,1.32891 2.3782,4.15714 2.60152,5.01112 0.1628,0.62254 0.32086,0.55218 1.59753,-0.71117 z M 61.185808,152.34814 c -0.260744,-1.90436 -0.613939,-2.8094 -1.569075,-4.02065 -0.861593,-1.09263 -1.233124,-2.0846 -1.48103,-3.95431 -0.280441,-2.11507 -0.563715,-2.00192 3.507658,-1.40118 1.509439,0.22272 1.667244,0.20665 3.351293,-0.34137 1.768758,-0.57559 5.550222,-0.69652 6.931676,-0.22167 0.409206,0.14066 0.409206,0.14066 0,-0.10708 -0.225064,-0.13626 -1.16916,-0.75311 -2.097989,-1.37079 -1.476531,-0.98189 -1.772255,-1.10488 -2.35294,-0.9785 -2.993344,0.65145 -12.191057,1.01582 -13.861077,0.54911 -6.033833,-1.68623 -11.255247,-9.12785 -8.565982,-12.20834 0.977775,-1.12002 1.089576,-1.28501 2.041322,-3.01248 0.778391,-1.41282 0.695633,-1.40197 1.827331,-0.2395 0.937499,0.96299 3.507343,2.63504 3.856867,2.50944 0.195083,-0.0701 -0.885777,-1.5975 -2.511227,-3.54871 -0.468722,-0.56266 -1.12629,-1.37976 -1.461261,-1.81578 -0.334973,-0.43602 -1.233849,-1.58692 -1.997504,-2.55754 -4.355334,-5.53576 -5.212012,-8.71874 -3.448628,-12.81336 1.613253,-3.74601 2.430214,-6.55525 2.605404,-8.959064 0.167269,-2.295141 -0.37919,-6.216079 -1.132425,-8.125326 -0.309835,-0.78535 -0.41175,-1.380909 -0.337344,-1.971341 0.05864,-0.465312 -0.0378,-1.89242 -0.214299,-3.171353 -0.176503,-1.278931 -0.432454,-3.153974 -0.568779,-4.166761 -0.136326,-1.012787 -0.308831,-1.979538 -0.383345,-2.148336 -0.07452,-0.168798 -0.171577,-1.687978 -0.215695,-3.375957 -0.04412,-1.687978 -0.182795,-3.713552 -0.30817,-4.501275 -0.125375,-0.787723 -0.336071,-2.245813 -0.468212,-3.2402 -0.222028,-1.670802 -0.272741,-1.801179 -0.668407,-1.718405 -0.235484,0.04926 -1.348868,0.283671 -2.474187,0.520904 -3.568658,0.752325 -6.450923,1.107562 -9.820964,1.210422 -4.200447,0.128206 -6.692934,1.247522 -12.760837,5.730586 -6.135422,4.532947 -6.6905969,5.65808 -6.8475571,13.877458 -0.3692546,19.336378 -0.1750479,37.735618 0.4089261,38.741878 2.96238,5.10454 9.980129,11.50702 14.887377,13.58214 2.402218,1.01582 4.051541,1.20463 11.064003,1.26656 7.991425,0.0706 7.847509,0.0211 11.803907,4.05783 2.572301,2.62453 2.615063,2.65668 4.54146,3.41439 3.044327,1.19743 8.513949,5.31647 8.513949,6.41164 0,0.15095 0.06593,0.15041 0.218111,-0.002 0.154412,-0.15441 0.150807,-0.70968 -0.01236,-1.90131 z m 94.124972,-1.44649 c 3.63487,-2.46839 8.1868,-3.8767 12.54241,-3.88045 1.64152,-0.001 5.17852,-0.68017 6.43448,-1.23479 0.48292,-0.21325 1.63382,-0.58863 2.55754,-0.83417 0.92373,-0.24554 3.06057,-0.99548 4.74855,-1.66653 1.68798,-0.67104 3.71355,-1.4343 4.50128,-1.69613 4.55331,-1.51343 4.81454,-1.62739 7.66234,-3.34255 3.62194,-2.18139 7.49531,-5.41205 8.70831,-7.26332 0.67403,-1.0287 -0.12018,-50.889047 -0.82536,-51.815896 -7.76316,-10.203552 -14.90557,-12.90099 -25.00487,-9.443453 -5.6619,1.938374 -4.48553,0.07044 1.27544,-2.025248 1.02302,-0.372147 1.02302,-0.372147 -1.43222,-0.505632 -3.0385,-0.165197 -5.9585,-1.062138 -6.54448,-2.010272 -0.35369,-0.572282 -0.46455,-0.0053 -0.40865,2.090001 0.0358,1.343639 -0.0282,2.466527 -0.15415,2.701836 -0.11852,0.221458 -0.24111,1.435446 -0.27244,2.697749 -0.0313,1.262303 -0.16253,2.492387 -0.29158,2.733518 -0.12905,0.241129 -0.30702,1.514245 -0.39549,2.829148 -0.0928,1.379902 -0.30901,2.780016 -0.51125,3.311442 -0.60878,1.599674 -0.74633,2.348839 -1.14579,6.240405 -0.11552,1.125318 -0.36615,2.828642 -0.55697,3.785163 -0.89026,4.462621 -0.45442,8.704159 1.26509,12.311919 0.62616,1.31376 1.13847,2.56133 1.13847,2.77238 0,0.21104 0.11357,0.49728 0.25237,0.63608 1.47623,1.47624 -0.005,7.2967 -2.79463,10.98037 -0.85216,1.12532 -2.0467,2.7826 -2.65454,3.68286 -0.60785,0.90025 -1.44481,1.95908 -1.85992,2.35294 -0.76153,0.72255 -1.82051,2.52427 -1.69861,2.88998 0.0922,0.27671 1.90191,-0.72086 3.0472,-1.67974 1.15397,-0.96616 1.30785,-0.98108 1.72852,-0.16759 0.18016,0.34839 0.86493,1.35819 1.52172,2.244 2.37609,3.20462 1.92167,5.00765 -2.3473,9.31368 -3.53656,3.56725 -10.42221,5.04875 -16.16666,3.47837 -4.372,-1.19519 -7.69665,-0.66394 -10.2874,1.64383 -1.45446,1.29558 -1.60861,1.65843 -0.50543,1.18964 0.46397,-0.19716 1.85914,-0.40011 3.52941,-0.5134 1.6366,-0.11101 3.16293,-0.33094 3.74568,-0.53973 0.95983,-0.34388 1.0042,-0.34173 1.84143,0.0895 2.25872,1.16334 2.67685,1.23688 4.21262,0.74088 0.84339,-0.27239 1.15235,-0.29153 1.57765,-0.0978 0.44681,0.20358 0.63638,0.17454 1.22163,-0.18717 1.14699,-0.70888 1.3744,-0.21196 0.78276,1.71051 -0.56425,1.83347 -0.90851,2.658 -1.68186,4.02821 -2.10674,3.7327 -1.72618,6.80402 0.5742,4.63396 0.7722,-0.72846 1.97393,-1.7115 2.6705,-2.18453 z m -54.59615,1.65533 c 0.2585,-0.10555 1.16052,-0.39438 2.00451,-0.64183 0.84399,-0.24746 1.97218,-0.6692 2.5071,-0.93721 0.97256,-0.48729 0.97256,-0.48729 1.84143,-0.0438 5.10448,2.60551 8.40649,2.24266 9.5527,-1.0497 3.06186,-8.79484 2.64784,-13.20989 -2.08386,-22.22168 -0.89144,-1.69781 -1.09979,-2.15752 -1.70541,-3.76296 -1.58624,-4.20499 -2.26741,-4.87318 -5.10484,-5.00749 -0.95089,-0.045 -2.13034,-0.14204 -2.621,-0.21562 -0.60545,-0.0908 -1.21434,-0.0244 -1.89487,0.20666 -2.26408,0.76866 -2.71329,1.3215 -4.249565,5.22995 -0.510594,1.299 -1.333241,3.0944 -1.828105,3.98976 -0.494862,0.89537 -1.29099,2.50262 -1.769177,3.57167 -0.478185,1.06905 -0.951136,2.10175 -1.051001,2.29488 -0.922448,1.78391 -1.310769,8.27265 -0.615703,10.28823 0.11642,0.3376 0.40632,1.44246 0.644223,2.45524 1.270914,5.41044 3.170246,7.15192 6.373568,5.84389 z m -67.375349,-3.76779 c 1.972582,-1.00869 3.558201,-1.56116 6.259709,-2.18106 3.970456,-0.91109 3.864003,-0.80218 2.301788,-2.3548 -1.31489,-1.30681 -1.146025,-1.28186 -8.920776,-1.3184 -4.921126,-0.0231 -5.953232,-0.0868 -8.558453,-0.52816 -4.927948,-0.83482 -6.534599,-0.38105 -7.948812,2.24498 -0.482792,0.89649 -0.520448,0.86602 1.774486,1.43588 1.052943,0.26146 2.50149,0.71457 3.218993,1.00692 1.425914,0.58099 1.662198,0.5558 1.662198,-0.17724 0,-1.05531 1.186109,-2.35255 2.151023,-2.35255 1.927628,0 3.070473,2.19515 2.900707,5.57162 -0.120703,2.40063 -0.120703,2.40063 1.639999,0.97631 0.968386,-0.78337 2.551998,-1.82895 3.519138,-2.3235 z M 75.5573,127.38987 c 1.91615,-0.17124 2.537021,-0.28183 5.473882,-0.97503 6.61054,-1.5603 12.857414,-5.05599 14.442883,-8.08209 0.159724,-0.30486 0.497152,-0.77422 0.749841,-1.04302 1.796158,-1.91071 2.382805,-3.78809 2.396475,-7.66916 0.0077,-2.17723 0.46339,-3.26678 2.565489,-6.13362 0.0221,-0.0302 0.50023,-0.17416 1.06248,-0.32001 0.62677,-0.16258 1.49445,-0.63612 2.24265,-1.22394 1.49744,-1.17646 1.46068,-1.17723 3.34323,0.0698 0.84399,0.55908 1.63646,1.01672 1.76106,1.01698 1.53649,0.003 3.96784,5.17284 3.96784,8.43667 0,2.96517 0.40491,4.00148 2.33982,5.9883 0.79493,0.81626 1.70245,1.81771 2.0167,2.22543 2.64283,3.42891 11.47918,7.14519 18.33414,7.71074 9.84256,0.81203 19.45764,-3.58862 19.45764,-8.90542 0,-0.10747 2.93462,-6.63247 3.28975,-7.31462 0.64548,-1.23987 0.63824,-6.50683 -0.0119,-8.65215 -0.8435,-2.783376 -1.16795,-3.659956 -1.8175,-4.910478 -3.99896,-7.698803 -15.90237,-10.388786 -26.14598,-5.908579 -0.3546,0.155092 -0.70016,0.281985 -0.76789,0.281985 -0.2079,0 -9.91772,4.847732 -12.09121,6.036662 -4.23434,2.31625 -7.10709,2.87246 -9.30945,1.802452 -0.5064,-0.246028 -1.26728,-0.587138 -1.69086,-0.758025 -0.42357,-0.170885 -0.82473,-0.452964 -0.89145,-0.626844 -0.20309,-0.529239 -1.15612,-0.368969 -1.91216,0.321569 -1.56492,1.429328 -3.23314,1.701908 -6.192641,1.01184 -2.242714,-0.522934 -3.252736,-0.951338 -6.49957,-2.75681 C 88.464322,95.229624 81.32028,91.934918 78.985148,91.162231 66.787387,87.126042 56.174119,90.991336 53.420544,100.47272 c -0.130725,0.45013 -0.389598,1.32481 -0.575271,1.94373 -0.48569,1.619 -0.495992,7.2921 -0.01561,8.60038 0.733567,1.99784 1.360263,3.31163 3.510207,7.35869 4.02102,7.56918 9.040754,9.92379 19.217438,9.01435 z M 52.361776,88.620823 c 2.712772,-0.926868 5.147524,-1.949836 8.515969,-3.578014 1.575446,-0.761512 3.301442,-1.560384 3.835547,-1.775275 1.211618,-0.487478 1.212304,-0.689159 0.0056,-1.659297 -3.740983,-3.007682 -8.91783,-8.757374 -11.918513,-13.237358 -0.785514,-1.172758 -1.500756,-2.16362 -1.589429,-2.201911 -0.212321,-0.09169 -1.688742,-2.125443 -1.688742,-2.326218 0,-0.378353 -1.155186,-1.936539 -1.432224,-1.931872 -0.631273,0.01064 -1.84167,1.389896 -1.837659,2.094036 0.0077,1.350291 1.319657,7.531307 1.834277,8.641741 0.91646,1.97751 0.89415,1.766302 0.849088,8.038091 -0.02368,3.295631 -0.120284,6.195884 -0.214678,6.445007 -0.10052,0.265291 -0.07669,0.861178 0.05752,1.438274 0.272092,1.169988 0.311675,1.170571 3.583195,0.0528 z M 161.50176,87.224648 c -0.0505,-1.04092 -0.19493,-2.162001 -0.32098,-2.491294 -0.96506,-2.52116 0.29917,-8.023609 3.04263,-13.242827 0.60602,-1.152898 1.68387,-10.853841 1.14545,-10.309322 -0.0605,0.06114 -1.4433,-0.212376 -2.13826,-0.42294 -0.23411,-0.07093 -0.35805,0.0018 -0.35805,0.209981 0,0.529266 -3.4495,6.638296 -5.10778,9.045826 -2.41152,3.50111 -6.41066,7.816689 -10.19542,11.002145 -1.98444,1.670215 -1.97845,1.647876 -0.60472,2.257543 0.5908,0.262196 2.2711,1.066273 3.73402,1.786837 3.96819,1.954552 7.65141,3.394235 10.02556,3.918759 0.87686,0.193725 0.87253,0.203513 0.77755,-1.754708 z m -55.1666,-11.202037 c 0.28749,-0.843989 0.60429,-1.621993 0.70398,-1.728899 0.0997,-0.106905 0.18128,-0.370661 0.18128,-0.586123 0,-0.215462 0.37663,-1.232852 0.83694,-2.260868 0.74674,-1.667655 1.23454,-3.865613 1.19812,-5.398526 -0.003,-0.140665 -0.009,-0.462916 -0.0127,-0.716112 -0.004,-0.253197 0.13829,-1.127877 0.31543,-1.943733 0.17715,-0.815856 0.44588,-2.124729 0.59718,-2.908605 0.27788,-1.439678 0.4684,-1.795142 2.31782,-4.324484 0.54321,-0.742909 1.3099,-1.801731 1.70376,-2.352939 0.92131,-1.289364 3.96815,-4.458976 4.96359,-5.163593 0.42307,-0.299466 1.89621,-1.318526 3.27366,-2.264577 9.32999,-6.408007 13.46976,-13.620122 12.63602,-22.013904 -0.45466,-4.577401 -1.79557,-5.914818 -7.98326,-7.962482 -2.31066,-0.764657 -2.92337,-0.701841 -1.76586,0.181037 3.89115,2.967923 3.68183,12.502865 -0.43571,19.84811 -1.5753,2.81015 -2.7013,3.938681 -5.67491,5.687645 -6.69687,3.938851 -8.42063,5.733498 -11.70491,12.186204 -0.82102,1.613075 -1.49276,3.063202 -1.49276,3.222504 0,0.670287 -0.39118,0.202576 -0.82727,-0.98913 -2.04348,-5.58418 -5.825747,-9.955702 -11.993134,-13.861591 -7.380899,-4.674421 -11.176122,-13.1217 -9.28455,-20.665236 0.09876,-0.393862 0.330382,-1.314577 0.514711,-2.046034 0.19449,-0.771778 0.587785,-1.646894 0.937125,-2.085188 1.030092,-1.292385 0.654456,-1.322946 -1.704349,-0.138661 -2.374646,1.192239 -5.46667,3.449395 -6.74737,4.925537 -0.400841,0.46201 -0.505829,5.098901 -0.156563,6.914672 1.097462,5.705498 4.708299,11.43096 9.298442,14.743913 6.381245,4.60569 8.382242,6.377102 11.583708,10.254641 1.052507,1.274774 2.64068,4.222624 2.76729,5.136434 0.0657,0.474336 0.19773,1.046573 0.29336,1.271637 0.20814,0.489847 0.58465,2.840296 0.82676,5.16125 0.20057,1.922861 0.57905,3.177409 1.26232,4.184257 0.26147,0.385299 0.64154,1.248365 0.8446,1.917923 0.20307,0.669557 0.50049,1.644058 0.66095,2.165554 0.16046,0.521497 0.29174,1.137546 0.29174,1.368999 0,0.231452 0.0921,0.477724 0.20461,0.547273 0.11253,0.06955 0.2046,0.403636 0.2046,0.742418 0,1.266264 0.78108,0.665986 1.36538,-1.049323 z M 10.844709,71.652837 c 0.735583,-0.771662 2.061396,-2.008244 2.946252,-2.747961 1.766522,-1.476764 1.756908,-1.29753 0.122954,-2.292307 -1.304326,-0.794093 -2.129009,-2.67251 -1.941604,-4.422473 0.222919,-2.081588 0.767545,-2.046281 4.35385,0.282259 1.202592,0.780828 1.807542,1.058819 2.101273,0.965591 0.226867,-0.072 0.887653,0.02691 1.468413,0.219805 1.040225,0.345508 4.921912,0.33325 5.489169,-0.01733 0.114627,-0.07084 -0.380055,-0.697461 -1.099291,-1.392484 -2.022204,-1.954125 -2.734113,-3.400272 -2.181862,-4.432163 0.350344,-0.654624 1.842965,-0.402555 1.842965,0.311237 0,0.441831 0.620935,0.364344 1.163283,-0.145164 1.082731,-1.017174 0.262373,-2.872826 -2.607351,-5.897835 -1.933239,-2.03785 -2.053604,-2.128092 -2.340424,-1.754734 -1.194451,1.554843 -0.100074,4.077081 1.909523,4.400921 0.816476,0.131573 1.159866,0.935627 0.598536,1.401491 -1.777414,1.475121 -5.438533,-0.123051 -6.120169,-2.671609 -0.299645,-1.120341 -0.177144,-1.083255 -1.843474,-0.558117 -2.779953,0.876087 -3.870275,0.737265 -5.8105452,-0.739801 -3.0675441,-2.335227 -4.1716345,0.862734 -2.3747426,6.878363 0.9036504,3.02524 1.6231293,7.552068 1.772284,11.150887 0.1701545,4.105511 0.2086419,4.277709 0.7773321,3.477918 C 9.310994,73.331923 10.109127,72.4245 10.844709,71.652837 Z M 204.38617,68.963793 c 0.46037,-2.100086 0.66427,-16.185687 0.26616,-18.38625 -0.14299,-0.790357 -0.14299,-0.790357 -1.03457,0.267421 -0.49037,0.581777 -1.27297,1.300443 -1.73913,1.597034 -1.47262,0.936956 -1.44528,0.779367 -0.62506,3.604124 0.79452,2.736227 0.30037,5.545012 -1.50481,8.553466 -2.05607,3.426586 -2.05448,3.42072 -1.14636,4.224371 1.92613,1.704551 3.29932,3.125659 3.96321,4.101495 0.80528,1.183669 0.58986,1.652457 1.82056,-3.961661 z m -23.76153,-3.660627 c 3.03865,-0.322658 2.84657,-0.113604 1.87701,-2.04282 -1.22585,-2.439169 -0.98728,-5.176164 0.65592,-7.525058 0.88301,-1.262241 0.0692,-1.04458 -1.71893,0.459713 -2.65824,2.23635 -5.62165,3.715478 -9.15433,4.569208 -1.94374,0.469735 -1.94374,0.469735 -2.00762,1.220856 -0.2467,2.900634 3.36698,4.059371 10.34795,3.318101 z m 14.03415,-1.845863 c 1.69318,-1.213433 2.60415,-3.202184 3.38752,-7.395343 0.44214,-2.366648 -4.10407,-2.666193 -5.5268,-0.364157 -0.939,1.519329 -2.82524,1.986441 -4.40995,1.092087 -1.33978,-0.756126 -1.22848,-0.766694 -1.61633,0.153452 -2.1887,5.192403 3.58393,9.797433 8.16556,6.513961 z M 34.074697,63.015528 c 3.441266,-0.488853 6.851672,-1.145513 6.973558,-1.342728 0.06018,-0.09737 -0.013,-0.177032 -0.162617,-0.177032 -0.418473,0 -4.433631,-1.327194 -5.58332,-1.845545 -1.424639,-0.642315 -3.392047,-1.93677 -5.319689,-3.500087 -0.900255,-0.730107 -1.740359,-1.389525 -1.866898,-1.465376 -0.126539,-0.07585 0.04474,0.65938 0.380628,1.633844 0.700028,2.03092 0.604484,4.315048 -0.250606,5.991165 -0.442251,0.86688 -0.441567,0.868365 0.509255,1.105548 0.557195,0.138993 2.616279,-0.01575 5.319689,-0.399789 z m 8.59147,-8.015918 c 0.06902,-0.534526 0.1594,-1.137894 0.200832,-1.340815 0.04143,-0.202922 -0.156736,-0.875858 -0.44038,-1.495416 -0.603222,-1.317609 -0.542813,-2.032878 0.308147,-3.648627 0.299607,-0.568876 0.575959,-1.103371 0.614113,-1.18777 0.03816,-0.0844 -0.252345,-0.153453 -0.645558,-0.153453 -2.136772,0 -6.918634,-2.494302 -6.18614,-3.226796 0.142412,-0.142412 1.111506,-0.505606 2.957463,-1.108386 1.25141,-0.408638 1.353775,-0.412609 2.370922,-0.09198 1.562143,0.492424 1.60851,0.457962 0.994434,-0.739072 -0.46533,-0.907081 -0.569301,-1.424255 -0.668407,-3.324806 -0.10168,-1.949887 -0.184129,-2.344254 -0.617004,-2.951201 -0.574203,-0.805111 -0.747993,-0.591501 -0.4352,0.534915 1.711696,6.164079 -9.42319,9.835728 -12.08807,3.985955 -0.703443,-1.54415 -3.104924,3.406798 -2.808931,5.790954 0.240921,1.940544 0.861295,3.637259 1.637294,4.477977 0.592771,0.642209 0.592771,0.642209 0.20709,-0.286666 -1.426657,-3.435946 0.723242,-6.19632 2.657722,-3.4124 4.61998,6.648633 11.528218,11.379354 11.941673,8.177589 z M 172.28431,54.813848 c 6.22096,-1.445056 10.84681,-6.531724 10.84284,-11.922975 -0.002,-2.218718 -0.33371,-3.358242 -0.78985,-2.710412 -1.44175,2.047634 -2.70743,2.811273 -5.30685,3.201855 -2.02322,0.304004 -3.03412,0.671083 -3.60139,1.307733 -0.21437,0.240595 -0.49491,0.437446 -0.62343,0.437446 -0.12852,0 -0.58995,0.364857 -1.02539,0.810794 -0.77827,0.797019 -2.16806,1.439844 -3.11294,1.439844 -0.58552,0 -0.58728,-0.04969 0.0522,1.46967 0.47968,1.139664 0.51446,1.406516 0.38535,2.956434 -0.31103,3.733928 -0.23767,3.80337 3.17945,3.009611 z M 9.424978,43.890547 c 0.1097861,-0.205138 0.1996109,-0.643736 0.1996109,-0.974663 0,-1.61177 0.192364,-1.909806 0.8935621,-1.384427 4.018408,3.010825 9.84552,-0.749614 10.81272,-6.977826 0.517866,-3.334751 2.34223,-4.968607 4.528132,-4.05528 1.570501,0.656198 1.546832,0.266189 -0.05955,-0.98128 -1.783592,-1.385086 -3.038156,-1.133724 -7.316617,1.465944 -4.437523,2.696315 -6.361439,3.039032 -9.2261119,1.643494 C 8.43547,32.226433 7.7179266,31.972895 7.6621814,32.063092 c -0.6185431,1.000826 -0.8962896,6.48145 -0.580785,11.460333 0.1351843,2.133299 1.3006433,2.315869 2.3435816,0.367122 z M 200.06927,42.314198 c 3.6757,-2.237033 4.73073,-4.330609 4.74293,-9.411757 0.004,-1.791903 -0.0681,-1.90522 -0.83792,-1.311942 -3.58828,2.765283 -7.76107,2.550132 -10.36082,-0.534205 -2.51902,-2.98856 -2.54744,-3.01042 -3.87419,-2.97992 -2.81589,0.06473 -8.0489,3.005855 -5.97582,3.35861 2.01422,0.342738 3.90856,1.789161 6.08126,4.643344 2.15356,2.829027 4.90735,3.925527 5.70678,2.272317 0.57713,-1.193486 1.89904,-0.878968 1.89904,0.451836 0,1.686736 -2.16624,2.194638 -4.71234,1.104865 -1.63585,-0.700178 -1.67623,-0.706829 -1.55217,-0.255755 0.0701,0.254715 0.23115,1.075079 0.35798,1.823031 0.23061,1.359909 0.23061,1.359909 1.7898,1.266708 0.85755,-0.05126 1.97351,-0.0058 2.4799,0.101048 1.96819,0.41524 2.89429,0.300298 4.25557,-0.52818 z M 26.81714,40.677371 c 0.583244,-1.209718 1.245896,-2.843988 1.472559,-3.631711 1.564259,-5.436274 5.979895,-7.471435 9.827686,-4.529568 1.571016,1.201137 2.554872,0.715621 1.919769,-0.947373 -0.605683,-1.585961 -0.25199,-1.972148 3.50704,-3.829222 1.899172,-0.938248 1.899172,-0.938248 1.005087,-1.568455 -0.942192,-0.664121 -2.279891,-2.284033 -3.438346,-4.163733 -0.693532,-1.125319 -0.693532,-1.125319 -0.81532,0.409207 -0.307255,3.871399 -1.488289,5.198492 -7.145938,8.029685 -5.897933,2.951437 -7.566022,5.532377 -7.566022,11.706481 0,1.033583 0.05637,0.966164 1.233485,-1.475311 z m 150.50881,0.850651 c 3.15843,-0.592524 4.27209,-5.82643 1.72867,-8.124256 -0.8033,-0.725738 -0.99055,-0.806053 -2.4502,-1.050933 -3.44532,-0.578007 -6.15086,5.021555 -3.67135,7.59848 0.71528,0.743384 2.96471,1.944913 3.37762,1.804152 0.13268,-0.04523 0.58954,-0.147578 1.01526,-0.227443 z M 36.629969,41.065221 c 4.026984,-2.159695 1.941026,-8.009346 -2.771239,-7.771386 -2.368423,0.119599 -2.84348,0.99088 -2.827865,5.18649 0.0093,2.490244 3.108078,3.920848 5.599104,2.584896 z M 13.51726,31.418078 c 2.862294,-0.542823 3.918585,-3.146257 2.418464,-5.960771 -1.785615,-3.350158 -6.1009323,-3.875557 -6.5923134,-0.802628 -0.1636007,1.023103 -0.8191898,2.204522 -1.6202604,2.919825 -1.1285321,1.007705 1.2018398,3.416082 3.7166138,3.841018 0.520834,0.08801 0.957422,0.170846 0.970196,0.184082 0.01277,0.01324 0.511058,-0.06845 1.1073,-0.181526 z m 187.71843,-0.56314 c 3.09366,-1.603561 3.629,-4.558243 1.25633,-6.933961 -1.70281,-1.704999 -3.66196,-1.917472 -5.61919,-0.609411 -4.91693,3.286113 -0.88223,10.262103 4.36286,7.543372 z m -21.29028,-1.942264 c 0.18908,-1.150086 0.93224,-7.320893 0.93224,-7.740794 0,-0.441755 -0.19032,-0.535767 -2.45524,-1.212805 -0.84399,-0.252288 -2.48236,-0.829673 -3.64083,-1.283078 -2.56177,-1.002639 -2.5606,-1.003335 -2.57682,1.533812 -0.0257,4.021958 1.2574,5.968167 5.6941,8.636694 1.53554,0.92357 1.90364,0.935472 2.04655,0.06617 z M 182.841,27.97334 c 1.57538,-1.840477 5.16782,-3.745943 8.94056,-4.742163 2.1509,-0.567963 3.73445,-2.163947 4.46156,-4.496593 0.33693,-1.080918 0.90109,-6.828889 0.69797,-7.111372 -0.0204,-0.02839 -0.60301,0.231157 -1.29466,0.576779 -0.83709,0.418294 -2.0284,0.763921 -3.56304,1.033717 -7.11174,1.250274 -8.99756,3.910545 -10.09928,14.246742 -0.15902,1.491952 -0.0513,1.553912 0.85689,0.49289 z M 56.344611,28.05235 c 0.06282,-0.163714 0.510013,-0.499012 0.993757,-0.745105 2.284651,-1.16227 4.375462,-3.225192 5.060534,-4.993035 1.371682,-3.539656 2.575153,-5.302542 4.612258,-6.75619 1.318487,-0.940852 2.135579,-1.72408 1.826679,-1.750971 -5.165735,-0.449684 -7.394439,0.872143 -10.721487,6.358825 -1.766603,2.913332 -3.30208,4.690754 -4.992125,5.778737 -1.170229,0.753348 -1.122905,0.826749 1.177265,1.825918 1.460192,0.634291 1.88536,0.692936 2.043119,0.281821 z M 156.79955,27.728908 c 0.29122,-0.229076 0.8124,-0.515121 1.15817,-0.635657 0.62867,-0.219157 0.62867,-0.219157 -0.8178,-1.741914 -1.67195,-1.760136 -2.40602,-2.852133 -3.8425,-5.716079 -2.20809,-4.402319 -4.38701,-5.757968 -9.8622,-6.135904 -1.94373,-0.13417 -1.94373,-0.13417 -0.59687,1.271294 2.43625,2.542264 6.32577,7.471284 6.32577,8.016382 0,0.118938 0.38874,0.477332 0.86387,0.796433 0.47513,0.319102 1.1415,0.947089 1.48082,1.395528 0.68819,0.909493 2.06352,2.021351 2.7827,2.249611 0.25908,0.08223 0.75361,0.321806 1.09894,0.532394 0.77769,0.474238 0.76505,0.474527 1.4091,-0.03209 z M 35.782692,26.943857 c 2.486797,-2.082062 3.696672,-6.49558 2.369361,-8.643215 -0.443763,-0.718024 -5.800483,1.230683 -6.557069,2.385379 -0.453359,0.691912 0.09198,4.318296 1.056379,7.024733 0.216706,0.608149 2.015037,0.167717 3.131329,-0.766897 z m -7.774883,-3.212953 c 1.187441,-3.483736 1.099774,-4.457267 -0.610091,-6.775109 -2.068405,-2.803869 -3.573243,-3.81536 -6.008433,-4.038623 -2.606903,-0.239007 -5.11576,-1.07964 -6.278662,-2.103768 -0.612946,-0.539801 -0.780156,-0.117141 -0.780156,1.972025 0,5.695292 1.911105,9.594072 5.012784,10.226411 2.007872,0.409344 3.694917,1.023148 5.689056,2.069875 2.216532,1.163461 2.100561,1.216109 2.975502,-1.350811 z m 137.213101,0.52926 c 3.63171,-1.758081 4.49904,-11.109395 1.10825,-11.948921 -1.342,-0.332267 -2.15919,-0.02162 -2.89916,1.102092 -1.43514,2.179378 -3.44871,2.470482 -6.59325,0.953194 -2.54127,-1.226199 -7.21095,-1.783616 -5.74221,-0.685443 1.32961,0.99414 2.16471,1.852315 2.78689,2.863881 4.0195,6.535075 8.07597,9.295034 11.33948,7.715197 z M 51.581632,23.809773 c 1.850658,-0.924785 3.666041,-2.834993 5.504697,-5.792231 1.351432,-2.173601 3.233855,-4.398973 3.721051,-4.398973 0.09497,0 0.172667,-0.09526 0.172667,-0.211688 0,-0.175372 -8.6913,-0.177806 -10.264422,-0.0029 -0.786117,0.08742 -2.731322,-1.107378 -4.102261,-2.519715 -2.510325,-2.5861267 -5.519339,-0.02175 -5.217519,4.446536 0.442003,6.54361 5.549866,10.795543 10.185787,8.478945 z M 180.72379,16.69754 c 0.74971,-0.839075 0.75268,-3.415852 0.006,-4.863595 -1.665,-3.2265666 -7.01286,-1.609183 -7.01286,2.120939 0,2.756237 5.18265,4.784739 7.00726,2.742656 z M 35.598033,16.897932 c 1.72237,-0.878688 2.1164,-2.590315 1.068959,-4.643469 -1.887968,-3.7007232 -6.294219,-3.1359157 -6.903223,0.884877 -0.464374,3.065923 2.919228,5.245732 5.834264,3.758592 z m -7.503247,-4.25123 c 0.141442,-1.961127 0.938512,-3.8166005 2.280917,-5.309679 0.515267,-0.5731001 0.936848,-1.1057765 0.936848,-1.1837251 0,-0.077949 -3.967215,-0.1143169 -8.816034,-0.080818 -8.816034,0.060907 -8.816034,0.060907 -7.826081,1.0085697 0.544475,0.5212145 1.348299,1.3868985 1.786276,1.9237423 1.044241,1.2799611 1.642537,1.5000611 4.708439,1.7321301 3.135191,0.237313 4.644272,0.888341 5.849679,2.523591 0.929159,1.260493 0.945446,1.251237 1.079956,-0.613811 z M 184.2729,12.340733 c 0.97861,-1.907342 2.25248,-2.3987836 6.73262,-2.5973443 2.5592,-0.1134245 3.42864,-0.2261524 3.98382,-0.516525 0.75408,-0.3944042 3.075,-2.5081825 3.075,-2.8005594 0,-0.095402 -3.91304,-0.1734587 -8.69565,-0.1734587 -5.99421,0 -8.69564,0.067443 -8.69564,0.2170933 0,0.1194012 0.36259,0.9874304 0.80576,1.9289539 0.44317,0.9415234 1.01539,2.5992932 1.2716,3.6839322 0.51901,2.197176 0.52682,2.198499 1.52249,0.257908 z m -23.49182,-1.435952 c 1.6701,-1.7777324 1.29257,-3.7060151 -0.84736,-4.3281114 -3.20262,-0.9310259 -45.90077,-0.583139 -45.40975,0.3699801 0.18024,0.3498649 0.49815,0.7564284 0.70645,0.9034743 0.20831,0.1470458 0.37874,0.3808541 0.37874,0.5195742 0,0.1387199 0.20716,0.2485884 0.46036,0.2441524 1.06823,-0.018715 11.70557,0.342688 19.48847,0.6621212 10.14221,0.4162657 12.59211,0.4249705 14.75349,0.052422 1.51102,-0.2604497 1.80278,-0.2523816 3.27365,0.090528 1.54167,0.3594151 2.00139,0.518542 3.86543,1.3379902 1.2213,0.536894 1.36828,0.577303 2.16382,0.594867 0.50987,0.01126 0.86347,-0.124216 1.1667,-0.446998 z M 78.882846,9.1367934 C 81.246015,9.0258865 86.30995,8.831829 90.136034,8.7055545 98.347745,8.4345384 99.240886,8.1899301 99.240886,6.21197 c 0,-0.09095 -11.163674,-0.1419782 -24.808164,-0.1133951 -24.808165,0.051969 -24.808165,0.051969 -24.793478,1.0530152 0.03535,2.4094612 8.279172,2.9690939 29.243602,1.9852033 z"
       id="path12611" /></g></svg>
