<?xml version="1.0" encoding="UTF-8" standalone="no"?>
<!-- Created with Inkscape (http://www.inkscape.org/) -->

<svg
   width="210mm"
   height="297mm"
   viewBox="0 0 210 297"
   version="1.1"
   id="svg5"
   xml:space="preserve"
   inkscape:version="1.2.2 (b0a8486541, 2022-12-01)"
   sodipodi:docname="lids.svg"
   inkscape:export-filename="lids-fairy.svg"
   inkscape:export-xdpi="96"
   inkscape:export-ydpi="96"
   xmlns:inkscape="http://www.inkscape.org/namespaces/inkscape"
   xmlns:sodipodi="http://sodipodi.sourceforge.net/DTD/sodipodi-0.dtd"
   xmlns="http://www.w3.org/2000/svg"
   xmlns:svg="http://www.w3.org/2000/svg"><sodipodi:namedview
     id="namedview7"
     pagecolor="#ffffff"
     bordercolor="#000000"
     borderopacity="0.25"
     inkscape:showpageshadow="2"
     inkscape:pageopacity="0.0"
     inkscape:pagecheckerboard="0"
     inkscape:deskcolor="#d1d1d1"
     inkscape:document-units="mm"
     showgrid="false"
     inkscape:zoom="1.3320199"
     inkscape:cx="302.92339"
     inkscape:cy="478.22107"
     inkscape:window-width="2520"
     inkscape:window-height="2071"
     inkscape:window-x="8"
     inkscape:window-y="8"
     inkscape:window-maximized="1"
     inkscape:current-layer="layer5" /><defs
     id="defs2" /><g
     inkscape:groupmode="layer"
     id="layer3"
     inkscape:label="bug"
     style="display:inline"><path
       style="fill:#000000;stroke-width:0.204481"
       d="m 0.72271806,105.70862 c 0,-80.965385 0.0551688,-104.5040584 0.24537718,-104.6942668 0.35777376,-0.35777375 208.53999476,-0.35777375 208.89777476,0 0.35778,0.3577738 0.35778,208.5399968 0,208.8977768 -0.19021,0.19021 -23.72888,0.24538 -104.69426,0.24538 H 0.72271806 Z M 30.316924,205.19884 c -1.820376,-2.49274 -2.384126,-6.12798 -1.348847,-8.69779 0.952681,-2.36478 0.08221,-1.55444 -1.869256,1.74014 -1.843717,3.11267 -3.00921,3.82703 -6.784435,4.15832 -2.911468,0.25549 -6.504885,2.06652 -6.504885,3.27837 0,0.10807 3.546955,0.18553 8.496367,0.18553 h 8.496367 z m 63.393439,0.21113 c 0.06516,-0.2567 0.520197,-1.23841 1.011199,-2.18158 0.491002,-0.94316 0.859904,-1.74768 0.819779,-1.7878 -0.159547,-0.15955 -26.685331,0.35313 -27.544378,0.53236 -0.506091,0.10559 -1.71275,0.196 -2.681464,0.20089 -3.734661,0.0189 -4.948603,0.60541 -4.973176,2.40281 l -0.0134,0.98003 1.022405,0.10498 c 0.562322,0.0577 8.04649,0.12973 16.631485,0.16001 l 15.609079,0.055 z M 146.46858,204.841 c 0.10489,-1.81559 -0.75962,-2.4799 -3.73382,-2.86911 -1.8303,-0.23952 -26.88925,-0.56423 -26.88925,-0.34843 0,0.0574 0.2695,0.68984 0.59889,1.40537 0.32939,0.71553 0.73903,1.64665 0.91031,2.06916 l 0.31142,0.76818 14.37465,-0.0525 14.37464,-0.0525 z m 49.80073,0.687 c 0.23285,-0.23285 -0.48161,-1.17972 -1.44409,-1.91389 l -0.93826,-0.71568 -3.08319,-0.12306 c -4.48871,-0.17915 -5.28231,-0.56321 -6.92875,-3.35312 l -0.84471,-1.43136 -0.15877,1.12464 c -0.39315,2.78502 -0.61646,3.77075 -1.08754,4.80064 -0.86782,1.89724 -1.48169,1.74275 6.9249,1.74275 4.08622,0 7.4884,-0.0589 7.56041,-0.13092 z m -17.55212,-3.08808 c 1.02769,-1.02768 1.9488,-3.43662 1.9488,-5.0966 0,-3.04035 -6.30578,-2.81772 -7.07568,0.24981 -0.83676,3.33392 3.00648,6.9672 5.12688,4.84679 z M 34.597566,201.96217 c 4.180511,-2.02375 3.868326,-7.12051 -0.447705,-7.30928 l -1.944702,-0.0851 -0.706325,0.74892 c -2.636252,2.79524 -0.115405,8.20135 3.098732,6.64541 z m -17.925331,-1.9315 c 0.933893,-0.47686 1.515112,-0.60312 3.426775,-0.74446 5.507987,-0.40721 8.044441,-3.73632 9.055239,-11.88506 0.27614,-2.22614 0.213505,-2.43455 -0.582591,-1.93853 -2.950204,1.83815 -4.008864,2.18402 -7.298601,2.38449 -5.880603,0.35835 -6.923269,2.30881 -7.047873,13.18414 l -0.0067,0.58659 0.664563,-0.50646 c 0.36551,-0.27855 1.170654,-0.76487 1.789209,-1.08071 z m 151.428545,0.67841 c 3.44438,-3.75846 -1.6788,-12.85508 -7.23261,-12.84207 -1.85317,0.004 -3.77296,1.96144 -6.5747,6.70246 -1.04558,1.76932 -2.44074,3.88262 -3.10035,4.69624 -1.67335,2.06406 -1.47554,2.11781 2.76493,0.75121 1.8481,-0.5956 2.32896,-0.68158 2.83169,-0.50632 1.50643,0.52514 3.08304,0.50101 4.19857,-0.0643 1.60507,-0.81334 2.91024,-0.28104 2.91024,1.18692 0,1.32277 3.00972,1.3771 4.20223,0.0758 z M 46.421712,201.1613 c 0.802978,-0.3053 1.974454,-1.31291 2.828618,-2.43296 1.081749,-1.41848 3.218592,-2.1322 2.331842,-0.77885 -0.563395,0.85985 1.411209,1.28148 5.669133,1.21053 4.133973,-0.0689 3.940835,0.0521 2.43555,-1.52612 -0.926053,-0.97095 -1.635627,-2.06629 -2.947082,-4.54929 -4.534051,-8.58441 -9.200223,-9.21436 -13.641219,-1.8416 -2.853618,4.73747 -0.61597,11.41594 3.323158,9.91829 z m 150.100018,-2.16812 c 0.63323,-6.75754 -0.42649,-8.46284 -6.57868,-10.5864 -1.44729,-0.49956 -3.34966,-1.23899 -4.22749,-1.64316 -0.87783,-0.40418 -1.64013,-0.73487 -1.69401,-0.73487 -0.35698,0 0.53895,4.84811 1.63624,8.85414 0.85002,3.10326 2.36053,4.22901 5.68576,4.23747 1.74148,0.004 2.00763,0.0608 3.22714,0.68374 1.84232,0.94105 1.78461,0.96503 1.95104,-0.81092 z m -50.10631,-0.1164 c 2.62179,-0.58007 4.94389,-2.61066 6.54459,-5.723 1.42547,-2.77162 2.41946,-4.14685 3.69129,-5.10709 0.61801,-0.46661 1.09821,-0.87168 1.06712,-0.90016 -0.0311,-0.0285 -0.89555,-0.61144 -1.921,-1.29547 -1.10485,-0.73698 -2.53498,-1.95203 -3.51026,-2.98235 l -1.64581,-1.73869 -0.13239,1.58032 c -0.39587,4.72571 -0.93672,6.83684 -2.60507,10.16852 -1.06046,2.11772 -1.53277,2.81026 -3.36839,4.93897 -1.47121,1.70613 -1.35105,1.77381 1.87992,1.05895 z m -79.266499,-1.34597 c -3.359138,-3.50159 -5.69406,-9.91498 -5.69507,-15.6428 -4.09e-4,-1.88884 0.07124,-1.86823 -1.583208,-0.45588 -0.727292,0.62086 -2.26284,1.76902 -3.412326,2.55146 -2.982827,2.03039 -3.007617,2.0664 -1.923505,2.79449 1.146985,0.77033 2.208777,2.18528 3.397234,4.52719 2.592181,5.10801 5.64659,7.51285 9.638381,7.58864 l 0.902592,0.0171 -1.324098,-1.38025 z m 106.000609,-2.66292 c 1.58332,-2.20386 4.66216,-3.0168 7.41898,-1.95891 0.47395,0.18188 -0.1486,-9.43536 -0.65594,-10.13289 -1.45742,-2.0038 -7.55567,6.67039 -7.78544,11.07406 -0.1204,2.30755 0.006,2.43301 1.0224,1.01774 z m -134.555349,-5.4652 c -0.197814,-2.01628 -0.828777,-2.78845 -3.007455,-3.68051 -0.787252,-0.32234 -1.999061,-0.92712 -2.692908,-1.34394 l -1.261541,-0.75786 -0.140516,1.76651 c -0.07728,0.97158 -0.222718,2.21614 -0.323188,2.7657 -0.464307,2.53974 -0.267563,2.8628 2.066622,3.39348 1.176254,0.26742 4.542081,1.9135 4.967614,2.42943 0.29068,0.35244 0.562732,-2.82622 0.391372,-4.57281 z m 63.551109,2.05195 c 0,-0.27723 -0.12793,-0.89834 -0.28429,-1.38024 -0.15636,-0.48191 -0.34749,-1.15224 -0.42473,-1.48964 -1.02165,-4.46255 -6.27216,-8.71378 -13.400171,-10.84985 -0.843484,-0.25277 -2.223731,-0.75394 -3.067215,-1.11372 -0.843484,-0.35978 -2.131714,-0.86846 -2.862733,-1.1304 -4.750139,-1.70209 -8.350112,-3.32988 -10.091127,-4.56287 -2.025458,-1.43444 -3.71662,-2.85743 -4.385538,-3.6901 -1.0615,-1.32136 -1.677321,-1.19781 -1.677374,0.33652 -2.1e-5,0.64667 -0.190838,2.32597 -0.424034,3.73178 -0.379587,2.28829 -0.406975,2.98436 -0.261483,6.64563 0.08938,2.24929 0.152147,4.20615 0.139475,4.34858 -0.05297,0.59541 9.06246,4.46067 14.041828,5.95422 9.235727,2.77023 22.697392,4.66819 22.697392,3.20009 z m 11.96213,0.0913 c 9.71935,-1.08221 19.38713,-3.89855 28.4706,-8.29382 1.71322,-0.82898 3.24134,-1.45874 3.39583,-1.39946 0.69267,0.2658 0.8308,-0.99186 0.5829,-5.30699 -0.13002,-2.2632 -0.29583,-5.33413 -0.36847,-6.82429 -0.14459,-2.96626 -0.12551,-2.92879 -1.12287,-2.20548 -0.38214,0.27714 -1.40061,0.8726 -2.26328,1.32324 -0.86266,0.45064 -2.33492,1.31304 -3.27169,1.91645 -0.93677,0.60341 -2.46651,1.54923 -3.39941,2.10182 -0.9329,0.55259 -2.0371,1.20769 -2.45377,1.45578 -1.79171,1.06681 -4.09217,2.05317 -6.07409,2.60439 -4.3851,1.2196 -9.73611,4.57748 -12.26415,7.69603 -1.0541,1.30032 -2.87321,4.62539 -3.4561,6.31722 -0.33277,0.96588 -0.50301,0.91881 2.2245,0.61511 z m -100.747161,-2.6914 c 3.693661,-0.93007 4.558314,-6.69256 1.261954,-8.41029 -0.973366,-0.50722 -3.665305,-0.39759 -4.8156044,0.19613 -3.9636275,2.04577 -0.818721,9.31514 3.5536504,8.21416 z m 187.915331,-0.14882 c 4.4649,-2.29664 2.98868,-8.42336 -2.15268,-8.93424 -4.8028,-0.47723 -6.21448,7.04201 -1.68948,8.99895 1.02659,0.44398 2.91505,0.41217 3.84216,-0.0647 z M 25.567158,184.2083 c 0.449858,-0.20905 1.17661,-0.75395 1.615003,-1.2109 l 0.797079,-0.8308 -0.592598,-0.12109 c -2.148134,-0.43896 -2.845069,-0.7832 -4.165486,-2.05753 -1.714385,-1.65454 -3.898045,-2.75191 -5.476045,-2.75191 -1.796829,0 -1.671162,-1.09761 0.164092,-1.43321 0.655578,-0.11989 1.290664,-0.0425 2.594632,0.31629 l 1.726584,0.47503 -0.140642,-0.5481 c -0.07736,-0.30145 -0.216088,-1.05419 -0.308294,-1.67275 -0.09221,-0.61855 -0.317367,-2.13682 -0.500353,-3.37393 -0.502908,-3.40002 -1.212683,-3.95835 -5.267683,-4.1437 -4.372162,-0.19986 -7.7159085,1.71785 -8.2946598,4.75714 -0.268714,1.41114 -0.4735972,7.87252 -0.249629,7.87252 0.082141,0 0.7371777,-0.26441 1.4556368,-0.58758 4.433943,-1.99444 7.220718,-1.30991 10.300429,2.53015 2.582212,3.21972 4.030332,3.85459 6.341934,2.78037 z m 164.369202,-0.97407 c 0.35583,-0.18317 1.61313,-1.27017 2.794,-2.41556 4.06637,-3.94418 7.07649,-4.30259 11.2395,-1.33827 0.75498,0.5376 0.80982,0.3575 0.96607,-3.17285 0.14025,-3.16864 0.15833,-3.11935 -2.08743,-5.6881 -2.49873,-2.85811 -7.34646,-5.44776 -10.198,-5.44776 -1.3283,0 -3.04502,2.62498 -3.38077,5.16944 -0.49688,3.76552 -1.82096,7.18957 -3.90905,10.10879 -1.35308,1.89164 -1.35794,2.01056 -0.10876,2.66155 1.40004,0.72961 3.40358,0.78211 4.68444,0.12276 z m -25.93524,-1.17989 c 0.42483,-0.28829 0.84446,-0.52417 0.93251,-0.52417 1.19854,0 0.56182,-4.3924 -1.099,-7.58138 l -0.91331,-1.75367 -0.10115,0.89736 c -0.19638,1.74226 -2.01208,2.89962 -4.82426,3.07507 l -1.72667,0.10772 0.11306,-0.69667 c 0.2313,-1.42535 1.19118,-3.02554 2.55115,-4.25296 1.31712,-1.18875 1.31712,-1.18875 0.73845,-1.30501 -2.09604,-0.42112 -4.84819,-5.42479 -3.92873,-7.14281 0.57995,-1.08367 4.86652,0.0574 6.41932,1.70875 1.01288,1.07718 1.12261,1.00167 1.12261,-0.77242 0,-3.00804 1.14098,-4.93862 3.66992,-6.20966 l 0.90943,-0.45707 0.46381,0.53922 c 0.87842,1.02121 1.0353,2.48364 0.56244,5.24304 l -0.12389,0.72295 0.80751,-0.077 c 1.61582,-0.1541 3.58894,1.13466 4.59379,3.00046 0.42731,0.79342 2.14489,1.65789 3.2998,1.66082 1.5749,0.004 3.13136,1.12055 4.19847,3.01188 1.28841,2.28355 2.88925,-4.1044 1.95112,-7.78567 -4.66869,-18.32016 -32.07075,-14.76375 -32.07075,4.16234 0,8.57003 7.78954,17.59452 12.45437,14.42888 z M 51.740724,180.73609 c 3.420636,-0.78335 5.221079,-2.46274 7.369444,-6.87396 5.488828,-11.27016 -3.638694,-24.76199 -16.059886,-23.73889 -4.390481,0.36163 -9.343347,4.25599 -11.466946,9.01626 -1.105725,2.4786 -0.812313,9.31414 0.376695,8.77575 0.195249,-0.0884 1.229156,-0.19882 2.297569,-0.24536 l 1.942569,-0.0846 0.351002,-0.74671 c 1.27133,-2.7046 3.347072,-4.22962 5.563737,-4.0876 l 1.080002,0.0692 -0.26951,-1.12465 c -0.528935,-2.2072 -0.198744,-3.57749 1.219496,-5.0609 2.573215,-2.69146 4.939029,1.84704 3.890569,7.46355 -0.159207,0.85286 0.105077,0.84391 0.695688,-0.0236 1.073059,-1.57608 6.511345,-3.3496 6.929527,-2.25984 0.167218,0.43576 -0.652245,3.4393 -1.217096,4.46096 -0.690589,1.2491 -1.930787,2.02047 -3.421862,2.12832 -1.534951,0.11103 -1.398803,0.3705 0.704273,1.34218 3.569545,1.64923 5.840626,6.10881 2.828584,5.55431 -2.150108,-0.39583 -3.563454,-1.49088 -4.693561,-3.63656 -0.888001,-1.686 -0.977153,-1.70112 -1.005095,-0.17042 -0.03744,2.0514 -0.572152,2.65781 -3.002992,3.40572 -6.609451,2.03357 -1.147731,7.44801 5.887793,5.83683 z m -13.59957,-2.22344 c 1.338064,-1.33806 1.418354,-5.54511 0.132287,-6.93161 -1.865032,-2.01069 -6.382312,-0.7506 -6.974479,1.94552 -0.701048,3.19185 4.700309,7.12797 6.842192,4.98609 z m 139.109926,0.23479 c 1.99723,-1.00396 3.00594,-2.58308 3.00594,-4.70573 v -1.57881 l -0.91111,-0.873 c -2.89095,-2.77001 -7.26813,-0.84957 -7.26813,3.18881 0,3.4845 2.42924,5.34811 5.1733,3.96873 z m -62.32573,-1.62613 c 4.23847,-0.93824 5.55044,-1.35421 8.25557,-2.61745 0.63191,-0.29509 2.67309,-4.48033 3.38256,-6.93563 2.43578,-8.42955 2.20928,-14.36363 -0.90318,-23.66256 -0.8728,-2.60762 -1.42619,-4.53354 -3.37845,-11.75766 -1.54448,-5.71519 -2.69778,-8.92027 -4.08165,-11.34318 -1.40322,-2.45676 -2.20061,-4.33057 -1.94973,-4.58171 0.24915,-0.2494 3.32159,1.22257 3.75415,1.79857 0.19199,0.25566 0.67374,0.82418 1.07056,1.26339 0.39682,0.4392 1.65153,2.36283 2.78825,4.27473 2.3098,3.88494 3.8632,6.25287 5.93576,9.04814 5.64252,7.61011 8.76065,17.22901 8.03724,24.79346 -0.53047,5.54681 -1.66882,9.2784 -3.6877,12.08854 -0.93029,1.29489 -0.90486,1.38259 0.15119,0.52147 0.47798,-0.38975 1.42115,-1.03484 2.09593,-1.43354 3.69676,-2.18424 6.75542,-8.05619 7.68573,-14.75489 0.65092,-4.68694 -0.98626,-11.06389 -3.82172,-14.8859 -0.7194,-0.9697 -1.308,-1.81172 -1.308,-1.87115 0,-0.13578 -1.85067,-2.5968 -2.16057,-2.87312 -0.64079,-0.57135 -2.85592,-3.34891 -3.71065,-4.6528 -0.53418,-0.8149 -1.49655,-2.11036 -2.13859,-2.87882 -2.11369,-2.52985 -3.20133,-4.36923 -3.88936,-6.57757 -0.3504,-1.12464 -1.08301,-2.97646 -1.62803,-4.11515 -1.76647,-3.6906 -1.01918,-3.54115 4.24464,0.8489 3.68461,3.07299 15.00803,15.7359 15.00803,16.78338 0,0.0851 0.44937,1.03524 0.99861,2.11146 3.26791,6.40351 3.81287,13.92502 1.56403,21.58695 -0.39612,1.34958 -0.72068,2.54194 -0.72126,2.64971 -0.002,0.41304 1.90457,-1.68507 2.59391,-2.85419 1.76191,-2.98821 6.11893,-7.32723 7.35763,-7.32723 0.1493,0 0.23914,-0.0323 0.19964,-0.0718 -0.0395,-0.0395 0.22167,-0.383 0.58037,-0.76333 1.94259,-2.05975 2.61067,-5.5863 1.4965,-7.89953 -0.29523,-0.61297 -0.82638,-1.80462 -1.18033,-2.6481 -1.36576,-3.25469 -2.14033,-4.19575 -4.98375,-6.05497 -5.14126,-3.36171 -6.58579,-4.81284 -11.70757,-11.76109 -2.55057,-3.46012 -3.91706,-5.13088 -4.65783,-5.69496 -0.57657,-0.43904 -1.96848,-1.49351 -3.09312,-2.34325 -8.17537,-6.17701 -8.20812,-6.20633 -7.6053,-6.80773 0.97811,-0.9758 5.54122,-0.43108 12.4106,1.48151 12.27743,3.41831 23.92428,4.76693 23.92428,2.77026 0,-0.41742 -4.91105,-2.60326 -8.25698,-3.67505 -2.5151,-0.80566 -4.337,-1.62036 -4.09916,-1.83302 0.33138,-0.29631 3.53777,-0.65106 7.65307,-0.84672 5.72534,-0.2722 7.91083,-0.84 9.68928,-2.51728 1.03489,-0.97604 0.96156,-1.250095 -0.43651,-1.631336 -8.50992,-2.320579 -24.81756,-2.371192 -36.31031,-0.112693 -3.94773,0.775789 -4.08997,0.691309 -1.94989,-1.158027 7.56121,-6.533986 15.92521,-9.671785 31.05224,-11.649421 11.95413,-1.562824 14.10326,-2.713058 17.39514,-9.310028 1.05112,-2.106458 1.30261,-2.01602 -3.4375,-1.23613 -8.99747,1.480354 -16.11356,3.251632 -23.05704,5.739164 -1.01218,0.362616 -2.16239,0.705794 -2.55601,0.762616 -0.39363,0.05682 -0.8077,0.174518 -0.92017,0.261553 -0.11246,0.08703 -0.79624,0.308534 -1.5195,0.492223 -0.72326,0.183687 -2.02308,0.653672 -2.88847,1.044411 -4.36328,1.970076 -1.60372,-0.813384 3.11709,-3.144077 4.96262,-2.450079 12.34894,-4.577861 22.84737,-6.58165 6.99725,-1.335535 8.10693,-1.86126 8.8246,-4.180773 0.47628,-1.539339 0.50128,-1.526195 -1.54988,-0.815184 -2.99259,1.037342 -2.63936,-0.353904 0.41997,-1.654137 1.13465,-0.482231 1.3802,-0.527146 1.53599,-0.280951 0.12609,0.199255 0.18127,-0.0014 0.17243,-0.627124 -0.007,-0.506091 -0.0594,-0.805144 -0.11615,-0.664564 -0.26122,0.647375 -3.83724,0.124268 -5.73661,-0.839163 -1.41739,-0.718955 -1.43417,-0.715389 -2.83224,0.601722 -1.703,1.604378 -1.61021,1.55699 -5.93552,3.031363 -6.408,2.184303 -9.46852,3.574498 -17.36148,7.886169 -9.97765,5.450474 -14.01023,8.465037 -19.42445,14.520796 -1.30557,1.460269 -2.84161,3.047139 -3.41344,3.526383 -0.57182,0.479245 -1.41825,1.229025 -1.88096,1.666177 -1.63002,1.540018 -2.33307,1.838186 -5.85106,2.481487 -0.84348,0.15424 -1.95655,0.285312 -2.47348,0.291271 -0.51692,0.006 -1.20705,0.143221 -1.5336,0.305022 -0.32656,0.161804 -0.84679,0.389571 -1.15607,0.506141 -0.67595,0.25479 -0.67649,0.26697 -0.12264,2.8067 0.61045,2.79932 0.67247,7.22974 0.16705,11.93353 -0.60509,5.63138 -0.92422,7.26253 -2.76036,14.10919 -1.32834,4.95312 -1.54417,6.45622 -1.65889,11.55317 l -0.10126,4.49858 0.70954,-1.94257 c 1.98805,-5.44287 2.3495,-6.51408 2.48384,-7.36131 0.63102,-3.97953 1.81237,-7.03589 2.89423,-7.48793 4.02687,-1.68253 6.46476,3.45335 4.52499,9.53274 -0.30502,0.95595 -0.77545,2.65825 -1.04541,3.7829 -0.26995,1.12464 -0.5616,2.22884 -0.6481,2.45377 -0.0865,0.22493 0.46428,-0.18915 1.22395,-0.92017 0.75967,-0.73102 1.53219,-1.46829 1.71672,-1.63838 0.18453,-0.1701 0.56539,-0.7452 0.84635,-1.27801 0.96386,-1.8278 0.98924,-0.5065 0.065,3.38361 -0.94974,3.99739 -5.74531,11.39268 -7.38773,11.39268 -0.15206,0 -2.73164,2.88861 -3.68812,4.12996 -0.21559,0.27979 -0.22626,1.013 -0.0551,3.7829 0.11678,1.88971 0.26795,4.84693 0.33592,6.5716 0.14031,3.56032 0.11051,3.43048 1.13437,4.94123 2.02415,2.98673 2.88505,3.32746 6.42656,2.5435 z m -15.249866,-1.47808 c 0.796376,-0.76389 1.447396,-1.56274 1.447396,-1.77603 0,-0.21322 0.17885,-0.57805 0.39745,-0.81073 0.34377,-0.36593 0.41398,-0.83715 0.51988,-3.48936 0.14747,-3.69301 0.50993,-9.89905 0.60305,-10.32537 0.0393,-0.1799 -0.90467,-1.19448 -2.28296,-2.45377 -6.177613,-5.6442 -7.971897,-8.20826 -9.117143,-13.02853 -0.982254,-4.13424 -0.832443,-5.71398 0.275425,-2.90432 0.901412,2.28607 2.216347,4.04672 3.272671,4.38198 0.670829,0.21292 0.702419,0.001 0.205643,-1.3789 -0.253759,-0.70491 -0.531861,-1.79711 -0.618007,-2.4271 -0.08615,-0.63 -0.258591,-1.45814 -0.38321,-1.84033 -1.795341,-5.50603 -0.668301,-11.91729 1.992224,-11.33294 1.188517,0.26104 3.286302,3.77387 3.906601,6.54177 0.119386,0.53272 0.345756,1.21745 0.503056,1.52162 0.32844,0.63514 2.05595,6.50789 2.26644,7.7049 0.0773,0.43984 0.25669,0.98575 0.39855,1.21314 0.14185,0.22738 0.32356,0.802 0.4038,1.27693 0.41277,2.44318 0.56905,0.90797 0.46575,-4.57548 -0.12065,-6.40461 -0.2616,-7.4762 -1.67799,-12.75767 -1.84235,-6.86982 -2.13936,-8.38834 -2.759587,-14.10919 -0.22557,-2.0806 -0.564037,-5.07113 -0.752149,-6.64563 -0.340945,-2.8537 -0.305227,-3.88759 0.258897,-7.49396 0.1251,-0.79974 0.07772,-0.84723 -1.689327,-1.693422 -0.702485,-0.3364 -2.762911,-0.468681 -3.526304,-0.226389 -0.26497,0.0841 -0.67784,0.06396 -0.917483,-0.04475 -0.239644,-0.108713 -0.803782,-0.315639 -1.253641,-0.459835 -0.854276,-0.273827 -2.49836,-1.261787 -3.373936,-2.027458 -2.245587,-1.963714 -3.160574,-2.866324 -4.976916,-4.909588 -5.345296,-6.013101 -9.260618,-8.931811 -19.560802,-14.581766 -7.807675,-4.28274 -10.966317,-5.712831 -17.51951,-7.932043 -3.988085,-1.350547 -4.031426,-1.372386 -5.454659,-2.748285 -0.836217,-0.808408 -1.077656,-0.937979 -1.533607,-0.823028 -0.297631,0.07504 -1.139252,0.210325 -1.870271,0.300642 -0.73102,0.09032 -2.272295,0.286758 -3.425057,0.436536 l -2.09593,0.272322 v 1.755385 c 0,3.857647 1.394961,4.79548 9.406125,6.323741 14.36545,2.740446 26.267196,6.94372 27.806721,9.820346 0.44561,0.83263 0.193642,0.81994 -1.826002,-0.09195 -0.865397,-0.390739 -2.165209,-0.860724 -2.88847,-1.044411 -0.723264,-0.183689 -1.40704,-0.405189 -1.519505,-0.492223 -0.112464,-0.08704 -0.526538,-0.204734 -0.920164,-0.261553 -0.393626,-0.05682 -1.543831,-0.4 -2.556012,-0.762616 -6.943481,-2.487532 -14.059575,-4.25881 -23.057039,-5.739164 -4.740111,-0.77989 -4.48862,-0.870328 -3.437499,1.23613 3.291876,6.59697 5.441008,7.747204 17.395134,9.310028 15.127033,1.977636 23.491033,5.115435 31.052247,11.649421 2.14008,1.84934 1.997839,1.93382 -1.949892,1.158027 -11.492755,-2.258499 -27.800394,-2.207886 -36.31031,0.112693 -1.398071,0.381241 -1.471404,0.6553 -0.43651,1.63134 1.778443,1.67728 3.963942,2.24508 9.689275,2.51728 4.115302,0.19566 7.321697,0.55041 7.653075,0.84672 0.237834,0.21266 -1.584059,1.02736 -4.099159,1.83302 -3.345931,1.07179 -8.256979,3.25763 -8.256979,3.67505 0,1.99667 11.646848,0.64805 23.924275,-2.77026 6.869384,-1.91259 11.432493,-2.45731 12.410596,-1.48151 0.602826,0.6014 0.570076,0.63072 -7.605292,6.80773 -1.124646,0.84974 -2.516552,1.90421 -3.093127,2.34325 -0.740767,0.56408 -2.107256,2.23484 -4.657823,5.69496 -5.121787,6.94825 -6.566316,8.39938 -11.707578,11.76109 -2.843418,1.85922 -3.617988,2.80028 -4.983743,6.05497 -0.353949,0.84348 -0.888288,2.0397 -1.187419,2.65825 -1.442278,2.98239 -0.748519,5.01854 2.090378,6.13517 2.312817,0.9097 4.93957,2.60619 6.663637,4.30369 1.603106,1.57841 1.619665,1.55715 1.48976,-1.91327 -0.210736,-5.62984 0.560714,-9.40151 2.834133,-13.8563 0.549234,-1.07622 0.998606,-2.02638 0.998606,-2.11146 0,-1.04748 11.323425,-13.71039 15.008037,-16.78338 5.263815,-4.39005 6.011101,-4.5395 4.244635,-0.8489 -0.54502,1.13869 -1.277632,2.99051 -1.628027,4.11515 -0.688031,2.20834 -1.77567,4.04772 -3.889359,6.57757 -0.642044,0.76846 -1.604411,2.06392 -2.138593,2.87882 -0.854728,1.30389 -3.069859,4.08145 -3.710647,4.6528 -0.309901,0.27632 -2.160579,2.73734 -2.160579,2.87312 0,0.0594 -0.588596,0.90145 -1.307991,1.87115 -5.937001,8.00268 -4.963592,20.96018 1.982359,26.3881 2.52871,1.97607 2.82802,2.05443 2.193568,0.57432 -0.780125,-1.81996 -1.402427,-4.83759 -1.752496,-8.4981 -0.723419,-7.56445 2.394714,-17.18335 8.037232,-24.79346 2.07256,-2.79527 3.625967,-5.1632 5.935764,-9.04814 1.13672,-1.9119 2.391433,-3.83553 2.788251,-4.27473 0.39682,-0.43921 0.878571,-1.00773 1.070558,-1.26339 0.432559,-0.576 3.504997,-2.04797 3.754149,-1.79857 0.250879,0.25114 -0.546513,2.12495 -1.949725,4.58171 -1.383876,2.42291 -2.537171,5.62799 -4.081655,11.34318 -1.952259,7.22412 -2.505652,9.15004 -3.378451,11.75766 -4.230162,12.63825 -3.001124,22.9325 3.35897,28.1343 0.400305,0.3274 1.027951,0.83773 1.394769,1.13406 0.366819,0.29633 1.484774,0.96658 2.484346,1.48943 0.999571,0.52286 2.071462,1.13156 2.381981,1.35267 0.310516,0.22111 0.849424,0.40201 1.197573,0.40201 0.34815,0 0.632998,0.0872 0.632998,0.1938 0,0.10659 0.483086,0.22759 1.073525,0.26889 0.590439,0.0413 1.273348,0.0921 1.517576,0.11293 0.299708,0.0255 0.914547,-0.41348 1.891449,-1.35053 z M 204.83744,158.60776 c -0.0928,-1.95683 -0.0991,-5.67426 -0.0139,-8.26094 l 0.15482,-4.70307 -0.85119,-5.36762 c -0.92184,-5.81318 -0.89142,-5.71861 -1.48405,-4.61392 -0.22239,0.41454 -1.26535,1.67977 -2.3177,2.81162 -2.40038,2.58171 -2.48974,2.75807 -1.84212,3.63561 2.06879,2.80321 3.02688,10.08495 2.09639,15.93319 -0.11255,0.70735 -0.0702,0.77601 0.87264,1.41333 0.54501,0.36842 1.52454,1.17189 2.17673,1.78548 1.48695,1.39894 1.4079,1.5712 1.20843,-2.63368 z M 8.4093534,160.22599 c 1.6879216,-2.41402 5.2543596,-2.95161 8.4890956,-1.27961 0.521962,0.2698 0.538149,0.25778 0.786143,-0.58363 0.936098,-3.17606 3.283001,-5.26881 6.451199,-5.75257 l 1.431367,-0.21855 0.06193,-0.84962 c 0.111818,-1.53409 -1.616741,-2.90705 -4.957497,-3.93765 -1.533279,-0.47301 -2.173881,-0.44344 -5.896777,0.27221 -1.992585,0.38303 -2.099636,0.33718 -2.510478,-1.07541 -0.767561,-2.63907 -0.08585,-4.36057 2.651468,-6.6957 l 1.617503,-1.37984 -0.595098,-0.47618 c -0.327305,-0.26189 -0.674069,-0.47663 -0.770586,-0.47719 -0.473439,-0.003 -2.956299,-2.28858 -4.262244,-3.92403 -1.6804597,-2.10445 -1.7960915,-2.09922 -2.1855259,0.099 -0.4776742,2.69629 -1.2837145,16.68032 -1.2045728,20.89818 0.031654,1.68697 -0.015522,3.94137 -0.1048362,5.00978 -0.178079,2.13028 -0.2203607,2.11458 0.9989093,0.37081 z m 181.4731266,-0.0788 c 0.68844,-0.68126 1.43073,-1.211 1.84625,-1.31759 0.3822,-0.0981 1.03633,-0.26495 1.45362,-0.37091 4.37055,-1.10977 4.86088,-8.98547 0.69183,-11.11233 -5.55265,-2.83272 -11.62933,3.47789 -8.18825,8.50346 0.90939,1.32812 2.37678,4.15465 2.59997,5.00812 0.1627,0.62217 0.32067,0.55185 1.59658,-0.71075 z M 33.624864,148.12758 c 1.971401,-1.00809 3.556072,-1.56024 6.255963,-2.17977 3.968201,-0.91056 3.861212,-0.80099 2.300411,-2.35599 -1.318293,-1.3134 -1.284339,-1.30846 -8.946043,-1.30101 -4.905887,0.005 -5.705743,-0.0444 -8.451091,-0.51907 -4.992479,-0.86326 -6.593694,-0.41962 -8.015691,2.22087 -0.482504,0.89596 -0.520137,0.8655 1.773424,1.43502 1.052313,0.2613 2.499993,0.71414 3.217067,1.00632 1.425061,0.58064 1.661204,0.55546 1.661204,-0.17713 0,-1.05469 1.185398,-2.35115 2.149735,-2.35115 1.926474,0 3.068636,2.19384 2.898972,5.56828 l -0.120632,2.3992 1.759649,-1.42346 c 0.967806,-0.78291 2.550471,-1.82786 3.517032,-2.32211 z m 130.296896,-1.36547 c 0.60579,-0.11593 2.38966,-0.29536 3.96416,-0.39873 2.86247,-0.18794 4.95484,-0.62953 7.8214,-1.65067 1.4656,-0.52209 1.42097,-0.37851 1.07714,-3.4653 -0.60599,-5.44049 -0.5944,-5.38702 -1.95461,-9.01927 -0.15196,-0.40579 -0.66385,-1.50999 -1.13753,-2.45377 -0.47368,-0.94379 -1.13283,-2.26497 -1.46477,-2.93596 -0.53564,-1.08272 -1.21158,-2.12273 -2.7569,-4.24179 -0.74306,-1.01893 -0.6233,-1.21343 1.32913,-2.15864 0.98406,-0.4764 1.88341,-0.86604 1.99855,-0.86587 0.34214,6.2e-4 4.9363,-4.44014 5.93099,-5.73281 4.83009,-6.27708 8.22406,-19.520565 6.86285,-26.779348 -0.22424,-1.195786 -0.78314,-5.153608 -1.03952,-7.361315 -0.0849,-0.73102 -0.48483,-2.837029 -0.88875,-4.68002 -1.50171,-6.851882 -3.25112,-9.120643 -3.80191,-4.930587 -0.37534,2.855314 -0.97021,5.841446 -1.54873,7.774278 -0.2805,0.937154 -0.51001,2.18504 -0.51001,2.773079 0,1.045578 -0.42673,5.209676 -0.80507,7.855932 -0.10451,0.73102 -0.2929,2.203283 -0.41864,3.271696 -0.52154,4.431696 -0.67686,5.234801 -1.3572,7.017595 -3.69543,9.68368 -9.7893,16.12867 -17.1515,18.13975 -0.89972,0.24577 -2.23396,0.61666 -2.96498,0.82421 -0.73102,0.20754 -2.10866,0.48086 -3.06144,0.60736 -2.57181,0.34147 -2.6262,0.66004 -0.2459,1.4404 6.01307,1.97134 9.63735,5.2026 11.97415,10.67565 0.18169,0.42556 0.33036,0.91153 0.33036,1.07994 0,0.16841 0.1346,0.35786 0.29912,0.42099 2.41507,0.92675 1.67323,10.01024 -1.15438,14.13493 -0.32767,0.47797 -0.55789,0.86904 -0.5116,0.86904 0.0463,0 0.5798,-0.0949 1.18559,-0.21077 z M 43.579908,138.74252 c -0.214878,-2.41576 0.640856,-6.47442 1.428832,-6.77679 0.159959,-0.0614 0.290833,-0.2494 0.290833,-0.41781 0,-0.16841 0.148662,-0.65438 0.33036,-1.07994 2.336796,-5.47305 5.961076,-8.70431 11.974144,-10.67565 2.380298,-0.78036 2.325912,-1.09893 -0.2459,-1.4404 -0.952773,-0.1265 -2.330421,-0.39982 -3.061441,-0.60736 -0.731019,-0.20755 -2.065257,-0.57844 -2.964974,-0.82421 -9.394382,-2.5662 -16.270517,-11.73547 -19.124734,-25.502699 -0.680227,-3.281049 -0.973244,-4.290486 -1.541689,-5.311097 -0.853777,-1.532906 -0.853665,-1.528837 -0.07255,-2.616523 1.181498,-1.645207 1.208561,-2.722901 0.170703,-6.797917 -0.500849,-1.966522 -1.055621,-5.274581 -1.49121,-8.89197 -0.115047,-0.955415 -0.113158,-0.959034 0.543484,-1.0408 0.406342,-0.0506 0.215682,-0.09459 -0.497374,-0.114775 l -1.156309,-0.03272 0.105312,0.785151 c 0.089,0.663578 0.0098,0.89392 -0.511464,1.487618 -0.885374,1.008386 -2.438412,6.787683 -2.905988,10.814014 -0.25638,2.207707 -0.815278,6.165529 -1.03952,7.361315 -1.151565,6.140859 0.79858,15.720533 4.737565,23.272273 2.553808,4.8961 7.662589,9.78038 10.132793,9.68752 0.542574,-0.0204 0.780954,0.1097 1.194545,0.65195 0.880238,1.15404 0.723634,1.67149 -1.030347,3.40443 -3.251149,3.21215 -5.620853,8.18971 -7.024774,14.75555 l -0.161164,0.75373 1.248158,0.11697 c 0.686488,0.0643 3.180504,0.0932 5.542259,0.0642 3.100059,-0.0381 4.407819,0.0166 4.703063,0.19662 0.224929,0.13716 0.442777,0.25218 0.484106,0.2556 0.04133,0.003 0.01581,-0.6609 -0.05672,-1.47627 z m 142.603432,-5.46986 c 3.41887,-10.2964 5.02796,-23.19882 4.16553,-33.401242 l -0.13219,-1.563905 -0.69613,1.457231 c -0.38286,0.801476 -0.75325,1.742926 -0.82309,2.092106 -0.0698,0.34919 -0.2866,0.9124 -0.48169,1.25159 -0.19509,0.33919 -0.54752,1.3315 -0.78317,2.20513 -0.4296,1.59259 -2.64913,6.28454 -3.69818,7.81771 -0.3078,0.44986 -0.79275,1.278 -1.07766,1.84033 -0.54348,1.07265 -2.35782,3.44903 -3.82493,5.00978 l -0.86496,0.92017 0.47533,0.92016 c 0.26143,0.50609 0.57675,0.98483 0.7007,1.06387 0.21909,0.13969 0.61725,0.99833 1.18972,2.56567 0.83313,2.28097 3.75102,11.20632 3.92739,12.01326 l 0.13408,0.61344 0.40237,-0.92017 c 0.2213,-0.50609 0.8454,-2.2544 1.38688,-3.88513 z m -159.890894,2.23543 c 0.184478,-0.49847 0.635539,-1.87248 1.002359,-3.05336 1.169738,-3.76565 2.078233,-6.17049 3.299144,-8.73301 l 1.18938,-2.49635 -1.045814,-1.08207 c -1.537219,-1.59052 -3.400102,-4.0041 -3.991676,-5.17169 -0.284907,-0.56233 -0.769825,-1.39047 -1.077598,-1.84033 -0.817906,-1.1955 -3.003879,-5.63117 -3.683461,-7.4743 -0.323002,-0.87603 -0.85545,-2.12915 -1.18322,-2.78471 -0.327769,-0.65556 -0.812222,-1.83604 -1.076563,-2.62329 l -0.480618,-1.431371 -0.14627,0.920164 c -1.282043,8.065167 1.958238,31.512257 4.825809,34.920177 0.257906,0.3065 0.503915,0.739 0.546688,0.9611 0.07835,0.40685 0.929636,0.97182 1.291488,0.85713 0.107215,-0.034 0.345873,-0.46962 0.530352,-0.96809 z m 80.259124,-22.30635 c 1.90774,-2.03954 2.14689,-3.13125 1.62801,-7.43178 -0.16284,-1.34957 -0.29894,-2.6148 -0.30245,-2.81161 -0.0138,-0.77439 -0.34466,-0.28095 -0.89144,1.32949 -1.81658,5.35033 -2.64663,5.33115 -4.60777,-0.10642 -1.12383,-3.11605 -1.41644,-2.57095 -1.51133,2.81543 -0.0995,5.64662 3.0212,9.05268 5.68498,6.20489 z m 9.01942,-17.052559 c 1.02707,-2.676511 -4.02908,-10.463353 -8.79666,-13.547483 -2.74471,-1.775545 -7.101118,0.954162 -10.619669,6.654239 l -1.166208,1.889265 v 2.353715 c 0,3.058977 0.742499,3.096885 2.045331,0.104427 4.408606,-10.126062 10.926426,-10.126062 15.335036,0 0.59003,1.355232 1.32438,2.249291 1.8475,2.249291 0.19373,0 0.46678,0.138024 0.60679,0.306721 0.32661,0.393546 0.59436,0.389904 0.74788,-0.01018 z m -25.2856,-4.62809 c 0,-0.104213 -0.378543,-0.746907 -0.841206,-1.428209 -2.340115,-3.445973 -3.081768,-7.47496 -1.845922,-10.027879 0.59933,-1.238046 0.575555,-1.387238 -0.559419,-3.510513 -3.818942,-7.144369 -2.050412,-11.442474 6.147412,-14.940236 3.341798,-1.425841 3.469671,-1.363417 2.102619,1.026438 -1.157749,2.023955 -1.55712,3.364544 -1.551297,5.207306 0.0049,1.560004 0.405167,4.693804 0.599473,4.693804 0.06571,0 1.136317,-0.508405 2.379128,-1.129788 3.077443,-1.538668 4.879742,-1.987191 7.985122,-1.987191 3.10538,0 4.90768,0.448523 7.98512,1.987191 1.24281,0.621383 2.31342,1.129788 2.37913,1.129788 0.19431,0 0.59454,-3.1338 0.59947,-4.693804 0.006,-1.842762 -0.39355,-3.183351 -1.55129,-5.207306 -1.36706,-2.389855 -1.23918,-2.452279 2.10261,-1.026438 8.19783,3.497762 9.96636,7.795867 6.14742,14.940236 -1.13498,2.123275 -1.15875,2.272467 -0.55942,3.510513 1.18696,2.451938 0.47817,6.640852 -1.6461,9.728373 -0.80436,1.169092 -0.80169,1.194057 0.24455,2.285897 l 0.87661,0.914828 0.74131,-0.768904 c 0.40772,-0.422897 1.91181,-2.379191 3.34241,-4.347321 10.72603,-14.756147 18.37994,-22.271194 29.4799,-28.94506 l 2.0887,-1.255829 -1.37898,-0.942211 c -6.54957,-4.475122 -11.13898,-15.58231 -8.80361,-21.306273 0.47612,-1.166948 0.71705,-3.775293 0.35161,-3.806485 -0.152,-0.01296 -0.36837,-0.03806 -0.48084,-0.05574 -0.11246,-0.01769 -1.77183,-0.82575 -3.68749,-1.795705 -3.17679,-1.608505 -8.57634,-3.88572 -11.30703,-4.768638 -0.78051,-0.252364 -1.19549,-0.52614 -1.46215,-0.964631 -0.36087,-0.593404 -0.37672,-0.598452 -0.51463,-0.163943 -0.10857,0.342073 -0.24665,0.417859 -0.58265,0.319798 -20.45363,-5.969186 -42.259415,-4.343395 -60.915627,4.541734 -2.451052,1.167329 -2.811613,1.401523 -2.811613,1.826217 0,1.404114 0.491292,4.644948 0.908357,5.992038 2.780388,8.980406 -1.221686,17.50401 -10.273024,21.879465 -1.332756,0.64426 -1.412661,0.487031 1.037821,2.042129 9.515696,6.038749 20.667709,17.548538 28.532399,29.447769 0.260227,0.393722 1.2264,1.419593 2.147051,2.279716 l 1.673912,1.563858 0.460082,-1.027758 c 0.253045,-0.565269 0.460082,-1.113025 0.460082,-1.217236 z m 2.005263,-3.655876 c 0.190949,-0.305759 0.225911,-0.882505 0.127226,-2.098738 -0.34191,-4.213864 1.877316,-7.891111 5.94451,-9.850031 8.944561,-4.30805 19.325581,1.182849 18.622331,9.850031 -0.12821,1.580059 0.0664,2.520361 0.52155,2.520361 0.66021,0 0.77871,-4.764871 0.16389,-6.589927 -3.70121,-10.986901 -22.236507,-10.986901 -25.937725,0 -0.838986,2.490488 -0.371436,7.656915 0.558218,6.168304 z m -81.1469,-16.827839 c 0.735142,-0.7712 2.060162,-2.007042 2.944488,-2.746316 1.765465,-1.475881 1.755857,-1.296753 0.122881,-2.290936 -1.303545,-0.793617 -2.127736,-2.67091 -1.940443,-4.419826 0.222786,-2.080342 0.767087,-2.045057 4.351245,0.28209 1.201873,0.780361 1.806461,1.058185 2.100017,0.965013 0.226731,-0.07196 0.887121,0.02689 1.467534,0.219674 1.039602,0.345301 4.918967,0.333051 5.485884,-0.01732 0.114558,-0.0708 -0.379828,-0.697043 -1.098633,-1.391651 -2.020994,-1.952955 -2.732478,-3.398237 -2.180557,-4.42951 0.350135,-0.654233 1.841862,-0.402314 1.841862,0.31105 0,0.441567 0.620563,0.364126 1.162587,-0.145077 1.082083,-1.016565 0.262217,-2.871107 -2.605791,-5.894305 -1.932081,-2.036631 -2.052375,-2.126819 -2.339023,-1.753684 -1.193737,1.553912 -0.100014,4.074641 1.90838,4.398287 0.815988,0.131494 1.159172,0.935067 0.598179,1.400652 -1.776351,1.474239 -5.43528,-0.122977 -6.116507,-2.67001 -0.299467,-1.119671 -0.177039,-1.082606 -1.842371,-0.557783 -2.77829,0.875563 -3.867959,0.736824 -5.8070687,-0.739359 -3.0657086,-2.333829 -4.1691383,0.862219 -2.3733217,6.874248 0.9031097,3.023429 1.6221581,7.547549 1.7712235,11.144214 0.069917,1.686968 0.1752267,3.297102 0.2340216,3.578078 l 0.1068995,0.510863 0.4359459,-0.613104 C 9.6109553,72.715458 10.408611,71.808578 11.143753,71.037376 Z M 204.5694,68.349942 c 0.4601,-2.09883 0.66387,-16.176002 0.266,-18.375248 l -0.1429,-0.789884 -0.89105,1.057144 c -0.49007,0.58143 -1.27221,1.299665 -1.73808,1.596079 -1.47174,0.936396 -1.44443,0.778901 -0.62469,3.601967 0.79404,2.73459 0.30019,5.541695 -1.50391,8.548348 -0.56214,0.936838 -1.22794,2.112426 -1.47956,2.612421 l -0.4575,0.909077 0.79138,0.700346 c 1.92498,1.703531 3.29735,3.123788 3.96084,4.09904 l 0.71569,1.051968 0.32776,-1.483223 c 0.18027,-0.815775 0.52948,-2.40339 0.77602,-3.528035 z m -23.74731,-3.658437 c 3.03683,-0.322464 2.84487,-0.113536 1.87588,-2.041597 -1.22511,-2.43771 -0.98669,-5.173067 0.65553,-7.520555 0.88249,-1.261486 0.0691,-1.043956 -1.7179,0.459438 -2.65665,2.235012 -5.61828,3.713254 -9.14885,4.566473 l -1.94257,0.469454 -0.0639,0.750672 c -0.24655,2.898898 3.36497,4.056942 10.34176,3.316115 z m 14.02576,-1.844758 c 1.69216,-1.212707 2.60259,-3.200268 3.38548,-7.390918 0.44188,-2.365232 -4.10161,-2.664598 -5.52349,-0.363939 -0.93844,1.51842 -2.82354,1.985252 -4.40731,1.091433 -1.33898,-0.755673 -1.22774,-0.766235 -1.61537,0.153361 -1.04627,2.482166 -0.58196,4.28748 1.62298,6.310318 l 1.45525,1.335069 1.84033,-0.06536 c 1.83814,-0.06528 1.842,-0.06655 3.24213,-1.069967 z M 34.35984,62.405236 c 3.439207,-0.48856 6.847572,-1.144828 6.969385,-1.341925 0.06014,-0.09731 -0.013,-0.176925 -0.162519,-0.176925 -0.418223,0 -4.430979,-1.326401 -5.57998,-1.844441 -1.423787,-0.641931 -3.390016,-1.935611 -5.316505,-3.497993 -0.899717,-0.72967 -1.739318,-1.388694 -1.865781,-1.464499 -0.126463,-0.07581 0.04472,0.658985 0.3804,1.632867 0.699609,2.029705 0.604123,4.312465 -0.250456,5.987579 -0.441986,0.866362 -0.441303,0.867846 0.508951,1.104887 0.556861,0.13891 2.614712,-0.01575 5.316505,-0.39955 z m 13.978224,-7.641679 c 2.465127,-0.802175 7.185558,-3.739056 7.185558,-4.470593 0,-0.349683 -1.326777,-0.902503 -2.598143,-1.082551 -1.36513,-0.193326 -3.464583,-1.098269 -4.265148,-1.838439 -0.55955,-0.517339 -0.772832,-0.494816 -0.48084,0.05078 0.713103,1.332443 -0.647801,4.798062 -2.153489,5.483981 -2.85205,1.299258 -4.706173,-1.775432 -3.011275,-4.993595 0.299428,-0.568535 0.575614,-1.102711 0.613746,-1.187059 0.03813,-0.08435 -0.252195,-0.153361 -0.645173,-0.153361 -2.135493,0 -6.914493,-2.492809 -6.182437,-3.224866 0.142327,-0.142327 1.110841,-0.505303 2.955693,-1.107722 1.250661,-0.408394 1.352964,-0.412363 2.369503,-0.09193 1.561208,0.492129 1.607548,0.457688 0.993839,-0.73863 -0.465051,-0.906538 -0.56896,-1.423402 -0.668007,-3.322816 -0.101619,-1.94872 -0.184018,-2.342851 -0.616635,-2.949436 -0.573859,-0.804628 -0.747545,-0.591146 -0.434939,0.534595 1.710672,6.160391 -9.417552,9.829843 -12.080837,3.98357 l -0.434185,-0.953096 -1.283467,2.589504 -1.283468,2.589505 0.19387,1.561576 c 0.240777,1.939383 0.860779,3.635083 1.636314,4.475297 l 0.592416,0.641825 -0.38545,-0.928319 c -1.425803,-3.43389 0.722809,-6.192613 2.656132,-3.410358 3.169153,4.560739 6.967888,7.9754 9.968033,8.960203 0.99928,0.328016 5.925787,0.04812 7.358389,-0.418065 z M 172.47944,54.222154 c 6.28035,-1.515214 10.84763,-6.539858 10.84366,-11.929531 -0.002,-2.21739 -0.33351,-3.356232 -0.78937,-2.70879 -1.44089,2.046409 -2.70581,2.809591 -5.30368,3.199939 -2.02201,0.303822 -3.03231,0.670681 -3.59923,1.306951 -0.21424,0.240451 -0.49462,0.437184 -0.62306,0.437184 -0.12845,0 -0.58959,0.364639 -1.02478,0.810309 -0.7778,0.796542 -2.16676,1.438982 -3.11108,1.438982 -0.584,0 -0.58516,-0.04547 0.0364,1.431367 0.61772,1.46765 0.62906,1.932466 0.10224,4.19186 -0.59329,2.544441 -0.63529,2.433447 0.86174,2.276976 0.69889,-0.07305 1.87209,-0.277908 2.60713,-0.455247 z M 59.271233,47.6328 c 3.255925,-4.857039 0.962202,-12.58336 -4.563758,-15.372856 -5.49734,-2.775049 -8.379234,-2.8701 -10.538418,-0.347579 -1.309046,1.529327 -0.955685,2.13648 1.558572,2.677962 1.243065,0.267713 2.574312,2.534976 2.779668,4.734089 l 0.12867,1.377901 0.502485,-1.001059 c 1.097652,-2.186758 4.784268,-4.031203 5.744603,-2.874072 0.694113,0.836358 -0.460679,5.555532 -1.671728,6.831677 l -0.630662,0.664563 h 0.55946 c 1.065098,0 2.133769,0.742227 2.712205,1.883716 1.228023,2.423386 2.417562,2.919414 3.418903,1.425658 z m 95.390237,-0.133095 c 0.24514,-0.04721 0.8825,-0.4494 1.41634,-0.893756 1.02809,-0.855751 2.62139,-1.719955 3.61165,-1.958952 0.59568,-0.143767 0.59528,-0.144335 -0.44789,-0.627642 -1.50692,-0.698166 -2.43735,-2.094894 -3.20282,-4.807954 -0.50845,-1.80209 -1.51305,-3.254746 -1.90103,-2.748887 -2.17968,2.84192 -2.48118,7.908286 -0.64934,10.911306 0.28147,0.461426 0.47745,0.616112 0.57684,0.455294 0.0828,-0.133966 0.35111,-0.282198 0.59625,-0.329409 z M 9.724871,43.291699 c 0.1097204,-0.205015 0.1994914,-0.64335 0.1994914,-0.97408 0,-0.33073 0.056801,-0.885327 0.1262236,-1.232442 l 0.126223,-0.631118 0.640581,0.479962 c 4.016003,3.009023 9.839629,-0.749165 10.80625,-6.97365 0.517556,-3.332756 2.340829,-4.965635 4.525422,-4.052854 1.569561,0.655805 1.545907,0.266029 -0.05952,-0.980693 -1.782524,-1.384257 -3.036338,-1.133046 -7.312238,1.465067 -4.434867,2.694702 -6.357633,3.037213 -9.2205911,1.64251 C 8.7359551,31.634565 8.0188411,31.381178 7.9631293,31.471322 7.3449563,32.471549 7.067376,37.948893 7.3826918,42.924797 l 0.13813,2.179785 1.0022791,-0.720065 C 9.0743542,43.98848 9.6151508,43.496712 9.724871,43.291699 Z M 200.25509,41.716294 c 3.67349,-2.235695 4.72789,-4.328018 4.74008,-9.406126 0.004,-1.79083 -0.068,-1.90408 -0.83741,-1.311156 -3.58613,2.763628 -7.75643,2.548606 -10.35462,-0.533886 -2.51751,-2.986772 -2.54592,-3.008619 -3.87187,-2.978137 -2.81421,0.06469 -8.04409,3.004057 -5.97225,3.356601 2.01301,0.342532 3.90622,1.78809 6.07763,4.640565 2.15226,2.827334 4.9044,3.923178 5.70336,2.270957 0.57679,-1.192772 1.8979,-0.878442 1.8979,0.451566 0,1.685727 -2.16495,2.193324 -4.70952,1.104203 -1.63487,-0.699758 -1.67522,-0.706406 -1.55124,-0.255601 0.07,0.254563 0.23101,1.074435 0.35777,1.82194 l 0.23047,1.359095 1.55825,-0.09314 c 0.85704,-0.05123 1.97233,-0.0058 2.47842,0.100987 1.96702,0.414992 2.89256,0.300119 4.25303,-0.527863 z M 27.106626,40.080446 c 0.582895,-1.208994 1.24515,-2.842286 1.471678,-3.629538 1.563323,-5.433021 5.976317,-7.466965 9.821805,-4.526857 1.570076,1.200418 2.553343,0.715193 1.91862,-0.946806 -0.605321,-1.585012 -0.251839,-1.970968 3.504941,-3.826932 l 1.898036,-0.937686 -0.89355,-0.62983 c -0.941628,-0.663723 -2.278527,-2.282666 -3.436288,-4.161241 l -0.693117,-1.124646 -0.121715,1.533608 c -0.307072,3.869083 -1.487399,5.195381 -7.141662,8.02488 -5.894404,2.949671 -7.561495,5.529066 -7.561495,11.699476 0,1.032965 0.05634,0.965586 1.232747,-1.474428 z m 150.350814,0.862887 c 3.2174,-0.603589 4.3668,-5.809188 1.79557,-8.132139 -0.80282,-0.725305 -0.98996,-0.805572 -2.44873,-1.050305 -3.44326,-0.577661 -6.14718,5.018551 -3.66916,7.593933 0.71485,0.742939 2.96294,1.94375 3.37561,1.803073 0.13259,-0.0452 0.55861,-0.141755 0.94671,-0.214562 z M 36.913583,40.468064 c 4.024574,-2.158403 1.939864,-8.004553 -2.769581,-7.766736 -2.367006,0.119527 -2.841778,0.990287 -2.826172,5.183387 0.0093,2.488754 3.106217,3.918501 5.595753,2.583349 z M 163.33752,37.744355 c 0.63265,-1.079525 1.864,-1.804649 3.06451,-1.804649 1.73899,0 2.37097,-2.512082 1.03223,-4.103081 -1.93519,-2.299839 -5.26079,-1.967453 -9.71573,0.971064 l -1.37471,0.906771 1.24994,1.163742 c 0.68747,0.64006 1.46233,1.4994 1.72192,1.909646 0.25959,0.410246 0.83585,1.007453 1.28058,1.327128 0.44473,0.319676 1.06677,0.996201 1.38233,1.50339 l 0.57373,0.922162 0.11498,-0.924365 c 0.0632,-0.508399 0.36484,-1.350713 0.67022,-1.871808 z m -8.8451,-8.65445 c 1.09128,-1.005144 3.01678,-2.355535 3.69664,-2.592538 l 0.60797,-0.211939 -1.44561,-1.521845 c -1.67095,-1.759083 -2.40458,-2.850426 -3.8402,-5.712659 -2.20676,-4.399685 -4.38438,-5.754522 -9.85629,-6.132232 l -1.94257,-0.13409 1.34278,1.404623 c 6.67572,6.983136 9.05363,11.923294 8.09289,16.813107 l -0.17493,0.890333 1.40182,-1.071783 c 0.771,-0.589482 1.72387,-1.368419 2.1175,-1.730977 z M 61.595342,28.425029 c -0.01405,-5.804291 2.151162,-10.929879 5.681252,-13.448899 1.317698,-0.940289 2.134301,-1.723049 1.825586,-1.749923 -5.162644,-0.449415 -7.390014,0.87162 -10.715071,6.35502 -1.762659,2.906828 -3.300051,4.6879 -4.980137,5.769502 l -0.992002,0.638631 0.4808,0.364649 c 0.264441,0.200557 0.894876,0.521329 1.400966,0.712825 1.958984,0.741252 4.323066,2.018612 5.659263,3.057807 0.767432,0.596851 1.451766,1.091219 1.520742,1.098594 0.06898,0.0074 0.122345,-1.251818 0.118601,-2.798206 z M 13.814704,30.826693 C 16.675286,30.284195 17.730945,27.68232 16.231721,24.86949 14.447174,21.521336 10.134439,20.996252 9.6433524,24.067341 9.4798496,25.089832 8.8246529,26.270544 8.0240615,26.98542 l -0.6205151,0.554078 0.5398989,0.775048 c 0.9594596,1.377343 2.2860787,2.25462 3.7950067,2.509593 0.520522,0.08796 0.956849,0.170744 0.969614,0.183972 0.01277,0.01323 0.510753,-0.06841 1.106638,-0.181418 z M 201.42081,30.26389 c 3.0918,-1.602601 3.62683,-4.555515 1.25558,-6.929811 -1.70179,-1.703979 -3.65978,-1.916325 -5.61583,-0.609047 -4.914,3.284147 -0.88171,10.255963 4.36025,7.538858 z m -21.27754,-1.941101 c 0.18896,-1.149398 0.93168,-7.316513 0.93168,-7.736162 0,-0.441491 -0.19021,-0.535447 -2.45377,-1.212079 -0.84349,-0.252137 -2.48088,-0.829177 -3.63865,-1.28231 -2.56024,-1.00204 -2.55907,-1.002736 -2.57529,1.532893 -0.0257,4.019552 1.25666,5.964596 5.6907,8.631527 1.53462,0.923017 1.9025,0.934911 2.04533,0.06613 z m 2.89386,-0.938772 c 1.57443,-1.839376 5.16472,-3.743702 8.9352,-4.739326 2.14962,-0.567622 3.73222,-2.162652 4.45889,-4.493902 0.33674,-1.080271 0.90055,-6.824803 0.69756,-7.107117 -0.0204,-0.02838 -0.60266,0.231019 -1.29389,0.576434 -0.83658,0.418044 -2.02718,0.763464 -3.56091,1.033099 -7.10748,1.249525 -8.99217,3.908204 -10.09323,14.238217 -0.15893,1.491059 -0.0513,1.552982 0.85638,0.492595 z M 36.066813,26.35515 c 2.485309,-2.080817 3.69446,-6.491694 2.367943,-8.638043 -0.443497,-0.717595 -5.797012,1.229946 -6.553145,2.383952 -0.453087,0.691498 0.09192,4.315712 1.055747,7.020529 0.216576,0.607785 2.013831,0.167617 3.129455,-0.766438 z m -7.770231,-3.21103 c 1.18673,-3.481652 1.099116,-4.4546 -0.609725,-6.771055 -2.067168,-2.802191 -3.571105,-3.813077 -6.004838,-4.036207 -2.605344,-0.238863 -5.112699,-1.078993 -6.274905,-2.102508 -0.61258,-0.5394785 -0.779689,-0.117072 -0.779689,1.970844 0,5.691884 1.909961,9.588331 5.009784,10.220292 2.00667,0.409099 3.692706,1.022536 5.685651,2.068636 2.215206,1.162764 2.099304,1.215382 2.973722,-1.350002 z m 137.130988,0.528943 c 3.62954,-1.757029 4.49635,-11.102748 1.1076,-11.941771 -1.34121,-0.332069 -2.1579,-0.02161 -2.89743,1.101432 -1.43428,2.178074 -3.44665,2.469004 -6.58931,0.952624 -1.86567,-0.900214 -2.91021,-1.156942 -4.65909,-1.145115 l -1.67982,0.01136 0.60014,0.448723 c 1.32881,0.993544 2.16342,1.851206 2.78522,2.862166 4.0171,6.531165 8.07114,9.289473 11.33269,7.710581 z M 51.856299,23.222941 c 1.849551,-0.924231 3.663847,-2.833296 5.501403,-5.788765 1.350624,-2.1723 3.23192,-4.396341 3.718824,-4.396341 0.09491,0 0.172564,-0.0952 0.172564,-0.211561 0,-0.175267 -8.686099,-0.177699 -10.258279,-0.0029 -0.785647,0.08736 -2.729689,-1.106716 -4.099807,-2.518208 L 45.49472,8.8667472 44.350869,9.4651878 c -2.267213,1.1861622 -2.87053,2.3782142 -2.674261,5.2838812 0.441738,6.539694 5.546544,10.789083 10.179691,8.473872 z M 180.92118,16.114964 c 0.74926,-0.838573 0.75223,-3.413808 0.006,-4.860684 -1.664,-3.2246365 -7.00867,-1.6082204 -7.00867,2.119669 0,2.754588 5.17956,4.781877 7.00307,2.741015 z M 35.882265,16.315236 c 1.721339,-0.878162 2.115133,-2.588765 1.068319,-4.64069 -1.886838,-3.698509 -6.290453,-3.1340394 -6.899093,0.884347 -0.464096,3.064088 2.917482,5.242593 5.830774,3.756343 z m -7.498758,-4.248685 c 0.141358,-1.959954 0.93795,-3.8143176 2.279552,-5.3065027 0.514959,-0.5727572 0.936288,-1.1051148 0.936288,-1.1830168 0,-0.077902 -3.964841,-0.1142484 -8.810759,-0.08077 l -8.810758,0.060871 0.989361,0.9470954 c 0.544148,0.5209026 1.347491,1.3860686 1.785207,1.9225911 1.043616,1.2791955 1.641554,1.4991636 4.70562,1.731094 3.133316,0.237171 4.641494,0.887809 5.846179,2.52208 0.928604,1.25974 0.94488,1.250489 1.07931,-0.613442 z M 184.46817,11.760764 c 0.97802,-1.9062009 2.25113,-2.397348 6.72859,-2.5957899 2.55767,-0.1133567 3.42659,-0.2260171 3.98143,-0.5162159 0.75363,-0.3941682 3.07316,-2.5066817 3.07316,-2.7988836 0,-0.095345 -3.9107,-0.1733549 -8.69044,-0.1733549 -5.99063,0 -8.69044,0.067403 -8.69044,0.2169633 0,0.1193298 0.36237,0.9868396 0.80528,1.9277997 0.4429,0.94096 1.01478,2.5977373 1.27084,3.6817283 0.5187,2.195861 0.5265,2.197183 1.52158,0.257753 z m -23.47776,-1.435092 c 1.02961,-1.0959696 1.31934,-2.6383756 0.6544,-3.4837131 -1.05995,-1.3475052 -3.51254,-1.4525929 -29.17556,-1.2500992 l -18.03579,0.1423112 0.32751,0.6357377 c 0.18014,0.3496555 0.49785,0.7559758 0.70603,0.9029336 0.20818,0.1469579 0.37851,0.3879802 0.37851,0.5356053 0,0.2121283 1.23269,0.2973992 5.87883,0.406665 3.23336,0.076041 9.6055,0.2932337 14.16031,0.4826512 10.00966,0.4162636 12.48044,0.4251164 14.64242,0.052464 1.51011,-0.2602939 1.8017,-0.2522306 3.27169,0.090473 1.54075,0.3592001 2.00019,0.5182317 3.86312,1.3371893 1.22056,0.536573 1.36746,0.576957 2.16252,0.594511 0.50957,0.01125 0.86295,-0.124141 1.16601,-0.446729 z M 79.141176,8.5587418 c 2.361756,-0.1108406 7.42266,-0.304782 11.246455,-0.4309809 8.206797,-0.2708539 9.099403,-0.5153158 9.099403,-2.4920924 0,-0.090896 -11.156993,-0.1418933 -24.793319,-0.1133273 l -24.79332,0.051938 0.01468,1.0004472 c 0.01288,0.8774998 0.104635,1.0828879 0.746687,1.671285 l 0.732011,0.6708381 11.726651,-0.07829 C 69.57008,8.7955005 76.779419,8.6695819 79.141174,8.5587414 Z"
       id="path12628" /></g></svg>
