<?xml version="1.0" encoding="UTF-8" standalone="no"?>
<!-- Created with Inkscape (http://www.inkscape.org/) -->

<svg
   width="210mm"
   height="297mm"
   viewBox="0 0 210 297"
   version="1.1"
   id="svg5"
   xml:space="preserve"
   inkscape:version="1.2.2 (b0a8486541, 2022-12-01)"
   sodipodi:docname="lids.svg"
   xmlns:inkscape="http://www.inkscape.org/namespaces/inkscape"
   xmlns:sodipodi="http://sodipodi.sourceforge.net/DTD/sodipodi-0.dtd"
   xmlns="http://www.w3.org/2000/svg"
   xmlns:svg="http://www.w3.org/2000/svg"><sodipodi:namedview
     id="namedview7"
     pagecolor="#ffffff"
     bordercolor="#000000"
     borderopacity="0.25"
     inkscape:showpageshadow="2"
     inkscape:pageopacity="0.0"
     inkscape:pagecheckerboard="0"
     inkscape:deskcolor="#d1d1d1"
     inkscape:document-units="mm"
     showgrid="false"
     inkscape:zoom="1.3320199"
     inkscape:cx="302.92339"
     inkscape:cy="478.22107"
     inkscape:window-width="2520"
     inkscape:window-height="2071"
     inkscape:window-x="8"
     inkscape:window-y="8"
     inkscape:window-maximized="1"
     inkscape:current-layer="layer5" /><defs
     id="defs2" /><g
     inkscape:groupmode="layer"
     id="layer5"
     inkscape:label="dragon"
     style="display:inline"><path
       style="fill:#000000;stroke-width:0.138201"
       d="m 0.87511227,0.27229153 c 34.97410473,0 0.16526573,0.17121132 0.30192673,0.0345503 0.2702835,-0.27028348 157.970671,0.0202271 208.372871,0.0202271 0,55.37688407 0.23877,208.22444107 -0.0551,208.43931107 -0.20822,0.15226 0.0912,-40.50875 0.0912,0.23026 -67.5936,0.0915 -138.264752,0.0981 -208.8454605,0.099 0,-43.25576 0.13456277,-180.755328 0.13456277,-208.82335853 z M 30.730239,204.59298 c 0,-0.0441 -0.222189,-0.41498 -0.493753,-0.82411 -0.449496,-0.67719 -0.605667,-1.02149 -1.251005,-2.758 -0.703636,-1.89339 -0.687386,-3.43629 0.05924,-5.62496 0.557269,-1.63358 -0.01628,-1.46473 -1.033228,0.30421 -2.620753,4.55865 -3.768454,5.35993 -7.991855,5.57954 -2.304145,0.11981 -3.416731,0.59311 -5.1036,2.17109 -1.428727,1.3365 -2.05797,1.23245 7.453022,1.23245 4.59865,0 8.361181,-0.0361 8.361181,-0.0802 z m 62.922958,-0.3639 c 0.08764,-0.2498 0.549686,-1.22829 1.02678,-2.17442 1.088566,-2.15874 1.382517,-1.99333 -3.373247,-1.89819 -2.190674,0.0438 -8.087624,0.1445 -13.104332,0.2237 -5.016709,0.0792 -9.401146,0.20276 -9.743194,0.27454 -0.342049,0.0718 -1.492575,0.16594 -2.556725,0.20922 -4.296754,0.17481 -5.443767,0.67664 -5.571129,2.4374 -0.102945,1.4232 -1.808912,1.29383 17.708403,1.343 l 15.454106,0.0389 z m 52.559603,0.0867 c 0.54083,-2.15491 -0.51465,-3.18391 -3.60858,-3.51798 -3.05874,-0.33027 -26.88016,-0.62789 -26.88016,-0.33583 0,0.0402 0.17778,0.42887 0.39507,0.86376 0.34554,0.69157 0.75537,1.66422 1.25035,2.96739 l 0.14436,0.38005 h 14.30462 14.30463 z m 49.45174,0.0844 c 0.5342,-0.20312 0.435,-0.50657 -0.4463,-1.36528 -1.3411,-1.30673 -1.6453,-1.40218 -4.46877,-1.40218 -4.27375,0 -5.5083,-0.56896 -7.09296,-3.26887 -0.90898,-1.54871 -0.99731,-1.56697 -1.10385,-0.22806 -0.17099,2.14853 -0.41573,3.15205 -1.19842,4.91369 -0.62494,1.40659 -0.60431,1.3095 -0.2955,1.39021 0.50018,0.13071 14.25595,0.0935 14.6058,-0.0395 z m -17.30553,-3.03016 c 1.66268,-1.46835 2.54701,-5.20773 1.49047,-6.30256 -2.88968,-2.99443 -7.87003,0.12769 -6.44966,4.04321 0.74338,2.04928 3.68138,3.3878 4.95919,2.25935 z M 34.492447,200.86783 c 1.738332,-0.83501 2.97739,-2.711 3.114787,-4.71591 l 0.0678,-0.98933 -0.656574,-0.70193 c -0.962654,-1.02915 -3.821655,-1.43133 -5.012714,-0.70514 -3.203697,1.9533 -0.841041,8.71082 2.486703,7.11231 z M 166.96664,200.1744 c 3.75988,-1.57007 1.43855,-10.63913 -3.23714,-12.64706 -3.97561,-1.70727 -5.74567,-0.73158 -9.16733,5.05325 -2.21744,3.7489 -2.65971,4.42274 -3.81449,5.81174 -1.20866,1.45378 -0.80742,1.68804 1.55562,0.90828 3.39434,-1.12008 3.63573,-1.17898 4.11765,-1.00472 1.79442,0.64888 3.28591,0.61313 4.54806,-0.109 1.36378,-0.78028 2.71091,-0.13085 2.71091,1.30687 0,0.91987 1.81417,1.29556 3.28672,0.68064 z M 15.233173,199.78281 c 1.61524,-1.18024 2.550709,-1.51757 4.51006,-1.62635 5.622912,-0.31214 8.813237,-4.08048 9.400737,-11.10393 0.04451,-0.53207 0.146233,-1.2639 0.22606,-1.62631 0.313594,-1.42365 -0.0075,-1.61733 -1.295504,-0.78143 -2.389922,1.55099 -3.63187,1.92494 -6.811078,2.05083 -5.058694,0.20029 -6.445733,1.96038 -6.706889,8.51079 -0.0697,1.74825 -0.167162,3.43918 -0.216581,3.75764 -0.196799,1.26818 0.01386,1.46127 0.893195,0.81876 z m 31.450422,0.1174 c 0.705509,-0.33478 1.727743,-1.25341 2.614258,-2.34931 1.063462,-1.31464 2.690163,-2.01691 2.385567,-1.02989 -0.04663,0.1511 -0.119611,0.38565 -0.162186,0.52124 -0.155164,0.49418 3.013656,1.22459 4.707152,1.08499 0.532075,-0.0439 1.791434,-0.11983 2.798577,-0.16882 2.125497,-0.10342 2.077825,-0.0461 0.983335,-1.1815 -1.39804,-1.45026 -1.687062,-1.87767 -3.024537,-4.47274 -2.662656,-5.16628 -4.763384,-7.1629 -7.741329,-7.35771 -1.421924,-0.093 -2.873228,0.93012 -4.898987,3.45372 -4.247148,5.2909 -2.516363,13.80365 2.33815,11.50002 z m 149.494525,-1.44607 c 0.83208,-7.02882 -0.35624,-9.10321 -6.37814,-11.1338 -1.4062,-0.47418 -3.21252,-1.17106 -4.01405,-1.54863 -2.26668,-1.06773 -2.08412,-1.09874 -1.99058,0.33815 0.0437,0.6705 0.16486,1.62332 0.26934,2.11739 0.10448,0.49407 0.2281,1.17816 0.2747,1.52021 0.0874,0.64113 1.19953,4.72233 1.48764,5.45895 0.67347,1.72194 2.30056,2.60993 4.93872,2.69538 l 2.14757,0.0695 1.31101,0.64816 c 1.6866,0.83385 1.83701,0.82112 1.95379,-0.16536 z m -50.83866,-0.56655 c 3.50548,-0.60286 5.59931,-2.34017 7.69604,-6.38559 1.38755,-2.67714 2.13806,-3.66632 3.63071,-4.78527 0.99249,-0.74402 1.00139,-0.69269 -0.25236,-1.45386 -2.04935,-1.24419 -4.44753,-3.30909 -5.28599,-4.5514 -0.69741,-1.03329 -0.6927,-1.0454 -0.99008,2.54053 -0.4096,4.93905 -2.28738,9.33872 -5.66249,13.26733 -1.58766,1.84802 -1.62076,1.7956 0.86417,1.36826 z m -77.109143,-0.21804 c 0.05147,-0.0515 -0.458282,-0.65783 -1.132785,-1.34747 -3.238982,-3.31163 -5.686596,-10.13739 -5.686596,-15.85845 0,-1.50622 0.03922,-1.5057 -1.700323,-0.0225 -0.772114,0.65834 -2.182434,1.71212 -3.134043,2.34177 -0.951609,0.62963 -1.967838,1.3886 -2.258284,1.68659 l -0.528088,0.54182 0.435017,0.32961 c 1.682324,1.27469 2.362783,2.16078 3.75537,4.89025 1.703483,3.33884 4.133366,6.0311 6.173984,6.84064 1.131698,0.44895 3.828964,0.84453 4.075748,0.59775 z m 13.143627,-0.58596 c 0.04308,-0.0697 -0.230995,-0.22947 -0.609058,-0.35504 -5.75593,-1.91182 -12.02928,-10.02148 -12.02928,-15.55046 0,-1.31372 0.282854,-1.14376 2.074093,1.24628 5.783068,7.71629 15.300465,9.34415 21.691086,3.71004 1.989062,-1.7536 1.400164,-2.01159 -0.892858,-0.39115 -1.672071,1.18162 -7.240003,1.1312 -10.503301,-0.0951 -4.384786,-1.64776 -8.012225,-4.58082 -10.266588,-8.30135 -1.43075,-2.36125 -0.95494,-2.50389 1.559904,-0.46763 5.881838,4.7625 11.92375,5.76143 17.65522,2.91902 2.180374,-1.08132 2.178981,-1.10118 -0.07063,-1.00686 -7.391759,0.30992 -17.034772,-4.31575 -20.663866,-9.91228 -0.418962,-0.64609 -1.327902,-1.90361 -2.019869,-2.79449 l -1.258122,-1.61977 -0.09214,1.96528 c -0.05068,1.0809 -0.252797,2.89366 -0.449155,4.02836 -0.582908,3.36845 -0.372777,9.58715 0.471988,13.96827 0.880753,4.56775 2.26208,7.00938 6.137581,10.8488 l 1.743748,1.72752 3.695062,0.0735 c 2.032284,0.0404 3.706938,0.0871 3.721455,0.10365 0.01452,0.0166 0.06164,-0.0269 0.104723,-0.0966 z m 55.336566,-3.1474 c 0.0183,-1.76693 0.118,-3.75956 0.22694,-4.53423 0.98967,-7.03705 2.01387,-13.19869 2.9749,-17.89707 0.61412,-3.00243 1.45797,-7.1381 1.87521,-9.19039 2.10091,-10.33379 1.57592,-9.48754 3.86306,-6.22705 2.07168,2.95335 1.85172,2.78784 2.31748,1.74393 1.02789,-2.30377 3.86523,-6.14194 4.98273,-6.74027 0.27771,-0.14869 0.008,-0.3331 -5.27844,-3.61179 -1.24106,-0.76969 -2.80901,-1.85124 -3.48431,-2.40342 -0.67531,-0.55218 -1.421,-1.15214 -1.65711,-1.33324 l -0.42928,-0.32925 -2.92736,0.51264 c -3.16381,0.55405 -8.56591,2.18226 -11.33802,3.41731 -1.53999,0.6861 -1.54977,0.69461 -1.27635,1.11192 0.8987,1.37158 2.2335,8.58843 2.57107,13.90094 0.91946,12.6857 -3.81076,23.28442 -12.23227,31.29106 -1.29218,1.22435 -2.55639,2.46472 -2.80934,2.75637 l -0.45993,0.53028 5.91888,0.0188 c 3.25538,0.0104 8.4065,0.057 11.44693,0.10365 3.04043,0.0467 5.56283,0.073 5.60533,0.0585 0.0425,-0.0145 0.0919,-1.44491 0.10987,-3.17863 z m -30.47616,2.66999 c 0.19547,-0.25626 0.71592,-0.70326 1.15657,-0.99333 0.44064,-0.29007 1.26371,-0.95106 1.82903,-1.46887 0.56532,-0.51782 1.07086,-0.94149 1.12342,-0.94149 0.37712,0 2.69856,-3.67646 3.81211,-6.03724 3.42249,-7.25584 3.40183,-15.02587 -0.0578,-21.74122 -2.33261,-4.52774 -2.56823,-4.87294 -4.02162,-5.89195 -1.09309,-0.7664 -1.04134,-0.83806 -1.10249,1.52671 -0.0585,2.2617 -0.20602,1.8181 1.63422,4.91332 5.26665,8.85829 3.0308,20.5473 -5.63552,29.46245 l -1.29653,1.33375 0.87616,0.1343 c 1.31428,0.20146 1.30089,0.20382 1.68244,-0.29643 z m 66.55234,-2.76211 c 1.50084,-2.03162 4.33456,-3.08019 6.48012,-2.39787 0.35848,0.11401 0.80162,0.25219 0.98478,0.30709 l 0.333,0.0998 -0.0873,-2.40029 c -0.048,-1.32016 -0.17724,-2.96 -0.28715,-3.6441 -0.10992,-0.68409 -0.23929,-1.71024 -0.28749,-2.28032 -0.17959,-2.12393 -0.14551,-2.10428 -2.00317,-1.15478 -1.85453,0.94788 -2.93984,2.29002 -5.13631,6.35169 -1.36891,2.53138 -1.36585,6.97242 0.004,5.11876 z M 38.647327,190.88762 c 0.155672,-3.8426 -0.420576,-5.42234 -2.181732,-5.98103 -0.873018,-0.27695 -3.255313,-1.44787 -4.030145,-1.98087 l -0.70584,-0.48553 -0.07655,0.78596 c -0.0421,0.43227 -0.141335,1.48145 -0.220514,2.3315 -0.07918,0.85004 -0.20588,1.81399 -0.281555,2.14212 -0.393738,1.7072 -0.113605,2.10698 1.814244,2.58911 1.414054,0.35364 3.662601,1.36391 4.744173,2.13155 0.380053,0.26974 0.727981,0.49386 0.773171,0.49805 0.04519,0.004 0.119329,-0.9097 0.164748,-2.03086 z M 14.096606,187.5125 c 4.31395,-2.02779 3.34791,-8.53049 -1.268954,-8.5417 -3.2733635,-0.008 -4.7128208,1.19965 -4.5964909,3.85615 0.1576979,3.60118 3.1266839,5.97292 5.8654449,4.68555 z m 186.862824,0.0193 c 4.1902,-2.09387 3.17916,-7.86437 -1.54891,-8.84031 -5.14158,-1.0613 -7.12483,6.66443 -2.28587,8.9047 1.15197,0.53334 2.69032,0.50751 3.83478,-0.0644 z M 24.957051,183.33785 c 0.881815,-0.20752 1.55058,-0.64854 2.415344,-1.59279 0.678706,-0.74109 0.658528,-0.78282 -0.465634,-0.96312 -1.436603,-0.23041 -2.725963,-0.94631 -3.961797,-2.19972 -1.485841,-1.50699 -3.238428,-2.37972 -5.027795,-2.50367 -0.893579,-0.0619 -1.221114,-0.13883 -1.33012,-0.31239 -0.446748,-0.71132 1.61552,-1.41965 3.017983,-1.03658 0.380053,0.1038 1.108708,0.30383 1.619233,0.44451 1.138346,0.31366 1.138681,0.31334 0.881973,-0.85494 -0.238356,-1.08477 -0.454932,-2.41354 -0.642774,-3.9436 -0.495207,-4.03371 -1.489996,-4.7843 -6.156776,-4.64538 -5.5714837,0.16584 -7.4581086,2.14671 -7.6718172,8.05504 -0.063235,1.74824 -0.1542335,3.4424 -0.202218,3.7648 -0.1223763,0.8222 0.1177314,0.86197 1.5330936,0.25394 3.9498766,-1.69685 7.2915486,-1.26295 9.3207006,1.21024 0.446773,0.54454 1.206085,1.48527 1.687357,2.09049 1.713035,2.15424 2.954521,2.7106 4.983247,2.23317 z m 164.705869,-1.25756 c 0.52224,-0.26219 1.36243,-0.97644 2.69378,-2.29001 4.12919,-4.07408 6.84286,-4.4281 11.2077,-1.46212 0.80938,0.55 0.97315,0.0387 1.1148,-3.48049 0.11277,-2.8017 -0.19764,-3.43452 -3.12586,-6.37254 -2.91481,-2.92457 -8.50099,-5.121 -10.07643,-3.96196 -1.32528,0.97498 -2.3004,2.61757 -2.42835,4.09051 -0.34871,4.01461 -1.88757,7.99831 -4.35058,11.26239 -0.99708,1.32138 -0.9807,1.20884 -0.25331,1.74039 1.4547,1.06305 3.64788,1.2622 5.21825,0.47383 z m -26.06666,-1.00818 c 0.24429,-0.21449 0.64039,-0.47127 0.88021,-0.57061 0.74047,-0.30671 0.94641,-1.31572 0.66397,-3.25301 -0.29848,-2.04722 -0.36206,-2.24433 -1.20632,-3.73969 -0.17166,-0.30404 -0.5115,-0.98218 -0.75519,-1.50697 l -0.44309,-0.95417 -0.0908,0.67777 c -0.27653,2.06488 -2.16498,3.26473 -5.35128,3.39997 -2.04716,0.0869 -1.03549,-2.94916 1.74537,-5.2379 0.89718,-0.73839 0.9357,-0.79272 0.62191,-0.87722 -2.16871,-0.58405 -3.8593,-3.11189 -4.21128,-6.29688 -0.2363,-2.13808 4.35768,-1.55129 6.53878,0.83519 0.93487,1.02289 0.91758,1.03969 1.10126,-1.07027 0.2956,-3.39548 1.32696,-5.00514 3.87647,-6.05013 1.52064,-0.62329 2.22186,1.39247 1.77124,5.09165 l -0.12206,1.00196 h 0.95623 c 1.60721,0 3.22523,1.01125 4.03976,2.5248 0.65562,1.21827 2.67564,2.34062 3.80583,2.11459 1.06092,-0.21219 3.04604,1.19645 3.82778,2.71618 0.55949,1.08769 1.56394,0.3884 2.0584,-1.43305 1.10027,-4.05302 -0.28652,-9.18686 -3.39178,-12.55618 -0.31524,-0.34205 -0.63444,-0.73566 -0.70936,-0.87469 -0.226,-0.41949 -2.79764,-2.2685 -4.05171,-2.91319 -10.97595,-5.64255 -23.90335,2.16114 -23.90335,14.42938 0,5.15697 2.76102,10.72428 6.57094,13.24958 2.95534,1.95888 4.6003,2.32695 5.77804,1.29289 z M 52.220547,179.53534 c 2.855378,-0.74126 3.985833,-1.7243 6.138455,-5.33799 7.604105,-12.76532 -4.826536,-29.28428 -18.438374,-24.50257 -1.979455,0.69536 -4.866506,3.20142 -6.553165,5.68838 -1.442422,2.12682 -1.709534,2.59787 -2.039421,3.59647 -0.565971,1.71323 -0.515965,4.69651 0.121397,7.24262 0.186832,0.74634 0.215302,0.76061 1.026799,0.51441 0.420368,-0.12753 1.25675,-0.20459 2.23071,-0.20553 1.488656,-10e-4 1.563468,-0.0154 1.676559,-0.31283 1.02974,-2.70843 3.252669,-4.52571 5.535916,-4.52571 1.31696,0 1.278007,0.0505 1.016949,-1.31678 -0.257413,-1.34813 -0.176229,-2.52823 0.236916,-3.44384 2.15378,-4.7732 5.99253,-0.95802 5.02998,4.9991 -0.29991,1.85611 -0.229053,1.98351 0.58056,1.0438 1.16313,-1.35004 4.255081,-2.61939 6.087101,-2.49895 0.954801,0.0628 1.001652,0.23385 0.548554,2.00315 -0.874897,3.41636 -2.07344,4.71257 -4.48675,4.85236 l -1.011411,0.0586 0.309257,0.3292 c 0.170091,0.18104 0.998369,0.66921 1.840619,1.08478 2.91353,1.43761 5.250447,5.46492 3.171107,5.46492 -1.959887,0 -4.106326,-1.37688 -5.054967,-3.24262 -0.230457,-0.45325 -0.58149,-1.07516 -0.780071,-1.38201 l -0.361057,-0.55792 -0.08749,1.04938 c -0.161585,1.93811 -0.761214,3.04234 -1.758623,3.2385 -2.436873,0.47927 -4.031738,1.83721 -4.031738,3.43279 0,2.46916 4.650796,3.8709 9.052188,2.72831 z m -14.593893,-1.59703 c 0.576082,-0.29791 1.234532,-1.11464 1.312486,-1.62797 0.512279,-3.37345 0.36045,-4.77551 -0.633967,-5.85432 -1.92066,-2.08366 -6.346863,-0.72487 -6.952251,2.13427 -0.533869,2.52137 4.100443,6.47187 6.273732,5.34802 z m 139.402176,-0.34689 c 4.06924,-2.03744 4.04623,-7.45517 -0.0352,-8.30248 -4.40412,-0.9143 -7.14178,4.92949 -3.78173,8.07242 l 0.68313,0.63899 h 1.15855 c 1.00757,0 1.26502,-0.0533 1.9753,-0.40893 z m -86.4282,-9.4792 c 11.82984,-2.72437 10.7841,-15.77164 -3.13977,-39.17334 -11.021158,-18.52315 -12.424099,-22.89711 -10.650588,-33.205443 0.721136,-4.191516 0.772079,-4.072855 -0.97787,-2.277748 -3.233182,3.316619 -4.141367,6.068642 -3.436619,10.413811 0.586544,3.61637 2.123523,6.77426 8.569276,17.60651 4.202162,7.06184 6.011562,11.2187 8.024958,18.4363 0.570547,2.0453 1.01606,3.78261 0.990027,3.86071 -0.02603,0.0781 -0.696554,-0.47892 -1.490047,-1.23783 -2.522663,-2.41269 -2.937643,-2.7674 -4.13764,-3.53661 -3.74591,-2.40118 -8.225192,-2.54565 -11.816214,-0.38109 -1.295003,0.78057 -1.590743,1.0779 -3.088551,3.10501 -0.617796,0.83612 -1.314396,1.76898 -1.548,2.07302 -0.653994,0.8512 -1.521178,2.27127 -1.880164,3.07892 -0.562593,1.26572 -0.358157,3.78408 0.525148,6.46908 l 0.576608,1.75274 0.512178,-1.78074 c 3.041101,-10.57323 10.788309,-15.09263 16.965867,-9.89718 2.502243,2.10443 3.505194,6.76471 2.35649,10.94958 -0.387918,1.41323 -0.388431,1.41346 -0.795969,0.33304 -2.895644,-7.67655 -10.828504,-3.91787 -9.943431,4.71131 0.692886,6.7554 6.796982,10.4473 14.384311,8.69995 z m 35.48875,-3.7938 c -0.0882,-0.64609 -0.18825,-1.31674 -0.22231,-1.49034 -3.70513,-7.05872 -10.74858,-11.31075 -16.63847,-16.33352 -1.5792,-1.35792 -1.79662,-1.49579 -1.79662,-1.1392 0,0.35535 0.41793,1.54969 0.54228,1.54969 0.0559,0 0.65526,0.62619 1.33186,1.39154 1.32622,1.50018 2.29585,2.36986 2.66905,2.39392 0.12871,0.008 1.16479,0.86445 2.30241,1.90255 1.13761,1.03811 2.84577,2.53692 3.7959,3.33068 3.64097,3.04171 6.81025,7.61134 7.83501,11.2969 l 0.24977,0.89831 0.0457,-1.31291 c 0.0252,-0.7221 -0.0264,-1.84153 -0.11463,-2.48762 z m 78.5545,-4.4067 c -0.1083,-0.72036 -0.14453,-12.52588 -0.0461,-15.01059 0.0412,-1.03902 -1.46365,-10.68983 -1.70437,-10.93054 -0.0434,-0.0434 -0.38697,0.377 -0.76346,0.93426 -0.37649,0.55726 -1.38501,1.75948 -2.24114,2.67161 -2.28469,2.43411 -2.35292,2.58402 -1.64464,3.61348 0.74041,1.07616 1.46634,2.81634 1.69227,4.05669 0.659,3.61774 0.6744,3.79557 0.60842,7.024 -0.0352,1.7236 -0.14568,3.61219 -0.24546,4.19689 -0.21182,1.24124 -0.19387,1.27977 0.93285,2.00198 0.39692,0.25443 1.29277,0.96549 1.99077,1.58011 1.45485,1.28109 1.63157,1.26394 1.42084,-0.13789 z M 8.1810601,159.65412 c 1.3400124,-1.96923 4.0145119,-3.26384 5.7903909,-2.80286 1.197007,0.31072 2.031186,0.58777 2.769999,0.91999 0.855263,0.38459 0.859662,0.3853 0.859662,0.1366 0,-0.10532 0.0929,-0.36963 0.206451,-0.58735 0.113548,-0.21773 0.207656,-0.48914 0.209129,-0.60316 0.02657,-2.05671 3.530227,-4.88382 6.425386,-5.18469 2.360418,-0.24529 1.709299,-2.50867 -1.145903,-3.98333 -2.74235,-1.41637 -3.972763,-1.54883 -7.807043,-0.84045 -2.716579,0.50188 -2.724656,0.49903 -3.160234,-1.11673 -0.71194,-2.64093 -0.08382,-4.05716 3.020555,-6.81045 1.244226,-1.10352 1.269259,-1.20106 0.436088,-1.69914 -1.931331,-1.15458 -3.589988,-2.6936 -5.202042,-4.82684 -1.0131845,-1.34075 -1.0914448,-1.38484 -1.3518779,-0.76153 -0.4737015,1.13372 -0.6698097,2.9431 -1.1010996,10.15922 -0.102217,1.71024 -0.2559686,4.22896 -0.3416703,5.59715 -0.091104,1.45443 -0.1213519,3.8652 -0.072829,5.80446 0.051808,2.07055 0.027332,3.73226 -0.065142,4.42244 -0.430004,3.20937 -0.362138,3.488 0.5301799,2.17667 z M 189.5007,159.15765 c 1.27792,-1.21731 1.36308,-1.266 2.92809,-1.67372 0.80784,-0.21046 1.41027,-0.46188 1.75391,-0.73194 0.28789,-0.22626 0.72326,-0.5136 0.96751,-0.63854 0.33417,-0.17095 0.48313,-0.37228 0.60196,-0.8136 0.0868,-0.32253 0.27488,-0.95957 0.41789,-1.41563 0.5099,-1.62609 0.0402,-4.8005 -0.92212,-6.23197 -1.46062,-2.17276 -4.97313,-2.73748 -7.54015,-1.21226 -2.45648,1.45953 -3.29767,2.89029 -3.29767,5.6089 v 1.25994 l 0.95386,1.40363 c 0.89314,1.31428 2.057,3.44901 2.29208,4.20407 0.47168,1.51506 0.503,1.51915 1.84464,0.24112 z M 29.607543,149.87837 c 0.958718,-0.83693 2.93296,-2.28231 3.117398,-2.28231 0.0461,0 0.31579,-0.14308 0.599319,-0.31796 1.654543,-1.0205 5.842198,-2.37143 9.183197,-2.96249 0.904018,-0.15994 0.827377,-0.68455 -0.260163,-1.7808 -1.221708,-1.23152 -0.921637,-1.18402 -7.854719,-1.24343 -5.811281,-0.0498 -6.585678,-0.0952 -9.121289,-0.53448 -4.722247,-0.81816 -5.826102,-0.67072 -7.408983,0.98959 -1.595601,1.67366 -1.592103,2.24061 0.01521,2.46612 0.822323,0.11537 2.713976,0.67619 4.029937,1.19475 1.326867,0.52285 1.545739,0.49194 1.636318,-0.23106 0.313902,-2.5056 2.95585,-3.06165 4.254336,-0.89542 0.878886,1.46624 0.999983,2.56119 0.637941,5.76825 -0.10312,0.91347 -0.06397,0.90776 1.171496,-0.17076 z m 20.681759,-5.42639 c -0.0523,-0.13302 -0.642878,-1.67224 -1.312386,-3.42049 -0.669507,-1.74824 -2.554673,-6.19487 -4.189256,-9.88139 -6.618109,-14.92601 -6.352822,-14.1494 -5.772128,-16.89752 1.127762,-5.33712 0.685454,-7.48142 -3.558147,-17.249813 -6.270122,-14.433274 1.701765,-40.232712 13.999135,-45.30544 0.608086,-0.250838 1.447659,-0.63047 1.865718,-0.843626 0.975576,-0.49742 1.577942,-0.724615 3.10953,-1.172825 1.800118,-0.526795 1.695704,-0.482533 1.451114,-0.615137 -1.578694,-0.855889 -4.545507,-1.33056 -5.579872,-0.892743 -8.197787,3.469877 -12.151228,8.019489 -16.167432,18.605445 -4.990288,13.15346 -4.93637,23.525562 0.183399,35.280279 3.047453,6.99679 3.319227,8.18245 2.475828,10.80125 -0.58595,1.81941 -3.837027,5.45666 -3.532177,3.95174 1.004541,-4.959 0.489155,-8.69612 -1.902135,-13.79258 l -1.034231,-2.20422 -0.592669,0.0422 c -0.325968,0.0232 -1.681005,-0.0626 -3.011193,-0.19074 -9.764963,-0.940406 -13.156141,2.95298 -15.477177,17.76924 -0.842418,5.37754 -0.847106,5.29464 0.398388,7.04462 0.540866,0.75994 0.647878,1.02007 0.710647,1.72751 0.04912,0.55366 0.110784,-0.11689 0.183933,-2.00027 0.527545,-13.58284 7.572969,-24.70821 13.689225,-21.61653 4.232865,2.13965 5.515473,6.1054 5.069263,15.67388 -0.123782,2.65438 -0.506699,2.64506 3.967721,0.0966 2.000435,-1.1394 1.771299,-1.22331 2.755526,1.00905 0.385395,0.87412 1.895097,4.26351 3.354894,7.53197 1.459797,3.26846 3.180057,7.31085 3.822799,8.98308 1.557572,4.05236 1.893607,4.63109 3.911956,6.73732 1.010598,1.0546 1.3668,1.30496 1.179727,0.82921 z m 106.273248,-1.12531 c 3.30697,-1.03461 8.93858,-3.67784 14.16564,-6.64868 7.53641,-4.28338 9.36857,-5.3012 11.88532,-6.60263 7.09506,-3.66891 10.63136,-4.77418 16.03135,-5.01059 1.33019,-0.0582 2.72948,-0.18989 3.10953,-0.29256 l 0.69101,-0.18667 0.0402,-0.98239 0.0402,-0.98238 -1.06052,-0.0961 c -5.97086,-0.54107 -14.68086,1.62245 -20.85571,5.18045 -16.23596,9.3553 -19.70138,11.01844 -27.62324,13.25709 -1.05478,0.29809 -1.94255,0.56671 -1.9728,0.59698 -0.15192,0.15192 4.01382,1.96178 4.6507,2.02054 0.038,0.003 0.44224,-0.11036 0.8983,-0.25306 z m -34.97605,-1.32846 c -0.89381,-1.76508 -0.77808,-1.70879 -10.07758,-4.90173 -3.96156,-1.36018 -5.04235,-1.8348 -6.81073,-2.99089 -1.74369,-1.13994 -4.17628,-2.30935 -4.17628,-2.00764 0,1.6326 6.57002,5.40116 13.32325,7.64219 4.55455,1.51141 5.69836,1.99011 7.40695,3.09991 1.1361,0.73794 1.13533,0.73986 0.33439,-0.84184 z m 4.01855,0.004 c 0.7326,-0.34001 2.05854,-1.10739 2.94653,-1.70528 0.88798,-0.59787 4.56857,-3.06598 8.17908,-5.48469 13.21241,-8.8511 15.07451,-10.17064 19.62459,-13.90659 14.30565,-11.74604 22.78358,-23.885047 25.51764,-36.537118 l 0.62714,-2.902228 0.0159,-4.14604 c 0.0174,-4.534005 -0.18335,-6.174658 -1.09904,-8.983086 -0.55353,-1.697657 -0.311,-1.673818 -3.98592,-0.391799 -1.21618,0.42427 -2.54739,0.888108 -2.95823,1.030754 -1.01767,0.353324 -1.25691,0.338687 -1.25691,-0.0769 0,-0.682725 1.11914,-1.333615 4.56064,-2.65247 l 1.03651,-0.397212 -2.07302,-0.08127 c -4.78493,-0.187583 -7.47795,-1.675956 -8.35492,-4.617576 -0.40248,-1.350044 -0.36561,-1.312826 -1.30139,-1.313727 -11.08181,-0.01066 -20.93371,-10.088233 -20.95806,-21.438127 -0.002,-0.712346 -0.0649,-1.699415 -0.1409,-2.193484 -0.076,-0.49407 -0.19506,-1.893358 -0.26466,-3.10953 -0.12475,-2.179999 -0.75348,-5.727435 -1.53089,-8.637583 -0.68424,-2.561339 -2.44324,-5.319581 -4.78542,-7.503874 -1.53735,-1.433724 -1.81044,-1.595682 -3.90745,-2.317345 -2.10027,-0.722782 -3.62039,-1.323447 -5.05376,-1.996953 -3.61382,-1.698045 -2.70923,-1.598927 -14.19598,-1.555499 l -9.85105,0.03724 -1.33235,0.639959 c -6.637433,3.188122 -8.19186,9.624807 -4.48456,18.570024 0.83678,2.019057 1.30635,3.310561 1.40692,3.869638 0.10948,0.60863 0.72728,2.13395 1.16433,2.874698 0.36527,0.619083 1.37994,2.995773 1.37994,3.232263 0,0.101104 0.27704,0.696307 0.61565,1.322673 0.71232,1.317676 1.89495,3.9738 1.84018,4.132931 -0.0434,0.125981 -2.57342,-1.828644 -5.79717,-4.478675 -6.566497,-5.39788 -9.546549,-6.788317 -14.555731,-6.791437 l -2.487624,-0.0015 -1.796617,0.575591 c -7.521728,2.409772 -12.44911,8.490876 -13.40701,16.546194 -0.1265,1.063777 -0.271202,2.00491 -0.321561,2.091405 -0.06189,0.10631 -1.5578,-0.420158 -4.616834,-1.624848 l -4.52527,-1.782113 -1.417387,0.669711 c -0.779562,0.36834 -1.545607,0.726683 -1.702319,0.796318 -12.497628,5.553259 -16.72296,15.620675 -14.844059,35.367943 0.509532,5.355181 3.213275,18.225962 4.04479,19.254632 1.036128,1.28181 5.609357,1.71281 8.202231,0.77302 0.690508,-0.25027 0.615904,-0.0796 1.77278,-4.05512 1.049537,-3.606629 1.00264,-3.301046 0.521835,-3.400299 -3.451932,-0.71259 -4.753255,-1.879585 -5.545804,-4.973346 -0.321774,-1.256072 -0.281696,-1.419763 0.254189,-1.038178 1.617525,1.10468 3.037339,1.593169 5.047815,1.593169 2.727341,0 2.630512,0.06802 4.623135,-3.247595 1.289045,-2.144904 1.295314,-2.197031 0.303747,-2.526133 -2.395612,-0.795106 -3.70326,-2.704427 -3.949049,-5.766082 -0.120159,-1.496747 -0.01136,-1.566711 1.046699,-0.673096 2.224156,1.878478 3.401121,2.394851 5.785791,2.53841 l 1.451114,0.08736 1.385929,-1.28729 c 0.762261,-0.70801 1.880168,-1.732822 2.484238,-2.27736 l 1.098309,-0.990072 -1.171325,-1.22115 c -2.305102,-2.403155 -2.853923,-5.234784 -1.569283,-8.096666 0.323228,-0.720076 0.322059,-0.72101 1.500258,1.199432 1.329675,2.167349 2.590785,3.336417 4.662953,4.322631 l 1.342813,0.63909 2.595925,-1.221757 c 1.42776,-0.671965 2.992593,-1.401683 3.477406,-1.621597 l 0.88148,-0.399843 -1.169572,-1.143544 c -2.279563,-2.228834 -2.57013,-4.184272 -1.09083,-7.341014 0.697385,-1.488181 0.729678,-1.474597 1.524269,0.641101 1.711319,4.556598 4.464673,5.94902 10.21682,5.166831 4.433482,-0.602873 10.164149,-0.371188 13.867419,0.560646 2.26979,0.571137 4.46263,0.325759 5.39172,-0.603333 0.15614,-0.15614 -0.6617,-0.436536 -6.87036,-2.355493 -7.264226,-2.245212 -10.113603,-3.918207 -12.273459,-7.20629 -1.490776,-2.269498 -1.310897,-2.369853 1.326644,-0.740136 3.646768,2.253311 6.384624,3.128266 16.129365,5.154574 1.17817,0.244985 3.15819,0.725045 4.40006,1.066798 1.24186,0.341754 2.29086,0.588432 2.33112,0.548175 0.16921,-0.169204 -1.50392,-1.718985 -1.94516,-1.801762 -9.6547,-1.811233 -14.816177,-4.563673 -16.471937,-8.783925 -0.516185,-1.31567 -0.454203,-1.317 1.491361,-0.03199 3.385126,2.235806 5.600056,3.039557 13.040366,4.732062 4.35494,0.990655 10.05031,4.677319 11.67866,7.55971 0.24729,0.437734 0.58541,0.961202 0.75137,1.163264 0.16596,0.202062 0.51268,0.909528 0.77049,1.572147 0.36173,0.929726 0.66562,1.429532 1.33118,2.18934 4.41596,5.041274 5.00212,6.111826 7.64398,13.960956 2.42145,7.19425 3.59469,9.463894 5.83196,11.281965 1.13947,0.92596 1.46536,1.4078 1.04659,1.54739 -0.30454,0.10151 0.0143,0.34267 0.86146,0.65156 0.76949,0.28057 0.83801,0.33798 0.76249,0.63887 -0.091,0.36281 -0.0452,0.38356 1.20617,0.54608 0.58157,0.0755 0.6584,0.12341 0.62191,0.3876 -0.0434,0.31451 0.12698,0.39549 1.64899,0.78356 1.7251,0.43985 1.44094,6.71242 -0.45026,9.93926 -0.58712,1.00177 -0.86045,1.08999 -2.40266,0.77544 -1.15752,-0.23609 -1.58145,-0.19307 -2.8293,0.28712 l -0.53656,0.20647 0.0978,-1.25002 c 0.11269,-1.44054 0.12992,-1.42636 -1.27786,-1.05163 -0.84343,0.22452 -0.99453,0.0664 -0.99453,-1.04093 0,-0.68293 -0.1583,-0.75235 -1.26923,-0.55667 -1.03294,0.18195 -0.9388,0.27122 -1.17868,-1.1178 -0.24311,-1.40772 -0.13118,-1.33065 -1.27865,-0.88046 -1.22196,0.47943 -1.24869,0.45732 -1.24869,-1.03313 0,-1.49693 0.10845,-1.49452 -1.39718,-0.0311 -0.79056,0.76842 -1.72527,1.49894 -2.58143,2.0175 -0.73818,0.4471 -1.63628,1.02345 -1.99578,1.28078 -0.5782,0.41387 -1.01838,0.65477 -2.83594,1.55204 -0.24704,0.12195 -0.44916,0.26197 -0.44916,0.31116 0,0.18015 1.85336,0.26169 2.37766,0.1046 0.7076,-0.212 0.70131,-0.25049 0.2529,1.54909 -0.94778,3.80366 -0.75398,4.37711 1.4552,4.30587 l 1.34531,-0.0434 -0.0934,1.12038 c -0.15624,1.87347 0.27083,2.78727 1.52684,3.26695 1.44816,0.55305 -1.16787,1.90015 -4.02133,2.07074 -1.50443,0.09 -1.63787,0.12167 -2.05331,0.48811 -0.74315,0.6555 -1.31952,0.85777 -2.63009,0.923 l -1.21837,0.0606 0.20184,-0.46649 c 0.11102,-0.25658 0.33975,-0.7711 0.50831,-1.14339 1.033,-2.28154 0.4179,-6.81061 -1.38147,-10.17191 -0.61487,-1.14859 -2.61088,-3.16115 -7.94806,-8.01395 -7.26174,-6.60269 -8.00301,-7.57561 -8.00379,-10.505026 -8.3e-4,-3.181229 2.61474,-7.683795 5.10156,-8.782032 0.45607,-0.20141 1.14016,-0.509352 1.52022,-0.684319 0.38005,-0.174968 0.83915,-0.362277 1.02022,-0.416242 0.71399,-0.212801 -0.10496,-0.340125 -2.201,-0.342189 l -2.14818,-0.0021 -3.47781,1.10561 c -3.846766,1.222907 -3.686359,1.182105 -3.582414,0.911225 0.04785,-0.124703 -0.0707,-0.248556 -0.330717,-0.345503 -0.22292,-0.08311 -0.594415,-0.221903 -0.825543,-0.308417 -0.231128,-0.08651 -0.673068,-0.340452 -0.982088,-0.564306 -1.434919,-1.03945 -4.348955,-0.32959 -5.146683,1.253732 -1.407101,2.792801 1.809274,15.025327 4.548439,17.298627 0.12403,0.10294 0.377495,0.47092 0.563256,0.81775 0.444754,0.83037 1.379071,2.30504 1.844287,2.9109 0.204278,0.26604 0.537356,0.77299 0.740173,1.12655 0.46094,0.80354 2.02867,2.9066 2.71449,3.6414 0.84581,0.90622 2.21566,2.65585 2.68241,3.42609 0.80192,1.32333 2.46652,3.55812 2.76546,3.71272 0.50189,0.25955 2.36678,2.33639 3.02113,3.36449 0.19352,0.30404 1.21417,1.52784 2.26813,2.71955 2.97785,3.36705 4.05964,4.61055 4.95672,5.69766 0.45606,0.55267 1.07797,1.256 1.38201,1.56294 0.52145,0.52643 0.84906,0.9276 2.12768,2.6054 0.52224,0.68527 1.1831,1.89162 1.83091,3.34215 0.17822,0.39906 0.33556,0.72556 0.34964,0.72556 0.0141,0 0.62501,-0.2782 1.35762,-0.61823 z m -58.998153,-4.77167 c 0.568139,-0.79812 1.156782,-1.60808 1.308095,-1.79992 0.390873,-0.49557 0.258305,-1.08542 -2.126891,-9.46349 -1.103635,-3.87655 -2.071237,-7.29703 -2.150229,-7.60107 -1.342868,-5.16879 -0.156791,-13.56872 3.041615,-21.54107 1.536516,-3.829915 1.557612,-3.939308 0.513432,-2.662223 -3.962716,4.846594 -6.485687,14.614893 -5.918605,22.915333 l 0.163527,2.39357 1.309558,4.42244 c 1.696545,5.72931 2.376202,9.77751 2.401492,14.30384 0.0067,1.19473 -0.159713,1.30513 1.458006,-0.96741 z m 125.309863,0.36707 c 0.24197,-0.17816 0.87527,-0.5612 1.40735,-0.85119 4.1196,-2.24526 9.19039,-6.71743 9.19039,-8.10545 0,-0.29245 -0.0155,-0.5313 -0.0345,-0.53078 -2.16918,0.0588 -7.75567,4.60034 -10.28381,8.36024 -1.00514,1.49486 -1.05569,1.6988 -0.27938,1.12718 z m -81.08368,-8.19694 c -0.48777,-0.73985 -0.71807,-1.01502 -0.8495,-1.01502 -0.0621,0 -0.42835,-0.21393 -0.81397,-0.47541 -0.72197,-0.48954 -0.40091,-0.39672 -11.056844,-3.19672 -2.138249,-0.56186 -2.102034,-0.57772 -1.003936,0.43963 1.043294,0.96658 2.594276,1.66922 4.82264,2.18481 4.72727,1.09378 5.80868,1.38627 7.39937,2.0013 2.00581,0.77554 1.97215,0.77416 1.50224,0.0614 z m -58.52128,-6.1547 c 0.07154,-0.55542 0.176559,-1.72505 0.233368,-2.59917 0.05681,-0.87412 0.171472,-1.7137 0.254809,-1.86572 0.709049,-1.29344 0.607971,-6.56401 -0.125939,-6.56684 -1.71649,-0.007 -3.328185,-0.47165 -4.680208,-1.35048 -1.609859,-1.04643 -1.575999,-1.26622 -0.339459,2.20359 1.19152,3.34348 4.367213,11.34861 4.46377,11.25206 0.03497,-0.035 0.122115,-0.51802 0.193659,-1.07344 z m 52.40796,-1.25171 c -0.83993,-1.41276 -2.46876,-3.11576 -3.0572,-3.19642 -4.562435,-2.06295 -9.85684,-3.48823 -14.228938,-6.16586 -0.46947,-0.30464 -0.506813,-0.10333 -0.167295,0.9018 0.625239,1.85101 6.599141,5.25568 12.283611,7.00072 1.484722,0.45578 3.259212,1.00705 3.943302,1.22505 0.6841,0.21799 1.26303,0.39885 1.28652,0.40191 0.0235,0.003 -0.004,-0.0722 -0.06,-0.1672 z m 97.87628,-3.67676 c -0.0682,-0.11029 -0.21974,-10.79845 -0.44395,-31.305458 l -0.095,-8.689418 -1.247,-1.53748 c -2.99798,-3.696298 -7.2743,-7.316295 -10.16082,-8.601338 -0.58112,-0.25871 -1.16458,-0.532062 -1.29656,-0.60745 -0.4021,-0.22966 -0.42205,-0.158793 -0.10611,0.376698 1.02536,1.737852 2.59473,5.853689 3.25569,8.538422 0.46328,1.881756 0.572,4.120395 0.75172,15.478548 0.22959,14.511496 1.16527,18.077376 6.20098,23.632396 1.10987,1.22432 3.49263,3.28394 3.14106,2.71508 z m -79.27245,-7.28246 c 2.37247,-0.91625 3.59867,-2.13727 4.86595,-4.84538 0.68825,-1.47078 0.62366,-1.55499 -3.36025,-4.38093 -2.50929,-1.77994 -2.69829,-2.029786 -3.86479,-5.108992 -1.53464,-4.050982 -1.5417,-4.061375 -3.01551,-4.438948 -1.25361,-0.321162 -2.136,-0.248269 -1.52982,0.126376 0.0783,0.04837 0.44314,0.689497 0.81082,1.42472 2.3313,4.661735 1.01211,8.177734 -3.06827,8.177734 -0.63559,0 -1.20217,0.0466 -1.25906,0.10365 -0.0569,0.057 -0.32516,0.16604 -0.59614,0.24228 l -0.4927,0.13863 1.21102,1.21103 c 1.85533,1.85532 2.76239,2.27539 5.70983,2.64428 2.28798,0.28635 2.79692,0.81584 3.00186,3.123 0.1149,1.2936 0.21653,2.07302 0.27029,2.07302 0.0257,0 0.61827,-0.22071 1.31677,-0.49047 z m -28.450884,-1.54616 c -0.457212,-0.67889 -0.907528,-1.40167 -1.000705,-1.60618 -0.09318,-0.2045 -0.391949,-0.50595 -0.663939,-0.66989 -2.014334,-0.69431 -7.684461,-6.95564 -8.950157,-6.16956 -0.404443,1.04892 -0.445419,1.85035 -0.458357,2.95601 3.352457,2.99849 7.668627,4.94182 11.125208,6.47969 0.906906,0.41386 0.908045,0.43552 -0.05205,-0.9901 z M 115.59563,98.980719 c 1.48618,-1.327902 -0.0479,-5.722868 -2.22099,-6.362769 -2.22677,-0.655715 -3.75877,0.156756 -4.4434,2.356481 -0.50718,1.629563 0.0723,4.16971 0.85847,3.763163 0.21591,-0.111654 0.54619,-0.203007 0.73396,-0.203007 0.25975,0 0.36164,-0.09088 0.42609,-0.380053 0.43863,-1.967867 1.51837,-2.054621 1.79354,-0.144107 0.18911,1.313036 1.84015,1.874676 2.85233,0.970292 z m 17.2654,-0.842167 c 0,-0.84491 -1.50761,-5.115735 -2.21596,-6.277481 -0.35493,-0.582096 -0.35268,-0.603926 0.21996,-2.132807 0.60232,-1.608164 0.60962,-1.600561 -0.84431,-0.880109 l -1.18249,0.585944 -0.71808,-0.609405 c -3.26436,-2.770334 -7.90186,-5.186402 -10.63402,-5.540167 -1.31025,-0.169653 0.55369,1.93832 2.36762,2.67759 4.69509,1.913498 5.28966,2.525663 6.27732,6.463086 l 0.32217,1.284388 -0.39091,0.926555 c -0.70189,1.663675 -0.67477,1.720616 0.40862,0.858012 0.82728,-0.658696 0.88588,-0.664817 1.53314,-0.160168 1.86359,1.452992 4.85694,3.181449 4.85694,2.804562 z m -28.5213,-11.572986 c 3.0901,-1.441227 6.07242,-2.45769 7.13464,-2.431702 1.1193,0.02738 -0.3237,-1.309438 -1.52702,-1.414666 -3.91472,-0.342334 -6.7907,-1.146037 -7.69792,-2.151215 -0.15202,-0.168436 -0.61845,-0.527846 -1.03651,-0.798691 -0.41806,-0.270845 -0.93048,-0.64819 -1.13872,-0.838544 -0.502823,-0.459647 -0.556612,-0.358756 -0.311154,0.583627 0.113335,0.435118 0.206062,0.819184 0.206062,0.853481 0,0.0343 -0.575263,0.06434 -1.278362,0.06675 -2.002857,0.0069 -2.045123,0.147016 -0.833622,2.763725 0.682324,1.473748 1.214036,1.950119 3.291896,2.949269 0.85059,0.409013 1.58976,0.813594 1.64258,0.899068 0.12542,0.20293 -0.006,0.243825 1.54813,-0.481105 z m 6.38234,-7.740484 c 4.30028,-0.874411 6.2762,-0.957636 8.5646,-0.360733 1.90324,0.496441 1.9119,0.48541 0.68767,-0.8762 -2.02696,-2.254423 -2.27707,-2.340121 -4.61234,-1.580377 -0.93455,0.304043 -1.8848,0.552805 -2.11165,0.552805 -0.22686,0 -1.11572,0.211863 -1.97526,0.470806 -4.04274,1.217916 -4.91925,1.240581 -8.46065,0.218776 -1.0166,-0.293322 -2.08823,-0.572987 -2.3814,-0.621479 l -0.533033,-0.08817 0.345503,0.295954 c 0.55424,0.474753 2.33528,1.636012 2.66712,1.738991 0.16732,0.05192 0.47781,0.216693 0.68998,0.366157 1.0703,0.753967 2.99321,0.722493 7.11946,-0.11653 z m 92.78042,-7.819622 c 0.14624,-0.707216 0.32172,-1.596802 0.38993,-1.976855 0.0682,-0.380054 0.28517,-1.365561 0.4821,-2.190017 l 0.35804,-1.499009 -0.002,-7.553178 c -0.002,-4.647752 -0.056,-7.738888 -0.14163,-8.035969 -0.0765,-0.265535 -0.13908,-0.654753 -0.13908,-0.864928 0,-0.503816 -0.26746,-0.339084 -1.08148,0.666101 -0.32878,0.405984 -1.08778,1.067482 -1.68667,1.469995 -1.37785,0.926046 -1.42646,1.321307 -0.48732,3.962396 0.73162,2.057492 0.1449,5.309922 -1.42201,7.88273 -2.36762,3.887541 -2.34249,3.661738 -0.57258,5.143663 1.33144,1.114819 2.26382,2.105859 3.08878,3.283175 0.93792,1.33852 0.87501,1.353444 1.21445,-0.288104 z M 178.84552,63.9992 c 0.97805,-0.139334 0.97162,-0.08542 0.19483,-1.633332 -0.70297,-1.400857 -1.83794,-2.924545 -2.77747,-3.728741 l -0.52572,-0.450001 -0.88062,0.346358 c -0.48434,0.190497 -1.65753,0.535797 -2.6071,0.767333 -2.03802,0.496943 -2.07405,0.520503 -2.07405,1.356472 0,2.522829 3.89125,4.022717 8.67013,3.341911 z m 14.18669,-1.05389 c 0.59158,-0.247169 2.66989,-1.743918 2.92269,-2.104823 0.8717,-1.244547 2.33191,-6.827192 1.87953,-7.185873 -0.47655,-0.377867 -1.08565,-0.640872 -1.88449,-0.813729 -1.90861,-0.412991 -2.41552,-0.201437 -3.61408,1.508306 -1.01546,1.448555 -2.84959,1.910918 -4.23584,1.067812 -1.32837,-0.80789 -1.68357,-0.591894 -2.02992,1.234356 -0.47741,2.517383 0.32479,4.126185 3.02505,6.066693 0.7204,0.517705 2.93587,0.645588 3.93706,0.227258 z M 165.6932,53.499037 c -0.11279,-0.218089 -0.49502,-0.731161 -0.84941,-1.140161 -1.16255,-1.34166 -1.45146,-2.163699 -1.6535,-4.704879 -0.20615,-2.592885 -0.18874,-2.555095 -0.73652,-1.59768 -0.89728,1.568279 -2.6298,2.994099 -3.65535,3.008262 -0.24159,0.0033 -0.68801,0.09569 -0.99205,0.205222 -0.30405,0.109535 -0.89486,0.202359 -1.31292,0.206276 l -0.7601,0.0071 0.78494,0.74002 c 1.64675,1.552534 5.23903,3.075985 8.33634,3.535372 1.11779,0.165788 1.0667,0.181605 0.83857,-0.259552 z m 5.88729,0.04651 c 5.48035,-1.327258 9.31182,-4.366558 10.93614,-8.67503 0.52146,-1.383183 0.65384,-5.226779 0.21243,-6.168056 l -0.2226,-0.474662 -0.4421,0.78334 c -0.76378,1.353373 -2.75811,2.666432 -4.357,2.868648 -3.2304,0.408559 -3.70359,0.622188 -6.00593,2.711533 -0.94434,0.856977 -1.59505,1.161852 -2.94261,1.378698 -0.61228,0.09853 -0.61299,0.10313 -0.18618,1.19921 0.7645,1.963256 0.76132,1.877888 0.17043,4.584216 -0.5183,2.373754 -0.58468,2.199836 0.79895,2.093481 0.63981,-0.04918 1.55712,-0.184798 2.03847,-0.301378 z m -17.1028,-6.890974 c 0.16858,0.06469 0.46816,-0.128984 1.76469,-1.140796 0.82151,-0.641097 2.56268,-1.566091 2.96211,-1.573606 0.36179,-0.0068 1.04369,-0.398071 0.70551,-0.404808 -1.53416,-0.03057 -3.20707,-2.104283 -4.0332,-4.999466 -0.22556,-0.790465 -0.56978,-1.551555 -1.01845,-2.251833 l -0.67772,-1.057803 -0.43542,0.678534 c -1.73181,2.698797 -2.18605,6.265416 -1.15676,9.082719 0.65309,1.787589 1.02152,2.258245 1.45305,1.856217 0.14908,-0.138891 0.34537,-0.224011 0.43619,-0.189158 z M 42.001597,46.421085 c 0.694162,-0.470002 0.951148,-0.763722 0.767507,-0.877219 -0.784194,-0.484658 -9.892732,-1.394147 -15.217495,-1.519468 -3.908344,-0.09199 -5.532946,-0.190641 -5.520073,-0.335212 0.02194,-0.246414 3.347625,-2.931042 6.440791,-5.199272 C 52.633726,20.77227 76.61427,15.98108 91.458293,25.905642 c 1.864027,1.24627 1.896921,1.424572 -0.90511,-4.906443 C 89.74995,19.184342 81.565244,16.704226 75.582615,16.46284 62.978408,15.954293 50.322133,20.752974 34.738078,31.949225 c -2.318327,1.665584 -4.774856,3.430181 -5.458953,3.921327 -7.10881,5.103743 -9.32859,7.320293 -9.32859,9.315013 0,0.05873 1.166074,0.09905 2.591275,0.0896 2.768388,-0.01836 5.689395,0.161592 9.915946,0.61088 4.436937,0.471653 7.577933,0.840417 8.084778,0.949182 0.577239,0.123868 0.727412,0.08124 1.459063,-0.41414 z M 199.15963,41.326649 c 4.03288,-1.907878 5.32798,-4.116252 5.51563,-9.405099 0.0799,-2.252423 0.0697,-2.26426 -1.25422,-1.460557 -4.55004,2.762065 -7.57336,2.29585 -10.64828,-1.642033 -1.59276,-2.039759 -2.08104,-2.287801 -3.98281,-2.023289 -1.71119,0.238005 -3.94768,1.265053 -5.32847,2.446948 -0.67714,0.57961 -0.64512,0.696158 0.22631,0.823894 1.89342,0.277543 3.94067,1.823621 5.93333,4.480862 2.17401,2.899084 5.83676,4.422663 5.8458,2.431653 0.002,-0.406266 0.64291,-0.9533 1.0094,-0.861321 0.78212,0.196301 1.02646,1.440146 0.42364,2.156559 -1.04516,1.242104 -2.00579,1.24778 -4.81966,0.02847 -0.53208,-0.230558 -0.9799,-0.376904 -0.99516,-0.325214 -0.0153,0.05169 0.11012,0.84027 0.27863,1.752398 l 0.30639,1.658416 1.79438,-0.03602 c 1.14455,-0.02298 2.11971,0.03362 2.6927,0.156278 1.44837,0.310052 2.03791,0.274326 3.00239,-0.181947 z m -21.87594,-1.206791 c 3.75251,-1.038421 4.27224,-7.008702 0.7679,-8.820873 -3.2846,-1.698532 -7.46206,2.769785 -5.89684,6.307422 0.26514,0.599259 1.82586,2.054417 2.20344,2.054417 0.14634,0 0.43114,0.115514 0.6329,0.256698 0.71582,0.50089 1.09332,0.534207 2.2926,0.202336 z m -14.38518,-2.808457 c 0.68286,-1.33953 1.59666,-1.958484 3.17144,-2.148146 3.61453,-0.435324 1.59178,-5.667147 -2.18272,-5.645557 -2.35824,0.01349 -8.01958,2.847741 -7.44374,3.726579 0.12097,0.184629 0.2736,0.335689 0.33916,0.335689 0.1798,0 2.069,2.013141 2.39608,2.553283 0.15733,0.2598 0.6592,0.76139 1.11526,1.11464 0.45607,0.353253 1.00771,0.931842 1.22587,1.285754 0.76864,1.246921 0.83703,1.27285 0.91915,0.348443 0.0441,-0.496178 0.22231,-1.105402 0.4595,-1.570685 z m -10.77862,-7.221019 c 0.62965,-0.475067 1.5343,-1.205806 2.01034,-1.623865 1.18782,-1.043148 3.00029,-2.330022 3.7222,-2.642802 0.72806,-0.315447 0.76543,-0.216194 -0.66797,-1.774364 -1.74747,-1.899604 -2.54641,-3.049541 -3.55633,-5.118726 -1.89995,-3.892769 -3.73289,-5.690482 -6.33879,-6.216944 -0.37251,-0.07525 -0.92604,-0.196866 -1.23009,-0.270246 -0.30404,-0.07338 -1.29899,-0.177164 -2.21101,-0.230632 l -1.6582,-0.09721 0.49294,0.608942 c 0.27111,0.334918 0.72313,0.959283 1.00448,1.387478 0.28136,0.428195 1.05118,1.423244 1.71073,2.211221 4.78158,5.712671 6.49301,9.758564 5.63355,13.317999 -0.37961,1.572177 -0.39296,1.566668 1.08815,0.449154 z m 47.48821,-0.112606 c 2.42924,-0.394127 4.50642,-2.682453 4.23467,-4.665121 -0.42794,-3.122135 -3.90313,-5.07696 -6.57356,-3.697683 -4.79371,2.475946 -2.90914,9.214262 2.33889,8.362804 z M 179.82357,27.81006 c 0.0802,-0.209029 0.17453,-0.753197 0.20963,-1.209261 0.0351,-0.456065 0.22512,-2.041925 0.42224,-3.524134 0.52335,-3.9352 0.56304,-3.750402 -0.87766,-4.086496 -1.01677,-0.237195 -4.7083,-1.506319 -5.38918,-1.852762 -1.33939,-0.681507 -1.94019,-0.615233 -1.94019,0.214022 0,0.25299 -0.0682,0.777858 -0.1515,1.166375 -0.15058,0.702169 -0.11795,1.050356 0.30663,3.271181 0.49199,2.5735 6.78387,7.679125 7.42003,6.021075 z m 3.0263,-1.274109 c 1.72275,-1.903704 4.64531,-3.435513 8.9767,-4.704977 3.31442,-0.971405 4.65619,-3.387517 4.87254,-8.773905 0.12556,-3.1258835 0.27358,-2.856635 -1.19628,-2.176043 -1.56722,0.725667 -2.46911,0.953866 -5.5887,1.414089 -1.73316,0.255685 -2.38212,0.5993 -3.88362,2.056281 -2.56784,2.491726 -3.20634,4.094559 -3.83365,9.623578 -0.069,0.608085 -0.19892,1.519594 -0.28873,2.025574 -0.28057,1.580587 -0.098,1.68437 0.94174,0.535403 z m -17.82422,-3.522574 c 1.55634,-0.724588 2.32616,-1.70437 2.77347,-3.529946 1.32173,-5.39402 0.47644,-8.499382 -2.31357,-8.499382 -1.35358,0 -1.44643,0.05987 -2.38295,1.536622 -1.18778,1.872931 -3.03777,1.953208 -6.74735,0.292788 l -1.86572,-0.835103 -1.83116,-0.06603 c -2.11258,-0.07617 -2.26123,0.02207 -1.16445,0.769559 1.01341,0.690672 1.83848,1.622577 2.71818,3.070107 3.55112,5.843348 7.77178,8.677549 10.81355,7.261382 z m 15.28425,-7.303076 c 0.98297,-0.750288 1.21933,-2.583384 0.59237,-4.594087 -1.19261,-3.824701 -7.27185,-2.5667673 -7.27185,1.50471 0,2.512443 4.62985,4.653831 6.67948,3.089377 z m 3.6895,-4.331524 c 1.39017,-2.3535873 2.74933,-2.9380352 6.85277,-2.9467323 2.89354,-0.00613 3.4778,-0.1219272 4.65309,-0.9222058 0.98029,-0.667494 2.49406,-2.2139776 2.36754,-2.4186954 -0.17999,-0.2912204 -17.19411,-0.1392182 -17.19411,0.1536104 0,0.2619987 0.16641,0.6732707 1.06404,2.6297656 0.44134,0.9619741 0.68322,1.7501017 1.09222,3.5586845 0.31753,1.404199 0.30251,1.404902 1.16445,-0.05443 z M 160.8975,9.4353762 c 1.60822,-1.8814674 1.15365,-3.5276514 -1.15631,-4.1874109 -2.08683,-0.5960279 -27.34016,-0.7200224 -27.12906,-0.1332046 0.0229,0.06359 0.94274,0.741645 2.04414,1.5067892 l 2.00255,1.391171 h 2.14441 c 1.17942,0 2.35611,0.060719 2.61488,0.1349306 0.98941,0.2837581 6.62519,0.3410912 7.61247,0.077442 1.35444,-0.3616948 3.23521,-0.4340904 4.17555,-0.1607269 0.42523,0.1236162 0.89911,0.2247568 1.05308,0.2247568 0.26094,0 1.88864,0.6115302 3.82356,1.4365113 1.38355,0.5898993 2.12801,0.5131293 2.81473,-0.2902585 z"
       id="path15779"
       sodipodi:nodetypes="sscscccssssssssssssssscsscsssssscccsssssssssssssssscssssssssssssssssssssssscssssssssscsssscsccsccsssssssssssssscsssssssssssssssssscssssccssssssssssssscsssscccccsssscsssssssscssscsscsssssccssscssssscsssssssssssssssssssssssssssssssssssssssssscssssssssscssssssscsssssssssssccsssssssscscssscsssssscssscsscsccscssssssssssssscsssssscsccsscsssccccssssssssssssssssssssssssssssssssssssssssscssssssssscssssssssssssssssssssssscscsssssssssssssssssscccsssccssscssssscsssscsssssscssscssssssscsssssscsccsssscscsssssssccsssscsscsssscsscsssssssssssssssssssssssscscsssscssssssssssssssscsscsccssssssssscssssssssssssssssssssccscssssscssscsscsccsssssssssscscsssscsccssccsscsssssssssscsssssscscssssscsscccccssssscsssssscsssscsssssssssssscsssssscsssssscsssscssccssssssssccssscsssssssssssssscsscsscsssscsscssssssscsssssscssssssssssssscsssssssscssssscssssscsssssssssssssssssssssssssssscssssssssssssssssssssssssssssssssscsssssssssssssssssssssscssssssss" /></g></svg>
