<?xml version="1.0" encoding="UTF-8" standalone="no"?>
<!-- Created with Inkscape (http://www.inkscape.org/) -->

<svg
   width="210mm"
   height="297mm"
   viewBox="0 0 210 297"
   version="1.1"
   id="svg5"
   xml:space="preserve"
   inkscape:version="1.2.2 (b0a8486541, 2022-12-01)"
   sodipodi:docname="lids.svg"
   inkscape:export-filename="lids-dragon.svg"
   inkscape:export-xdpi="96"
   inkscape:export-ydpi="96"
   xmlns:inkscape="http://www.inkscape.org/namespaces/inkscape"
   xmlns:sodipodi="http://sodipodi.sourceforge.net/DTD/sodipodi-0.dtd"
   xmlns="http://www.w3.org/2000/svg"
   xmlns:svg="http://www.w3.org/2000/svg"><sodipodi:namedview
     id="namedview7"
     pagecolor="#ffffff"
     bordercolor="#000000"
     borderopacity="0.25"
     inkscape:showpageshadow="2"
     inkscape:pageopacity="0.0"
     inkscape:pagecheckerboard="0"
     inkscape:deskcolor="#d1d1d1"
     inkscape:document-units="mm"
     showgrid="false"
     inkscape:zoom="1.3320199"
     inkscape:cx="302.92339"
     inkscape:cy="478.22107"
     inkscape:window-width="2520"
     inkscape:window-height="2071"
     inkscape:window-x="8"
     inkscape:window-y="8"
     inkscape:window-maximized="1"
     inkscape:current-layer="layer5" /><defs
     id="defs2" /><g
     inkscape:groupmode="layer"
     id="layer4"
     inkscape:label="fairy"
     style="display:inline"><path
       style="fill:#000000;stroke-width:0.204665"
       d="m 0.49112877,209.53456 c -0.3580966,-0.35811 -0.3580966,-208.7281795 0,-209.08627609 0.35809659,-0.3580966 208.72817123,-0.3580966 209.08627123,0 0.3581,0.35809659 0.3581,208.72816609 0,209.08627609 -0.3581,0.3581 -208.72817464,0.3581 -209.08627123,0 z M 29.86644,204.81702 c -1.822018,-2.49499 -2.386277,-6.13351 -1.350063,-8.70564 0.95354,-2.36692 0.08229,-1.55585 -1.870944,1.74171 -1.845381,3.11548 -3.011925,3.83048 -6.790556,4.16206 -2.914096,0.25573 -6.510755,2.06839 -6.510755,3.28134 0,0.10816 3.550155,0.18569 8.504034,0.18569 h 8.504033 z m 44.694782,-0.16349 c 0.324743,-0.38849 0.833478,-1.12079 1.130519,-1.62734 0.297041,-0.50654 0.734837,-1.13883 0.97288,-1.40509 l 0.432804,-0.48409 -3.888645,0.13324 c -11.868026,0.40667 -13.259618,0.71284 -13.289847,2.92401 l -0.01341,0.98092 1.023327,0.11813 c 0.56283,0.065 3.727512,0.10653 7.032628,0.0924 l 6.009298,-0.0258 z m 18.757599,0.36815 c 0.06426,-0.25327 0.516134,-1.22754 1.004167,-2.16503 0.488033,-0.93749 0.887333,-1.75505 0.887333,-1.81679 0,-0.1515 -13.054159,0.0317 -13.207811,0.18534 -0.214134,0.21414 -0.717551,3.49968 -0.595264,3.88498 0.206438,0.65043 11.745851,0.56469 11.911575,-0.0885 z m 34.563789,-0.307 c -0.0606,-0.42212 -0.16812,-1.38916 -0.23895,-2.14898 l -0.12877,-1.3815 h -6.02134 c -3.31174,0 -6.02134,0.0357 -6.02134,0.0794 0,0.0436 0.26974,0.66532 0.59942,1.38149 0.32969,0.71618 0.73944,1.64751 0.91055,2.06963 l 0.31113,0.7675 h 5.34973 5.34974 z m 18.25497,0.07 c 0.30864,-2.70614 -0.6895,-3.09535 -8.89572,-3.46876 -4.67632,-0.21279 -5.12277,-0.20468 -4.91197,0.0892 0.12754,0.1778 0.919,1.16938 1.75882,2.20353 l 1.52693,1.88025 5.22703,-0.0545 5.22703,-0.0545 z m 49.83099,0.36178 c 0.23306,-0.23306 -0.48204,-1.18078 -1.44539,-1.91561 l -0.9391,-0.71633 -3.08598,-0.12317 c -4.49276,-0.17932 -5.28708,-0.56372 -6.93501,-3.35614 l -0.84547,-1.43266 -0.1589,1.12566 c -0.4028,2.85333 -0.62587,3.79522 -1.19114,5.02941 -0.3339,0.72901 -0.60708,1.36921 -0.60708,1.42267 0,0.14904 15.05872,0.11551 15.20807,-0.0338 z m -17.56795,-3.09086 c 1.02861,-1.02861 1.95055,-3.43973 1.95055,-5.1012 0,-3.04309 -6.31147,-2.82027 -7.08206,0.25003 -0.83752,3.33693 3.00919,6.97349 5.13151,4.85117 z M 34.150945,201.57743 c 4.184283,-2.02558 3.871816,-7.12694 -0.448109,-7.31588 l -1.946457,-0.0851 -0.706962,0.7496 c -2.638631,2.79776 -0.115509,8.20875 3.101528,6.65141 z m -17.941506,-1.93325 c 0.934736,-0.47729 1.516479,-0.60367 3.429867,-0.74513 5.512957,-0.40758 8.0517,-3.73969 9.06341,-11.89578 0.276389,-2.22815 0.213698,-2.43675 -0.583116,-1.94029 -2.952867,1.83981 -4.012482,2.18599 -7.305187,2.38664 -5.88591,0.35868 -6.929516,2.31091 -7.054233,13.19605 l -0.0067,0.58712 0.665163,-0.50692 c 0.365839,-0.27881 1.17171,-0.76557 1.790823,-1.08169 z m 151.565191,0.67903 c 3.44748,-3.76186 -1.68032,-12.86669 -7.23914,-12.85367 -1.85484,0.004 -3.77637,1.96321 -6.58063,6.70851 -1.04653,1.77092 -2.44295,3.88613 -3.10315,4.70048 -1.67486,2.06593 -1.47687,2.11972 2.76742,0.75189 1.84977,-0.59613 2.33106,-0.68219 2.83425,-0.50678 1.50779,0.52562 3.08582,0.50146 4.20236,-0.0643 1.60651,-0.81408 2.91286,-0.2813 2.91286,1.18798 0,1.32397 3.01244,1.37835 4.20603,0.0759 z m -121.78887,0.45262 c 0.803703,-0.30557 1.976236,-1.31409 2.83117,-2.43516 1.082726,-1.41976 3.221497,-2.13412 2.333946,-0.77955 -0.563902,0.86063 1.412483,1.28264 5.674249,1.21163 4.137704,-0.069 3.944391,0.0522 2.437748,-1.52751 -0.926889,-0.97182 -1.637103,-2.06814 -2.949741,-4.55339 -4.538143,-8.59216 -9.208525,-9.22267 -13.653528,-1.84325 -2.856193,4.74173 -0.616527,11.42623 3.326156,9.92723 z m 150.23546,-2.17008 c 0.6338,-6.76363 -0.42688,-8.47047 -6.58462,-10.59595 -1.44859,-0.50001 -3.35268,-1.2401 -4.2313,-1.64464 -0.87862,-0.40454 -1.64161,-0.73553 -1.69554,-0.73553 -0.3573,0 0.53944,4.85248 1.63772,8.86212 0.85078,3.10607 2.36265,4.23284 5.69089,4.2413 1.74305,0.004 2.00944,0.0609 3.23005,0.68436 1.84398,0.94189 1.78622,0.9659 1.9528,-0.81166 z m -50.15152,-0.1165 c 2.62416,-0.5806 4.94835,-2.61301 6.5505,-5.72816 1.42675,-2.77412 2.42164,-4.1506 3.69461,-5.1117 0.61857,-0.46703 1.09921,-0.87247 1.06808,-0.90098 -0.0311,-0.0285 -0.89635,-0.61199 -1.92273,-1.29663 -1.10584,-0.73765 -2.53726,-1.9538 -3.51343,-2.98505 l -1.64729,-1.74025 -0.1325,1.58174 c -0.39624,4.72997 -0.93758,6.84301 -2.60743,10.1777 -1.06141,2.11963 -1.53415,2.81279 -3.37143,4.94343 -1.47254,1.70766 -1.35227,1.77541 1.88162,1.0599 z m -79.338028,-1.34719 c -3.362169,-3.50474 -5.699197,-9.92392 -5.700209,-15.65691 -4.09e-4,-1.89054 0.07131,-1.86991 -1.584636,-0.4563 -0.727949,0.62143 -2.264882,1.77063 -3.415405,2.55378 -2.985519,2.03221 -3.010331,2.06826 -1.925241,2.79701 1.14802,0.77102 2.21077,2.18725 3.4003,4.53127 2.59452,5.11262 5.651684,7.51963 9.647078,7.59549 l 0.903406,0.0171 -1.325293,-1.38149 z m 13.355195,-0.1535 c 1.795688,-2.68038 5.738796,-11.35823 6.55632,-14.42892 0.534998,-2.0095 0.634408,-8.46287 0.169756,-11.02005 -0.721546,-3.971 -1.265123,-6.5874 -1.558636,-7.50217 -0.860707,-2.68253 -3.481279,-9.57039 -4.200692,-11.04102 -0.443465,-0.90653 -1.223464,-2.61529 -1.733331,-3.79723 -1.084753,-2.51461 -2.152,-4.53689 -4.503993,-8.53441 -0.940414,-1.59835 -1.714107,-3.02589 -1.719317,-3.17231 -0.0052,-0.14642 -0.561709,-1.18721 -1.236665,-2.31287 -1.083794,-1.8075 -2.206826,-3.99992 -3.774124,-7.36796 -1.186479,-2.54968 -1.30917,-4.0154 -0.710961,-8.49361 1.029871,-7.70966 1.586201,-10.1966 2.94685,-13.17317 0.983282,-2.15104 1.397108,-3.55221 1.080142,-3.65726 -3.068764,-1.01703 -7.396764,3.61967 -8.338152,8.9329 -0.347508,1.96134 -0.984296,3.97226 -1.82036,5.74854 -0.423863,0.90053 -0.887792,2.00572 -1.030952,2.45598 -0.887886,2.79257 -2.212491,3.61633 -3.044198,1.89316 -1.330891,-2.75741 -1.040825,-6.44811 0.887863,-11.29686 1.039746,-2.61394 2.221118,-6.36517 2.109772,-6.6992 -0.04194,-0.12584 -0.431638,0.26841 -0.865985,0.8761 -3.3467,4.68231 -6.576797,6.08308 -10.317012,4.47408 -1.882071,-0.80964 -1.892312,-1.11701 -0.03742,-1.12323 2.11905,-0.007 4.092504,-0.96693 7.375177,-3.58706 1.292896,-1.03195 2.919316,-2.20331 3.614264,-2.603 1.089223,-0.62647 2.035711,-2.093538 1.350657,-2.093538 -0.03985,0 -0.691598,0.26347 -1.44833,0.585488 -4.336864,1.8455 -9.731824,1.77646 -14.960428,-0.191452 -1.173967,-0.441852 -2.299658,-0.803367 -2.501532,-0.803367 -0.201876,0 -1.186247,-0.552597 -2.187495,-1.227993 -1.845954,-1.245195 -3.992488,-1.736233 -4.438082,-1.015245 -0.487609,0.788967 2.983448,6.056047 5.691169,8.635947 2.36213,2.25062 2.323606,2.34846 -0.67187,1.70626 -3.34764,-0.71769 -5.404115,-2.40604 -7.06096,-5.797 -1.105091,-2.261716 -1.374537,-1.24492 -0.410473,1.54898 2.001792,5.80129 6.561441,12.53715 10.970415,16.20633 2.184118,1.81765 2.413419,1.87346 4.706772,1.14559 1.784081,-0.56624 3.934962,-0.84437 4.89653,-0.63318 l 0.664094,0.14586 -0.665959,0.32254 c -2.583222,1.25109 -3.530295,3.68702 -2.096145,5.39141 2.556338,3.03803 5.77449,9.97329 8.297088,17.88058 1.014965,3.18149 3.440603,9.97495 4.640381,12.99626 0.558757,1.40708 1.472912,3.70956 2.031459,5.11664 0.558546,1.40707 1.389197,3.46207 1.845892,4.56665 4.154845,10.04912 5.561147,17.75081 4.603652,25.21218 -0.700407,5.45798 -0.700409,5.45804 -0.113712,6.09402 l 0.524035,0.56805 2.968025,-0.0564 2.968022,-0.0564 z m 16.249115,0.67218 c 4.727768,-0.0274 8.707458,0.0206 8.843738,0.10665 0.13628,0.086 4.93981,0.0924 10.6745,0.0143 l 10.42671,-0.1421 -0.22069,-0.53017 c -0.12138,-0.29159 -0.46078,-0.85251 -0.75422,-1.24649 -0.99037,-1.3297 -1.22196,-1.80032 -2.03084,-4.12684 -0.44366,-1.27607 -1.12341,-3.01087 -1.51055,-3.85512 -0.84637,-1.84566 -1.67841,-4.36121 -1.99702,-6.03763 -0.12836,-0.6754 -0.33006,-1.59639 -0.44821,-2.04665 l -0.21482,-0.81867 -0.55071,2.04872 c -2.55607,9.50895 -8.60844,11.39596 -12.39735,3.86525 -0.82187,-1.63351 -0.80865,-1.63351 -1.63051,0 -3.80764,7.56792 -10.825543,5.19432 -12.499946,-4.22774 -0.196276,-1.10447 -0.411967,-1.10263 -0.701751,0.006 -0.610747,2.33651 -1.736186,5.81224 -2.401103,7.41541 -0.39684,0.95681 -0.928426,2.3383 -1.181299,3.06998 -0.800731,2.31688 -1.699313,3.95334 -2.863452,5.2148 -1.479214,1.60287 -1.472896,1.61356 0.866083,1.46599 1.097519,-0.0692 5.863666,-0.14829 10.59144,-0.17564 z m 41.559048,-0.62101 c -0.62167,-3.78947 -0.72828,-5.08922 -0.72828,-8.87892 0,-7.35197 1.37493,-13.52291 4.92738,-22.11506 0.4567,-1.10458 1.28735,-3.15958 1.8459,-4.56665 0.55854,-1.40708 1.4727,-3.70956 2.03145,-5.11664 1.19978,-3.02131 3.62542,-9.81477 4.64039,-12.99626 2.52259,-7.90729 5.74075,-14.84255 8.29708,-17.88058 1.43415,-1.70439 0.48708,-4.14032 -2.09614,-5.39141 l -0.66596,-0.32254 0.66409,-0.14586 c 0.96157,-0.21119 3.11245,0.0669 4.89653,0.63318 2.29336,0.72787 2.52266,0.67206 4.70678,-1.14559 4.40897,-3.66918 8.96862,-10.40504 10.97041,-16.20633 0.96407,-2.7939 0.69462,-3.810696 -0.41047,-1.54898 -1.65685,3.39096 -3.71332,5.07931 -7.06096,5.797 -2.99548,0.6422 -3.034,0.54436 -0.67187,-1.70626 2.70772,-2.5799 6.17878,-7.84698 5.69117,-8.635947 -0.4456,-0.720988 -2.59213,-0.22995 -4.43808,1.015245 -1.00125,0.675396 -1.98562,1.227993 -2.1875,1.227993 -0.20187,0 -1.32757,0.361515 -2.50153,0.803367 -5.22861,1.967912 -10.62357,2.036952 -14.96043,0.191452 -0.75673,-0.322018 -1.40848,-0.585488 -1.44833,-0.585488 -0.68505,0 0.26143,1.467068 1.35066,2.093538 0.69495,0.39969 2.32136,1.57105 3.61426,2.603 3.28267,2.62013 5.25613,3.57996 7.37518,3.58706 1.85489,0.006 1.84465,0.31359 -0.0374,1.12323 -3.74021,1.609 -6.97031,0.20823 -10.31701,-4.47408 -0.43434,-0.60769 -0.82404,-1.00194 -0.86598,-0.8761 -0.11135,0.33403 1.07002,4.08526 2.10977,6.6992 1.92869,4.84875 2.21875,8.53945 0.88786,11.29686 -0.8317,1.72317 -2.15631,0.89941 -3.0442,-1.89316 -0.14315,-0.45026 -0.60708,-1.55545 -1.03095,-2.45598 -0.83606,-1.77628 -1.47285,-3.7872 -1.82036,-5.74854 -0.94138,-5.31323 -5.26938,-9.94993 -8.33815,-8.9329 -0.31696,0.10505 0.0969,1.50622 1.08014,3.65726 1.36065,2.97657 1.91698,5.46351 2.94685,13.17317 0.59821,4.47821 0.47552,5.94393 -0.71096,8.49361 -1.5673,3.36804 -2.69033,5.56046 -3.77412,7.36796 -0.67496,1.12566 -1.23146,2.16645 -1.23667,2.31287 -0.005,0.14642 -0.7789,1.57396 -1.71931,3.17231 -2.39433,4.06948 -3.43285,6.04606 -4.51282,8.58912 -0.51471,1.21204 -1.06581,2.40933 -1.22465,2.66065 -0.38059,0.60217 -1.71652,4.40886 -2.88975,8.23424 -0.51786,1.68849 -1.20602,3.85283 -1.52925,4.80964 -3.84862,11.39261 -2.94551,17.44458 4.77906,32.02565 0.45189,0.85299 0.64993,0.89496 4.29926,0.91111 l 3.24964,0.0144 -0.1427,-0.86983 z m 6.13242,-5.59175 c 1.0275,-2.06989 1.8677,-5.07003 2.12375,-7.58332 0.0932,-0.91445 0.22458,-1.75196 0.29205,-1.86112 0.0675,-0.10917 -0.006,-2.26212 -0.16414,-4.78433 -0.15774,-2.52221 -0.35194,-5.96733 -0.43154,-7.65583 -0.0868,-1.84136 -0.20422,-2.86521 -0.29339,-2.55831 -0.0818,0.28141 -0.57314,1.34056 -1.09195,2.35365 -0.89021,1.73835 -1.97903,5.24745 -2.40036,7.73599 -0.0915,0.54012 -0.3515,1.73741 -0.5779,2.66065 -0.70638,2.88056 -1.23596,13.25838 -0.75148,14.72605 0.065,0.19699 0.16928,0.51687 0.23168,0.71084 0.19042,0.59204 2.02212,-1.64686 3.06328,-3.74427 z m 28.80048,3.02877 c 1.58475,-2.20586 4.66636,-3.01953 7.42567,-1.96068 0.47439,0.18204 -0.14873,-9.44388 -0.65653,-10.14204 -1.45874,-2.0056 -7.56249,6.67641 -7.79246,11.08405 -0.12051,2.30964 0.006,2.43521 1.02332,1.01867 z M 70.566729,189.41594 c 0.290952,-4.347 -0.970137,-10.44266 -3.453192,-16.69151 -0.516852,-1.30071 -1.0495,-2.80085 -1.183661,-3.33366 -0.323072,-1.28303 -0.377389,-1.17742 -0.847143,1.64713 -0.339728,2.04271 -0.382014,2.98091 -0.274853,6.09811 0.279628,8.13405 1.323346,12.18786 4.076897,15.83472 l 0.829653,1.09881 0.364505,-1.40581 c 0.200478,-0.77319 0.419986,-2.2347 0.487794,-3.24779 z m -32.415562,-0.40933 c -0.197994,-2.0181 -0.829526,-2.79096 -3.010169,-3.68383 -0.787963,-0.32263 -2.000866,-0.92795 -2.695339,-1.34515 l -1.262679,-0.75855 -0.140642,1.7681 c -0.07736,0.97246 -0.22292,2.21815 -0.32348,2.7682 -0.464726,2.54203 -0.267805,2.86538 2.068486,3.39654 1.177316,0.26766 4.54618,1.91523 4.972097,2.43163 0.290942,0.35276 0.563239,-2.82877 0.391726,-4.57694 z m -25.256692,-0.54863 c 3.696994,-0.93092 4.562427,-6.6986 1.263092,-8.41788 -0.974244,-0.50768 -3.668612,-0.39795 -4.8199495,0.1963 -3.9672041,2.04762 -0.8194598,9.32355 3.5568575,8.22158 z m 188.084895,-0.14896 c 4.46893,-2.29871 2.99138,-8.43096 -2.15462,-8.94229 -4.80714,-0.47767 -6.22009,7.04835 -1.69101,9.00706 1.02752,0.44438 2.91769,0.41254 3.84563,-0.0648 z M 99.561946,185.53444 c 1.266574,-0.5292 3.600964,-3.66078 4.239004,-5.68661 0.28711,-0.91159 0.16961,-1.34525 -1.11288,-4.10717 -2.796594,-6.02263 -4.857877,-16.0582 -3.687338,-17.95217 0.116674,-0.18879 0.544556,-2.92179 0.80751,-5.1578 0.0759,-0.64541 0.315768,-1.67925 0.533048,-2.29744 0.21727,-0.6182 0.48567,-1.763 0.59644,-2.54402 0.11077,-0.78102 0.38084,-2.14176 0.60015,-3.02387 1.46883,-5.90792 1.49454,-6.3977 0.54344,-10.35239 -0.38589,-1.60455 -0.76573,-3.33182 -0.84408,-3.83836 -0.60296,-3.89832 -3.339863,-9.39548 -7.183799,-14.42892 -3.60729,-4.72356 -3.58751,-9.04188 0.0682,-14.88942 0.781613,-1.25023 1.558951,-0.81475 1.05135,0.589 -0.317956,0.87929 0.04121,3.58289 0.771426,5.8068 0.624516,1.90201 3.193651,7.14831 3.317949,6.77542 0.144031,-0.43209 -0.361638,-3.25122 -0.884915,-4.93343 -1.399365,-4.49864 -0.927967,-11.256317 0.768417,-11.015562 0.454859,0.06455 0.467495,0.135734 0.593137,3.340652 0.07061,1.80108 0.227703,3.78122 0.349105,4.40031 0.1214,0.61909 0.32609,1.86241 0.45487,2.76294 0.12879,0.90053 0.35425,1.86757 0.50103,2.14899 0.14678,0.28141 0.65586,1.52475 1.13129,2.76298 0.47543,1.23823 1.09189,2.66577 1.3699,3.17231 l 0.50549,0.921 -0.1331,-0.81866 c -0.0732,-0.45027 -0.21433,-1.37126 -0.31359,-2.04666 -0.0993,-0.67539 -0.3217,-1.87269 -0.49429,-2.66065 -0.98868,-4.5138 -0.94016,-9.91153 0.10802,-12.01815 0.57064,-1.146873 0.45719,-3.181048 -0.23943,-4.292959 -1.27414,-2.033699 -3.162214,-4.460031 -3.470004,-4.459233 -1.607222,0.0042 -5.627106,3.814128 -7.167623,6.793337 -0.482649,0.933391 -1.127069,2.065475 -1.432049,2.515735 -3.25516,4.80585 -3.753694,9.20055 -1.799331,15.86158 0.346785,1.18194 0.699841,2.24109 0.784569,2.35365 0.08473,0.11257 0.410325,0.98751 0.723554,1.94432 0.313226,0.95682 1.067768,2.983 1.676761,4.50265 3.469618,8.65788 4.170024,11.10311 4.45542,15.55457 0.170577,2.66056 -0.288089,8.55607 -1.327542,17.06374 -0.122042,0.99888 -0.266456,2.28827 -0.320918,2.86531 -0.143239,1.51764 -0.425039,3.44652 -0.811087,5.55181 -0.413735,2.25626 -0.75084,8.45294 -0.486826,8.94886 0.103334,0.1941 0.230478,0.93089 0.282543,1.63732 0.248102,3.36635 0.356816,4.22356 0.656058,5.17306 0.787069,2.49738 2.931389,3.8663 4.82012,3.07713 z m 13.999214,-0.12559 c 2.2317,-1.08035 4.57041,-6.19538 4.13223,-9.03769 -0.0913,-0.59243 -0.24176,-2.45863 -0.33429,-4.14712 -0.11143,-2.03357 -0.27713,-3.31182 -0.49081,-3.78632 -0.31117,-0.69097 -1.16048,-5.47716 -1.30745,-7.36795 -0.0394,-0.50655 -0.17299,-1.74989 -0.29692,-2.76299 -1.04107,-8.50997 -1.50179,-14.42552 -1.33099,-17.08957 0.28539,-4.45146 0.9858,-6.89669 4.45542,-15.55457 0.60899,-1.51965 1.36353,-3.54583 1.67676,-4.50265 0.31323,-0.95681 0.63883,-1.83175 0.72355,-1.94432 0.0847,-0.11256 0.43779,-1.17171 0.78457,-2.35365 1.95437,-6.66103 1.45583,-11.05573 -1.79933,-15.86158 -0.30498,-0.45026 -0.9494,-1.582344 -1.43205,-2.515735 -1.54051,-2.979209 -5.5604,-6.789178 -7.16762,-6.793337 -0.30779,-8.19e-4 -2.19586,2.425534 -3.47,4.459233 -0.69663,1.111911 -0.81008,3.146086 -0.23943,4.292959 1.04818,2.10662 1.09669,7.50435 0.10802,12.01815 -0.17259,0.78796 -0.39502,1.98526 -0.49429,2.66065 -0.0993,0.6754 -0.24039,1.59639 -0.31359,2.04666 l -0.13311,0.81866 0.50549,-0.921 c 0.27802,-0.50654 0.89448,-1.93408 1.36991,-3.17231 0.47543,-1.23823 0.98451,-2.48157 1.13129,-2.76298 0.14678,-0.28142 0.37224,-1.24846 0.50102,-2.14899 0.12879,-0.90053 0.33348,-2.14385 0.45488,-2.76294 0.1214,-0.61909 0.27849,-2.59923 0.3491,-4.40031 0.12564,-3.204918 0.13828,-3.276099 0.59314,-3.340652 1.69638,-0.240755 2.16778,6.516922 0.76841,11.015562 -0.52327,1.68221 -1.02894,4.50134 -0.88491,4.93343 0.1243,0.37289 2.69343,-4.87341 3.31795,-6.77542 0.73021,-2.22391 1.08938,-4.92751 0.77142,-5.8068 -0.5076,-1.40375 0.26974,-1.83923 1.05135,-0.589 3.65572,5.84754 3.6755,10.16586 0.0682,14.88942 -3.84394,5.03344 -6.58084,10.5306 -7.1838,14.42892 -0.0784,0.50654 -0.45819,2.23381 -0.84408,3.83836 -0.9511,3.95469 -0.92539,4.44447 0.54344,10.35239 0.21931,0.88211 0.48937,2.24285 0.60014,3.02387 0.11077,0.78102 0.37917,1.92582 0.59645,2.54402 0.21728,0.61819 0.45715,1.65203 0.53304,2.29744 0.26296,2.23601 0.69084,4.96901 0.80751,5.1578 1.17054,1.89397 -0.89074,11.92954 -3.68733,17.95217 -1.59831,3.44206 -1.60109,3.62478 -0.0943,6.20499 1.99096,3.40922 3.66143,4.43116 5.66096,3.4632 z m -88.448772,-1.60131 c 0.450264,-0.20924 1.177672,-0.75464 1.616461,-1.21199 l 0.797798,-0.83156 -0.593133,-0.1212 c -2.150072,-0.43935 -2.847636,-0.78391 -4.169245,-2.05939 -1.715932,-1.65603 -3.901562,-2.75439 -5.480986,-2.75439 -1.798451,0 -1.672669,-1.0986 0.16424,-1.4345 0.65617,-0.11999 1.291829,-0.0425 2.596974,0.31658 l 1.728141,0.47546 -0.140769,-0.5486 c -0.07742,-0.30173 -0.216282,-1.05514 -0.308572,-1.67426 -0.09229,-0.61911 -0.317653,-2.13875 -0.500804,-3.37698 -0.503362,-3.40309 -1.213778,-3.96192 -5.272437,-4.14744 -4.376107,-0.20003 -7.7228703,1.7194 -8.3021439,4.76144 -0.2689564,1.41241 -0.4740245,7.87962 -0.2498542,7.87962 0.082215,0 0.7378429,-0.26465 1.4569503,-0.58811 4.4379438,-1.99623 7.2272338,-1.31108 10.3097238,2.53243 2.584541,3.22263 4.033968,3.85808 6.347656,2.78289 z m 164.517522,-0.97495 c 0.35614,-0.18334 1.61458,-1.27132 2.79652,-2.41775 4.07004,-3.94774 7.08287,-4.30647 11.24964,-1.33947 0.75566,0.53808 0.81055,0.35782 0.96694,-3.17572 0.14037,-3.17149 0.15848,-3.12216 -2.08931,-5.69323 -2.50098,-2.86069 -7.35309,-5.45267 -10.20721,-5.45267 -1.32949,0 -3.04776,2.62735 -3.38382,5.1741 -0.49733,3.76892 -1.82259,7.19605 -3.91258,10.11791 -1.35429,1.89335 -1.35916,2.01238 -0.10885,2.66395 1.40131,0.73027 3.40665,0.78282 4.68867,0.12288 z m -25.95864,-1.18095 c 0.42521,-0.28856 0.84522,-0.52465 0.93334,-0.52465 1.19963,0 0.56233,-4.39636 -1.09999,-7.58823 l -0.91413,-1.75525 -0.10124,0.89817 c -0.19656,1.74383 -2.0139,2.90224 -4.82861,3.07785 l -1.72823,0.10782 0.11316,-0.69731 c 0.23151,-1.42663 1.19225,-3.02826 2.55345,-4.25679 1.31831,-1.18982 1.31831,-1.18982 0.73912,-1.30619 -2.09793,-0.4215 -4.85257,-5.42969 -3.93228,-7.14926 0.58048,-1.08464 4.87091,0.0574 6.42512,1.7103 1.01379,1.07815 1.12362,1.00257 1.12362,-0.77312 0,-3.01075 1.14201,-4.94307 3.67323,-6.21526 l 0.91025,-0.45749 0.46423,0.53971 c 0.87921,1.02214 1.03623,2.48588 0.56294,5.24777 l -0.124,0.72361 0.80825,-0.0771 c 1.61727,-0.15423 3.59217,1.13569 4.59793,3.00317 0.4277,0.79414 2.14683,1.65939 3.30277,1.66232 1.57633,0.004 3.13419,1.12156 4.20227,3.0146 1.28956,2.28561 2.89186,-4.1081 1.95288,-7.7927 -4.6729,-18.33669 -32.09969,-14.77707 -32.09969,4.1661 0,8.57777 7.79657,17.6104 12.46561,14.44191 z M 51.309572,180.33219 c 3.423722,-0.78406 5.22579,-2.46496 7.376093,-6.88016 5.493781,-11.28033 -3.641977,-24.78433 -16.074377,-23.76031 -4.394442,0.36196 -9.351778,4.25982 -11.477293,9.02439 -1.106722,2.48084 -0.813046,9.32255 0.377035,8.78367 0.195425,-0.0885 1.230265,-0.199 2.299642,-0.24558 l 1.944322,-0.0847 0.351319,-0.74739 c 1.272477,-2.70704 3.350091,-4.23343 5.568758,-4.09129 l 1.080975,0.0693 -0.269753,-1.12566 c -0.529412,-2.20919 -0.198923,-3.58072 1.220596,-5.06547 2.575538,-2.69389 4.943487,1.84871 3.894081,7.47029 -0.159351,0.85363 0.105171,0.84467 0.696315,-0.0236 1.074027,-1.5775 6.51722,-3.35263 6.93578,-2.26188 0.167369,0.43615 -0.652834,3.4424 -1.218194,4.46499 -0.691213,1.25022 -1.932529,2.02229 -3.42495,2.13024 -1.536336,0.11113 -1.400066,0.37083 0.704909,1.34338 3.572766,1.65072 5.845895,6.11432 2.831136,5.55932 -2.152048,-0.39618 -3.566669,-1.49222 -4.697796,-3.63983 -0.888803,-1.68753 -0.978035,-1.70266 -1.006003,-0.17058 -0.03748,2.05325 -0.572668,2.66021 -3.005701,3.4088 -6.615415,2.0354 -1.148767,7.45472 5.893106,5.84209 z M 37.69773,178.10675 c 1.339272,-1.33927 1.419634,-5.55012 0.132406,-6.93787 -1.866715,-2.01251 -6.38807,-0.75128 -6.980771,1.94727 -0.701682,3.19474 4.704549,7.13441 6.848365,4.9906 z m 139.23546,0.235 c 1.99902,-1.00487 3.00865,-2.58542 3.00865,-4.70998 v -1.58023 l -0.91194,-0.87379 c -2.89355,-2.77251 -7.27468,-0.85034 -7.27468,3.19168 0,3.48765 2.43143,5.35294 5.17797,3.97232 z m -86.620915,-7.69843 0.600071,-3.01338 v -16.3624 c 0,-22.18487 0.05191,-21.57153 -2.362876,-27.91997 -0.862345,-2.2671 -0.906684,-2.27029 -1.682856,-0.12107 -1.294851,3.58545 -0.161458,12.70213 2.30023,18.50238 0.46447,1.09439 0.02136,0.67464 -1.728456,-1.63733 -2.605844,-3.443 -4.255777,-7.35486 -6.646903,-15.75924 -1.008401,-3.54435 -1.185264,-13.15309 -0.312677,-16.98724 0.610437,-2.68226 1.00641,-4.86897 0.909943,-5.02506 -0.471292,-0.76257 2.966002,-5.147989 6.146614,-7.842074 2.462848,-2.086115 2.509832,-2.122334 3.407484,-2.626843 2.345972,-1.31851 3.938296,-6.663528 4.161943,-13.970561 0.144338,-4.715902 0.0072,-4.27196 1.263598,-4.090606 2.501919,0.361138 3.65023,2.543943 3.65547,6.948633 0.007,5.693055 0.15126,5.588375 4.06853,-2.947468 1.04058,-2.26747 -1.55024,-5.374743 -4.891092,-5.866073 -0.56283,-0.08277 -1.37977,-0.301692 -1.815425,-0.486482 l -0.792099,-0.335983 0.744686,-0.653841 c 0.988464,-0.867884 1.543804,-0.977756 3.50718,-0.693881 2.63366,0.380788 2.8765,0.25426 1.78381,-0.929454 -0.4506,-0.488131 -0.84852,-0.659944 -1.99549,-0.861603 -0.787965,-0.138536 -1.918748,-0.396607 -2.512853,-0.573487 -0.983273,-0.292745 -1.111815,-0.29259 -1.432659,0.0016 -0.193857,0.177836 -0.823705,0.74496 -1.399662,1.260274 -0.72566,0.649257 -1.354075,1.515647 -2.046655,2.821707 -0.549703,1.036621 -1.404949,2.436369 -1.900548,3.110548 -1.136584,1.546135 -1.253231,2.089436 -1.021523,4.757916 0.549304,6.326073 -1.054238,9.941499 -6.928056,15.620345 -3.044098,2.943053 -4.207595,4.437774 -5.579005,7.167223 -1.432163,2.85037 -3.559618,10.07368 -3.908231,13.26954 -0.282635,2.59104 -0.116105,7.8078 0.301488,9.4444 1.238785,4.85496 3.444197,11.64706 6.014217,18.52223 1.009885,2.70158 1.999226,5.41851 2.198535,6.03763 0.199307,0.61911 0.939406,2.59925 1.644661,4.40031 1.310516,3.34675 2.030517,5.38886 3.17505,9.00528 0.698681,2.20764 1.901248,8.05164 2.168955,10.54027 0.0952,0.88495 0.194641,1.27498 0.234827,0.921 0.03834,-0.3377 0.339734,-1.97002 0.669774,-3.62738 z m 16.547095,-0.0766 c 1.07746,-1.81232 1.31877,-2.39291 1.46737,-3.53048 0.30637,-2.34545 0.44537,-13.97567 0.18812,-15.7401 -0.39638,-2.71867 -1.58632,-8.23122 -2.26399,-10.48823 -0.21969,-0.73168 -0.49725,-1.73104 -0.6168,-2.22081 -0.26754,-1.096 -0.33205,-1.03768 -0.79427,0.71812 -0.20276,0.7702 -0.55686,2.09979 -0.7869,2.95465 -0.55827,2.07465 -1.60031,7.06671 -1.88623,9.03627 -0.25624,1.76511 -0.11643,13.40093 0.18912,15.7401 0.18354,1.40512 2.433,5.69949 2.98547,5.69949 0.12572,0 0.80886,-0.97606 1.51811,-2.16901 z m 16.58378,-7.75727 c 1.14983,-3.62947 1.86702,-5.6632 3.17571,-9.00528 0.70525,-1.80105 1.44535,-3.78119 1.64466,-4.40031 0.19931,-0.61911 1.18865,-3.33604 2.19853,-6.03763 2.57002,-6.87517 4.77544,-13.66726 6.01422,-18.52223 0.41759,-1.6366 0.58412,-6.85336 0.30149,-9.44439 -0.34861,-3.19587 -2.47607,-10.41918 -3.90823,-13.26955 -1.37141,-2.729445 -2.53491,-4.224166 -5.57901,-7.167219 -5.87382,-5.678845 -7.47736,-9.294272 -6.92805,-15.620345 0.22704,-2.614706 0.0979,-3.275923 -0.89185,-4.567737 -0.41922,-0.547138 -1.31174,-1.974343 -1.98338,-3.171566 -2.61033,-4.652982 -5.24505,-5.896127 -9.0819,-4.285135 -2.14681,0.90139 -2.53905,2.453898 -0.55329,2.189929 4.12997,-0.549001 4.9905,-0.44507 6.17284,0.745537 0.8122,0.817882 0.83356,0.868975 0.38605,0.923428 -1.01052,0.122961 -3.36174,0.968463 -4.35613,1.566479 -0.57361,0.34496 -1.4774,0.857291 -2.00841,1.138512 l -0.96548,0.511313 v 2.297504 c 0,2.511245 -0.1049,2.187743 2.2048,6.799737 1.09412,2.18473 1.56641,1.325814 1.3599,-2.473119 -0.20725,-3.812413 0.46656,-5.47552 2.87384,-7.093283 1.90945,-1.283201 2.06146,-0.863557 2.13492,5.893499 0.055,5.063083 2.02913,10.877896 4.0853,12.033529 0.89765,0.504509 0.94463,0.540728 3.40748,2.626843 3.18061,2.694085 6.61791,7.079504 6.14662,7.842074 -0.0965,0.15609 0.2995,2.3428 0.90994,5.02506 0.87259,3.83415 0.69572,13.44289 -0.31268,16.98724 -2.39112,8.40438 -4.04106,12.31624 -6.6469,15.75924 -1.74982,2.31197 -2.19293,2.73172 -1.72846,1.63733 2.46169,-5.80025 3.59508,-14.91693 2.30023,-18.50238 -0.77617,-2.14922 -0.82051,-2.14603 -1.68285,0.12107 -2.28926,6.01845 -2.36288,6.62813 -2.36288,19.56991 0,12.41729 0.2846,18.3767 1.25258,26.22864 0.3437,2.7879 0.41972,2.72598 1.12112,-0.91306 0.35799,-1.85734 0.94266,-4.29798 1.29927,-5.42364 z m 81.13632,-9.79583 -0.0246,-8.87483 -0.78444,-4.83775 c -0.8509,-5.24759 -0.83,-5.1876 -1.42239,-4.08337 -0.22258,0.41492 -1.26649,1.68128 -2.31979,2.81415 -2.40255,2.58404 -2.49199,2.76057 -1.84378,3.63889 2.07066,2.80575 3.02961,10.09406 2.09828,15.94758 -0.11265,0.70798 -0.0702,0.7767 0.87343,1.4146 0.5455,0.36876 1.51456,1.16212 2.15346,1.76302 0.63889,0.6009 1.19149,1.09255 1.22799,1.09254 0.0365,0 0.0553,-3.99367 0.0418,-8.87483 z m -196.6403685,6.79 c 1.6894447,-2.41621 5.2591005,-2.95428 8.4967555,-1.28077 0.522434,0.27004 0.538635,0.25801 0.786852,-0.58416 0.936943,-3.17892 3.285964,-5.27356 6.457021,-5.75775 l 1.432658,-0.21876 0.06198,-0.85038 c 0.111919,-1.53548 -1.6182,-2.90968 -4.96197,-3.94121 -1.534663,-0.47343 -2.175843,-0.44383 -5.902098,0.27246 -1.994383,0.38338 -2.10153,0.33748 -2.512744,-1.07638 -0.768253,-2.64145 -0.08593,-4.36451 2.653861,-6.70174 l 1.618963,-1.38109 -0.595636,-0.4766 c -0.3276,-0.26214 -0.674676,-0.47707 -0.771281,-0.47762 -0.473866,-0.003 -2.958967,-2.29065 -4.26609,-3.92758 -1.6819757,-2.10635 -1.7977118,-2.10111 -2.1874977,0.0991 -0.4781051,2.69872 -1.2848728,16.69537 -1.2056597,20.91704 0.031682,1.68849 -0.015536,3.94493 -0.1049307,5.0143 -0.1782397,2.1322 -0.2205597,2.11649 0.9998116,0.37115 z m 181.6368685,-0.0789 c 0.68907,-0.68188 1.43203,-1.2121 1.84793,-1.31879 0.38254,-0.0981 1.03726,-0.26519 1.45492,-0.37124 4.3745,-1.11077 4.86527,-8.99358 0.69246,-11.12236 -5.55766,-2.83527 -11.63982,3.48103 -8.19563,8.51113 0.9102,1.32932 2.37892,4.1584 2.60231,5.01265 0.16284,0.62273 0.32096,0.55234 1.59801,-0.71139 z m -37.77856,-6.83241 c 0.94575,-2.97977 10.05321,-6.96154 15.93468,-6.9666 1.64201,-0.001 5.18009,-0.68038 6.43643,-1.23517 0.48307,-0.21332 1.63431,-0.58881 2.55832,-0.83442 0.924,-0.24562 3.0615,-0.99578 4.74999,-1.66704 1.68849,-0.67125 3.71468,-1.43474 4.50264,-1.69664 4.55469,-1.5139 4.81601,-1.62789 7.66467,-3.34357 3.62304,-2.18205 7.49759,-5.41369 8.71095,-7.26553 0.24893,-0.3799 0.25359,-3.97714 0.0334,-25.74144 l -0.25602,-25.299814 -0.87746,-1.137351 c -1.3701,-1.775909 -1.25051,-1.776591 -2.63649,0.01502 -1.65041,2.133438 -4.97243,5.290937 -6.83918,6.500486 -1.42532,0.923526 -1.6399,1.166826 -3.50133,3.970027 -1.09063,1.642414 -2.53803,3.769055 -3.21644,4.725866 -1.9425,2.739626 -2.00899,3.016278 -1.41699,5.895312 1.74944,8.507944 -0.9318,17.073194 -7.38667,23.596774 -2.17823,2.20142 -3.23868,3.06822 -7.48692,6.11971 -1.91386,1.37472 -4.46047,3.8719 -6.17576,6.05588 -2.06504,2.6293 -6.16564,9.08032 -7.9893,12.56868 -0.6179,1.18195 -1.28314,2.37924 -1.47832,2.66065 -0.63084,0.9096 -1.84993,3.47932 -1.65059,3.47932 0.10639,0 0.25059,-0.18007 0.32044,-0.40015 z M 33.177365,147.69425 c 1.97318,-1.00899 3.559281,-1.56164 6.261608,-2.18173 3.971661,-0.91135 3.865176,-0.80242 2.302487,-2.35551 -1.315289,-1.3072 -1.146372,-1.28224 -8.923483,-1.3188 -4.922619,-0.0231 -5.955038,-0.0868 -8.56105,-0.52832 -4.929443,-0.83507 -6.536582,-0.38116 -7.951223,2.24567 -0.482939,0.89676 -0.520607,0.86628 1.775024,1.43631 1.053262,0.26154 2.502249,0.71479 3.21997,1.00723 1.426347,0.58116 1.662702,0.55596 1.662702,-0.17729 0,-1.05564 1.186469,-2.35328 2.151675,-2.35328 1.928213,0 3.071405,2.19583 2.901588,5.57332 l -0.12074,2.40136 1.761237,-1.42475 c 0.968679,-0.78361 2.552772,-1.82951 3.520205,-2.32421 z m 22.883811,-0.58168 c -1.828438,-3.48042 -5.935105,-9.93295 -7.973829,-12.52874 -1.715289,-2.18398 -4.261897,-4.68116 -6.175761,-6.05588 -4.248236,-3.05149 -5.308691,-3.91829 -7.486918,-6.11971 -6.454867,-6.52358 -9.13611,-15.08883 -7.386668,-23.596772 0.592001,-2.879034 0.525503,-3.155686 -1.416989,-5.895312 -0.678415,-0.956811 -2.125812,-3.083452 -3.216439,-4.725866 -1.863759,-2.8067 -2.074641,-3.045613 -3.508142,-3.974438 -1.691567,-1.096037 -5.367025,-4.52856 -6.496245,-6.066866 -0.861203,-1.173192 -1.258858,-1.232148 -2.071101,-0.307054 l -0.6014562,0.685022 -0.1360751,7.125709 c -0.074841,3.91914 -0.1360751,14.033054 -0.1360751,22.475367 v 15.34965 l 0.5449274,0.93898 c 2.963279,5.10609 9.983157,11.51051 14.891894,13.58626 2.402947,1.01613 4.05277,1.20499 11.067361,1.26695 l 6.34463,0.056 1.432659,0.67638 c 1.205275,0.56902 1.844926,1.09701 4.030199,3.32665 2.55813,2.61007 2.626441,2.66169 4.502641,3.40255 2.013712,0.79517 4.657065,2.34242 4.684242,2.74187 0.01173,0.1724 0.04342,0.17045 0.115647,-0.007 0.05472,-0.13453 -0.399108,-1.19367 -1.008502,-2.35365 z M 105.26267,96.037305 c 0.0226,-0.34111 0.0282,-0.34111 0.11734,0 0.19611,0.750422 1.91008,-1.66732 3.62858,-5.118484 l 0.94361,-1.895002 -0.95421,-1.686644 c -0.52482,-0.927655 -1.31402,-2.218539 -1.75378,-2.868635 -0.91749,-1.356342 -2.00488,-3.566816 -2.00512,-4.076066 -4.1e-4,-0.917985 -0.37584,-0.412839 -0.57172,0.769302 -0.23623,1.425608 -1.83436,5.285724 -2.64153,6.380345 -1.31399,1.781932 -1.08786,2.693134 1.74904,7.047796 1.18541,1.819627 1.44629,2.073423 1.48779,1.447388 z M 58.753672,93.516323 c 0.408385,-0.21845 1.436401,-1.064526 2.28448,-1.880168 5.155139,-4.95797 9.264943,-6.464535 12.67597,-4.646737 0.636174,0.339028 7.310015,-5.706441 6.709375,-6.077657 -0.123499,-0.07633 -0.553991,-0.206309 -0.956648,-0.288846 -0.402654,-0.08254 -1.228918,-0.251598 -1.83614,-0.375684 -3.230432,-0.660145 -11.354228,-0.676743 -14.859869,-0.03036 -0.56283,0.103775 -2.082472,0.380376 -3.376981,0.614669 -3.711607,0.67176 -5.404774,1.042802 -5.520872,1.20985 -0.320113,0.460597 -5.386057,1.930738 -7.57772,2.199061 -1.294509,0.158485 -2.710845,0.357086 -3.147413,0.441334 l -0.793759,0.15318 1.273351,1.431112 c 0.700343,0.787108 1.925182,2.155399 2.721865,3.040645 l 1.448514,1.609537 1.602373,-0.139776 c 1.758298,-0.153379 2.065896,0.05175 0.937213,0.625005 -1.21208,0.615611 -1.237891,0.692207 -0.445461,1.321953 1.594072,1.266808 7.061259,1.755973 8.861722,0.792882 z m 99.683968,0.09783 c 2.73229,-0.508561 3.55548,-1.368211 2.04709,-2.137737 -1.26319,-0.644432 -1.02455,-0.858803 0.78138,-0.701909 1.94221,0.168733 3.60662,-0.873191 8.21001,-5.139494 l 0.68855,-0.638131 -2.73521,-0.348158 c -1.50436,-0.191487 -3.33385,-0.426849 -4.06553,-0.523023 -1.29385,-0.170071 -6.33904,-1.774448 -6.55439,-2.084309 -0.1161,-0.167048 -1.80927,-0.53809 -5.52087,-1.20985 -1.29451,-0.234293 -2.81415,-0.510894 -3.37698,-0.614669 -3.50564,-0.646383 -11.62944,-0.629785 -14.85987,0.03036 -0.60722,0.124086 -1.43349,0.293144 -1.83614,0.375684 -0.40266,0.08254 -0.83315,0.212518 -0.95665,0.288846 -0.60064,0.371216 6.0732,6.416685 6.70937,6.077657 3.4129,-1.818797 7.52563,-0.309692 12.68136,4.653231 2.69043,2.589821 3.94899,2.87217 8.78788,1.971502 z m 15.53314,-4.387815 c 5.31425,-1.29838 7.18031,-1.947712 8.52862,-2.967689 0.45068,-0.34093 1.51016,-1.073962 2.35441,-1.628957 4.7156,-3.099974 8.14883,-8.402558 10.6027,-16.375727 0.34643,-1.12566 0.86385,-2.805882 1.1498,-3.733823 2.8748,-9.328915 1.40887,-21.264109 -3.19978,-26.051773 -1.53935,-1.599139 -9.21875,-5.740052 -9.71841,-5.240394 -0.14501,0.145007 2.74127,2.546568 3.57155,2.971745 0.42155,0.215873 0.96026,0.656131 1.19714,0.978352 0.23688,0.322221 1.03263,1.241777 1.76833,2.043458 4.736,5.160733 6.24551,15.857479 3.44052,24.380368 -2.70698,8.225062 -5.47664,12.534692 -10.90444,16.967454 -0.80312,0.655895 -1.91033,1.630009 -2.46045,2.164697 -0.55011,0.534689 -1.16454,0.972162 -1.36538,0.972162 -0.20084,0 -0.95452,0.421328 -1.67485,0.936283 -1.71636,1.227019 -5.65585,3.792499 -7.39848,4.818049 -2.24243,1.319689 -2.25405,1.32035 4.10872,-0.234205 z M 39.743923,89.741372 c -0.141261,-0.170208 -0.728159,-0.647795 -1.304221,-1.061305 -0.576062,-0.41351 -1.512566,-1.14065 -2.081125,-1.615863 -0.568556,-0.475214 -1.950049,-1.480986 -3.069982,-2.235049 -1.119932,-0.754061 -2.45069,-1.75393 -2.957237,-2.221929 -0.506547,-0.467998 -1.584583,-1.386295 -2.395638,-2.04066 -5.388885,-4.347793 -8.208019,-8.727895 -10.918848,-16.96467 -2.804994,-8.522889 -1.295489,-19.219635 3.440513,-24.380368 0.7357,-0.801681 1.531447,-1.721237 1.768327,-2.043458 0.23688,-0.322221 0.775597,-0.762479 1.197148,-0.978352 0.830273,-0.425177 3.716558,-2.826738 3.57155,-2.971745 -0.49966,-0.499658 -8.179068,3.641255 -9.718415,5.240394 -4.60865,4.787664 -6.074577,16.722858 -3.19978,26.051773 0.285955,0.927941 0.803368,2.608163 1.149807,3.733823 2.45458,7.9755 5.896713,13.290507 10.602695,16.371646 0.844246,0.55275 1.85734,1.258494 2.251321,1.568319 1.416631,1.114035 4.643985,2.160111 11.844492,3.839136 0.04193,0.0098 -0.03935,-0.121486 -0.180607,-0.291692 z M 80.841457,77.219796 c 2.876135,-1.455192 3.041583,-2.485165 0.634745,-3.951528 -1.016191,-0.619113 -2.961984,-1.848111 -4.323982,-2.731105 -2.09364,-1.357326 -5.267644,-2.999529 -5.797402,-2.999529 -0.08268,0 -0.644535,-0.328038 -1.248568,-0.728973 -0.604036,-0.400934 -1.534562,-0.916896 -2.06784,-1.146577 -0.533277,-0.229684 -1.522192,-0.672599 -2.197588,-0.984257 -0.675396,-0.311659 -2.195037,-0.912172 -3.37698,-1.334475 -1.181944,-0.4223 -3.62258,-1.432975 -5.423636,-2.245941 -4.931141,-2.225834 -7.218018,-3.016717 -10.744939,-3.715985 -0.844245,-0.167386 -1.76524,-0.351736 -2.046655,-0.409671 -0.667363,-0.137388 -1.443804,0.552769 -1.288787,1.145562 0.06034,0.230732 0.305924,0.460929 0.545747,0.511551 0.239823,0.05062 0.988639,0.195677 1.664035,0.322347 1.958585,0.367333 5.843851,1.377656 6.958627,1.809519 1.860524,0.720764 5.912027,2.598963 7.367958,3.415642 0.787962,0.441995 1.689773,0.936216 2.004025,1.098268 1.097805,0.566115 3.370605,2.655197 4.505789,4.141572 1.861879,2.437885 5.434362,6.1903 6.041627,6.345918 0.300932,0.07711 1.007648,0.287115 1.570478,0.466664 5.378558,1.715819 5.702832,1.760307 7.223346,0.990998 z m 51.617983,0.342055 c 0.89714,-0.193894 2.52936,-0.667549 4.60498,-1.33632 0.56283,-0.181346 1.59136,-0.437395 2.28563,-0.568997 1.05103,-0.199231 2.77785,-1.364938 2.02194,-1.364938 -0.20787,0 0.44207,-1.11675 1.15474,-1.984108 0.37271,-0.453602 1.23025,-1.58978 1.90564,-2.524837 1.19313,-1.651835 3.54128,-3.883761 4.73353,-4.499223 0.32327,-0.166884 1.23247,-0.665057 2.02043,-1.107052 1.45594,-0.816679 5.50744,-2.694878 7.36796,-3.415642 1.11478,-0.431863 5.00004,-1.442186 6.95863,-1.809519 0.6754,-0.12667 1.42421,-0.271727 1.66403,-0.322347 0.23983,-0.05062 0.48541,-0.280819 0.54575,-0.511551 0.15502,-0.592793 -0.62142,-1.28295 -1.28879,-1.145562 -0.28141,0.05794 -1.20241,0.242285 -2.04665,0.409671 -3.52692,0.699268 -5.8138,1.490151 -10.74494,3.715985 -1.80106,0.812966 -4.24169,1.823641 -5.42363,2.245941 -1.18195,0.422303 -2.70159,1.022816 -3.37699,1.334475 -0.67539,0.311658 -1.66431,0.754573 -2.19758,0.984257 -0.53328,0.229681 -1.46381,0.745643 -2.06784,1.146577 -0.60404,0.400935 -1.16589,0.728973 -1.24857,0.728973 -0.52976,0 -3.70376,1.642203 -5.7974,2.999529 -1.362,0.882994 -3.30779,2.111992 -4.32399,2.731105 -2.40557,1.465595 -2.24895,2.468743 0.61595,3.944926 1.19919,0.617903 1.31844,0.633668 2.63717,0.348657 z m 14.22425,-2.971315 c 4.66138,-0.93984 7.21596,-2.489805 9.89708,-6.004933 0.52873,-0.693198 4.26076,-3.91077 6.31245,-5.442286 1.5675,-1.170077 1.19236,-1.385856 -1.4398,-0.828157 -2.40964,0.510553 -6.62528,2.805385 -10.46164,5.694928 -1.07479,0.809528 -2.25355,1.693902 -2.61946,1.965276 -1.35095,1.001909 -4.49746,5.301319 -3.70308,5.059904 0.20742,-0.06303 1.11393,-0.263165 2.01445,-0.444732 z M 52.025901,74.253168 c 0,-0.770795 -1.104858,-2.287203 -3.476313,-4.771212 -1.462014,-1.531405 -3.398309,-3.829674 -4.452064,-5.284342 -0.251949,-0.347804 -2.441023,-2.764949 -4.864612,-5.371434 -2.423588,-2.606484 -4.710567,-5.143401 -5.082176,-5.637595 -3.707866,-4.930983 -3.891729,-5.217496 -4.713776,-7.345494 -1.3513,-3.498048 -1.021631,-6.779274 0.948913,-9.444576 0.531146,-0.718412 0.344274,-0.969338 -0.907882,-1.219069 l -0.886289,-0.176762 -2.055593,2.12773 c -3.087074,3.195411 -3.330972,3.769189 -3.877515,9.122008 -0.633918,6.208549 0.307041,9.146962 4.228099,13.203457 l 2.454224,2.538996 2.286044,0.744551 c 1.257323,0.409502 2.378143,0.817004 2.490709,0.905558 0.260453,0.204893 5.102538,1.800162 5.986466,1.972296 0.829511,0.161535 0.829325,0.272611 -0.0014,0.833621 -1.607265,1.085427 -3.948636,1.331282 -7.193716,0.755374 -0.606831,-0.107697 -0.761861,-0.08126 -0.643785,0.109794 0.153654,0.24862 2.876324,2.063555 3.095635,2.063555 0.06234,0 0.629694,0.23618 1.260778,0.524844 0.631082,0.288662 2.720445,1.060761 4.643025,1.715772 1.922581,0.655012 4.140298,1.444777 4.92826,1.755035 4.158633,1.637449 5.832966,1.889446 5.832966,0.877893 z m 13.507923,0.483434 c 0,-0.09294 -0.243071,-0.392266 -0.540159,-0.665163 -0.297087,-0.272895 -1.228857,-1.325068 -2.070601,-2.338162 -3.223025,-3.879126 -4.446835,-4.888161 -9.15802,-7.550827 -3.956286,-2.236011 -8.679411,-3.057324 -5.975741,-1.039133 2.432572,1.815827 5.858302,4.865537 7.101915,6.322385 2.698198,3.160839 5.212863,4.516863 9.823944,5.297521 0.281415,0.04764 0.580738,0.09917 0.665163,0.114498 0.08442,0.01533 0.153499,-0.04817 0.153499,-0.141119 z m 95.377426,-0.138864 c 0.65342,-0.169317 2.04821,-0.641734 3.09952,-1.049811 1.05131,-0.408078 3.4845,-1.276707 5.40708,-1.930288 1.92258,-0.653581 4.01194,-1.424509 4.64303,-1.713171 0.63108,-0.288664 1.19843,-0.524844 1.26078,-0.524844 0.21931,0 2.94198,-1.814935 3.09563,-2.063555 0.11808,-0.191051 -0.037,-0.217491 -0.64379,-0.109794 -3.24508,0.575908 -5.58645,0.330053 -7.19371,-0.755374 -0.83072,-0.56101 -0.83091,-0.672086 -0.001,-0.833621 0.88392,-0.172134 5.72601,-1.767403 5.98646,-1.972296 0.11257,-0.08855 1.23339,-0.496056 2.49071,-0.905558 l 2.28605,-0.744551 2.45422,-2.538996 c 3.92109,-4.056495 4.86205,-6.994908 4.22813,-13.203457 -0.54654,-5.352819 -0.79044,-5.926597 -3.87751,-9.122008 l -2.05559,-2.12773 -0.88629,0.176762 c -1.25216,0.249731 -1.43903,0.500657 -0.90789,1.219069 1.97055,2.665302 2.30022,5.946528 0.94892,9.444576 -0.82205,2.127998 -1.00591,2.414511 -4.71378,7.345494 -0.37161,0.494194 -2.65859,3.031111 -5.08217,5.637595 -2.42359,2.606485 -4.61267,5.02363 -4.86462,5.371434 -1.05375,1.454668 -2.99005,3.752937 -4.45206,5.284342 -4.29588,4.499766 -4.65547,6.005566 -1.22169,5.115782 z M 85.205791,71.655023 C 86.225897,70.634917 86.229454,70.650439 84.721214,69.54079 83.315343,68.506453 81.257957,66.465703 79.724198,64.584178 78.618028,63.227193 68.02034,52.566101 66.443515,51.22404 c -4.04083,-3.439217 -9.43583,-7.308544 -13.923367,-9.985922 -0.754684,-0.450264 -1.804751,-1.10949 -2.333479,-1.464947 -1.20619,-0.810901 -3.796128,-2.126442 -4.607731,-2.340464 -0.337698,-0.08905 -1.120544,-0.339088 -1.739657,-0.555639 -2.874527,-1.005431 -2.873284,-1.001952 1.023328,2.863739 3.2708,3.244845 5.548631,5.231486 6.34463,5.533556 1.175337,0.446021 8.297753,7.007877 13.297611,12.251039 6.465671,6.780308 9.094935,9.1145 11.825003,10.49793 0.558919,0.283224 1.282621,0.732183 1.608223,0.997681 2.09945,1.711906 5.090131,3.360947 6.193221,3.414901 0.153949,0.0075 0.637472,-0.343871 1.074494,-0.780891 z m 42.424549,0.503682 c 0.89426,-0.269133 3.72941,-2.008598 5.11411,-3.137692 0.3256,-0.265498 1.0493,-0.714457 1.60822,-0.997681 2.73007,-1.38343 5.35934,-3.717622 11.82501,-10.49793 5.25474,-5.510455 12.10897,-11.789547 13.43123,-12.304219 0.44865,-0.174633 0.77859,-0.553762 0.78424,-0.901165 0.004,-0.265316 5.99449,-5.06883 8.1058,-6.500029 0.9467,-0.641745 1.99757,-1.395342 2.33527,-1.674657 l 0.614,-0.507847 -0.81866,0.185341 c -3.94243,0.892546 -7.45641,2.241523 -9.84131,3.777968 -0.69891,0.450264 -1.88438,1.18706 -2.63439,1.637324 -4.58163,2.750585 -9.88854,6.55906 -13.91485,9.985922 -1.57682,1.342061 -12.17451,12.003153 -13.28068,13.360138 -1.53376,1.881525 -3.59115,3.922275 -4.99702,4.956612 -1.50824,1.109649 -1.50468,1.094127 -0.48457,2.114233 0.90447,0.90447 0.858,0.893602 2.1536,0.503682 z M 85.090288,64.314153 c 0.708648,-1.729356 0.922067,-4.589675 0.439036,-5.884133 -1.803498,-4.833127 -2.134565,-5.358223 -5.653207,-8.966461 -3.087465,-3.166077 -6.911271,-6.265229 -9.172189,-7.433951 -0.648519,-0.335236 -1.429429,-0.774231 -1.735352,-0.975548 -2.462028,-1.620157 -10.831232,-4.8488 -15.753709,-6.077411 -5.416829,-1.351998 -16.259745,-2.966895 -15.13473,-2.254102 0.153168,0.09705 0.466894,0.127177 0.697167,0.06696 0.254759,-0.06662 0.368222,-0.02785 0.289804,0.09904 -0.073,0.11811 0.467757,0.455692 1.247156,0.778574 0.756816,0.313527 1.652328,0.689584 1.990026,0.83568 0.337698,0.146097 1.581041,0.585802 2.762984,0.977122 6.009929,1.989777 14.002393,6.232192 19.227724,10.206114 0.850203,0.646588 1.730023,1.313981 1.955155,1.483092 3.263252,2.451254 8.668902,7.513979 9.637944,9.026533 0.366564,0.572158 1.210087,1.585253 1.874497,2.25132 1.279699,1.282895 2.466878,2.59223 4.963132,5.473818 1.83912,2.123017 1.66749,2.094465 2.364562,0.393357 z M 127.9568,63.920796 c 2.49625,-2.881588 3.68343,-4.190923 4.96313,-5.473818 0.66441,-0.666067 1.50794,-1.679162 1.8745,-2.25132 0.96904,-1.512554 6.37469,-6.575279 9.63794,-9.026533 0.22514,-0.169111 1.10496,-0.836504 1.95516,-1.483092 5.22533,-3.973922 13.21779,-8.216337 19.22772,-10.206114 1.18195,-0.39132 2.42529,-0.831025 2.76299,-0.977122 0.33769,-0.146096 1.23321,-0.522153 1.99002,-0.83568 0.7794,-0.322882 1.32015,-0.660464 1.24716,-0.778574 -0.0784,-0.126882 0.035,-0.165656 0.2898,-0.09904 0.23028,0.06022 0.544,0.03009 0.69717,-0.06696 1.12501,-0.712793 -9.7179,0.902104 -15.13473,2.254102 -4.92248,1.228611 -13.29168,4.457254 -15.75371,6.077411 -0.30592,0.201317 -1.08683,0.640312 -1.73535,0.975548 -5.17676,2.675987 -12.36078,9.985558 -14.00664,14.251424 -1.13707,2.947134 -1.12741,2.902247 -1.03503,4.809639 0.21108,4.358432 1.03061,5.126463 3.01987,2.830125 z M 65.774236,62.062832 C 64.734937,60.605767 54.223712,50.964068 49.843537,47.449978 c -2.770926,-2.223036 -4.21936,-3.236468 -4.631532,-3.240563 -0.201812,-0.002 -0.800459,-0.40875 -1.330325,-0.903877 -1.999429,-1.868338 -7.683728,-5.364432 -7.978312,-4.907011 -0.2733,0.424374 -0.962404,1.350365 -1.456131,1.956686 -4.942901,6.070154 0.846494,11.770057 16.043673,15.795674 4.649734,1.231679 11.410265,3.98952 14.53125,5.92777 1.076189,0.668353 1.237666,0.664956 0.752076,-0.01582 z m 80.222104,-0.18671 c 3.52386,-2.065282 9.54275,-4.492815 14.19528,-5.725235 15.19718,-4.025617 20.98657,-9.72552 16.04367,-15.795674 -0.49373,-0.606321 -1.18283,-1.532312 -1.45613,-1.956686 -0.27373,-0.425043 -3.76082,1.688159 -9.54212,5.782597 -1.05226,0.745232 -2.1114,1.490595 -2.35365,1.656357 -3.72419,2.548375 -19.22195,16.788181 -18.27125,16.788181 0.0579,0 0.6808,-0.337293 1.3842,-0.74954 z m -44.51221,-2.436447 c 1.02103,-0.591129 1.61635,-1.712227 1.82151,-3.430249 0.13979,-1.170684 0.15228,-1.189634 0.67968,-1.031227 0.68919,0.207 2.0227,0.207 2.71188,0 0.52741,-0.158407 0.5399,-0.139457 0.67969,1.031227 0.30378,2.54398 1.47127,3.777123 3.84851,4.064935 l 1.17682,0.14248 0.0298,-1.609741 c 0.0633,-3.427711 -0.14149,-4.040054 -0.84734,-2.533028 -0.49501,1.056868 -1.22439,1.521506 -1.67735,1.068538 -0.35355,-0.353543 0.61143,-4.954888 1.03912,-4.954888 1.67595,0 0.79337,-7.773949 -0.90146,-7.940209 -1.3654,-0.133943 -3.31737,1.180013 -3.09127,2.080865 l 0.13958,0.556123 1.7171,-0.128536 c 2.59206,-0.194031 2.78185,0.591047 0.98093,4.057622 -2.50263,4.817274 -6.39742,4.817274 -8.90005,0 -1.800923,-3.466575 -1.611131,-4.251653 0.98093,-4.057622 l 1.7171,0.128536 0.13958,-0.556123 c 0.2261,-0.900852 -1.72588,-2.214808 -3.09127,-2.080865 -1.699164,0.166686 -2.328247,4.825953 -1.015858,7.523899 0.638698,1.312998 1.020748,3.342943 0.825268,4.384913 -0.17566,0.936355 -0.973454,0.548901 -1.55796,-0.756634 l -0.356454,-0.796165 -0.177303,1.094584 c -0.09752,0.602023 -0.14696,1.864103 -0.109875,2.804627 l 0.06743,1.71004 1.160564,-0.140448 c 0.638308,-0.07725 1.543138,-0.361939 2.010738,-0.632654 z m -7.505903,-6.017571 c 1.106393,-1.724163 2.185342,-4.938899 2.371989,-7.067349 0.05922,-0.675396 0.142353,-1.596391 0.184729,-2.046655 0.04238,-0.450264 0.142492,-1.693607 0.222482,-2.762984 0.07999,-1.069377 0.25584,-2.174571 0.39078,-2.455986 0.134942,-0.281415 0.606039,-1.248054 1.046886,-2.148089 3.032927,-6.192026 13.805047,-4.952957 15.092567,1.736032 0.0545,0.282915 0.25712,0.928837 0.45036,1.435384 0.25605,0.671207 0.36554,1.670359 0.40369,3.683979 0.0706,3.726177 0.99477,7.182429 2.58189,9.655744 0.72504,1.129883 0.80913,1.107423 1.28584,-0.343463 2.1439,-6.525181 15.47594,-17.782467 26.41809,-22.30687 2.44501,-1.010974 2.61207,-1.318954 2.1642,-3.98988 -0.99354,-5.925105 -4.92555,-10.474975 -10.10092,-11.688128 -1.71369,-0.401706 -4.23663,-1.345869 -6.79435,-2.542662 -3.03605,-1.420607 -0.98065,-1.326555 -28.99012,-1.326555 -28.732782,0 -25.625161,-0.206928 -25.889814,1.723932 -0.142052,1.036372 -0.415919,1.336457 -1.639823,1.7968 -4.574313,1.720526 -7.50334,6.345815 -8.02994,12.680249 -0.09678,1.164119 -0.234891,2.255762 -0.306923,2.425874 -0.09889,0.233535 0.183116,0.430532 1.151338,0.804278 10.406192,4.016937 24.519823,15.876826 26.684007,22.422962 0.543088,1.642708 0.462464,1.623316 1.303042,0.313387 z m 7.553953,-10.469806 c 1.10313,-0.5656 2.01343,-1.228943 2.75874,-2.010325 l 1.11235,-1.166184 0.84591,0.982038 c 2.77698,3.223879 5.23478,3.734345 4.82422,1.001956 -0.25985,-1.729392 -0.486,-2.248643 -0.9835,-2.258189 -0.23627,-0.0045 -2.30686,-1.346257 -3.65966,-2.371434 -0.95529,-0.723931 -1.20392,-0.830766 -1.39567,-0.599713 -0.34386,0.414323 -4.12169,2.901455 -4.64598,3.058668 -0.24751,0.07422 -0.494122,0.291413 -0.548021,0.482645 -0.07931,0.281376 -0.37146,2.173987 -0.42226,2.735461 -0.0068,0.07504 -0.08142,0.205516 -0.165844,0.289941 -0.926811,0.926813 0.347471,0.845837 2.279715,-0.144864 z M 13.34933,30.287525 c 2.863163,-0.542988 3.919774,-3.147211 2.419198,-5.962579 -1.786157,-3.351175 -6.1027838,-3.876733 -6.594314,-0.802872 -0.1636504,1.023413 -0.8194383,2.205191 -1.620752,2.920711 l -0.6210751,0.554578 0.5403861,0.775748 c 0.9603253,1.378586 2.288141,2.256654 3.798431,2.511858 0.520992,0.08804 0.957712,0.170897 0.970489,0.184137 0.01278,0.01324 0.511214,-0.06847 1.107637,-0.181581 z m 187.77539,-0.563311 c 3.09459,-1.604048 3.6301,-4.559626 1.25671,-6.936065 -1.70332,-1.705516 -3.66308,-1.918053 -5.62089,-0.609596 -4.91843,3.28711 -0.88251,10.265217 4.36418,7.545661 z M 61.165229,27.06389 c 0.08142,-5.120524 2.415094,-10.301286 5.694232,-12.641231 1.318887,-0.941137 2.136227,-1.724603 1.827233,-1.751502 -5.167302,-0.44982 -7.396683,0.872407 -10.72474,6.360754 -1.76425,2.909451 -3.303029,4.692131 -4.98463,5.774709 l -0.992898,0.639207 0.481234,0.375297 c 0.264679,0.206413 0.711485,0.435367 0.9929,0.508782 0.281415,0.07342 1.178963,0.448529 1.994549,0.833584 0.815588,0.385056 2.427329,0.960594 3.581646,1.278978 1.15432,0.318381 2.098761,0.587177 2.098761,0.597322 0,0.01015 0.01427,-0.87901 0.03171,-1.9759 z m 92.272431,0.896826 c 1.01309,-0.266626 2.09902,-0.545391 2.41319,-0.61948 0.31416,-0.07409 0.52081,-0.216239 0.45922,-0.315891 -0.0616,-0.09965 0.23397,-0.395735 0.65679,-0.657965 0.75415,-0.467711 0.83984,-0.504177 1.30645,-0.555924 0.12688,-0.01406 -0.42976,-0.720867 -1.23698,-1.570659 -1.69321,-1.782505 -2.42416,-2.868155 -3.86443,-5.739667 -2.20875,-4.403655 -4.38834,-5.759715 -9.86519,-6.137766 l -1.94432,-0.134211 1.344,1.405891 c 5.22999,5.470832 7.86159,9.783133 8.29204,13.587826 0.15951,1.409896 0.0321,1.371353 2.43923,0.737846 z m 29.47945,-1.327915 c 1.36715,-1.624768 5.14532,-3.582659 8.75061,-4.534661 2.15155,-0.568135 3.73558,-2.164604 4.46291,-4.497958 0.33704,-1.081246 0.90136,-6.830961 0.69818,-7.113529 -0.0204,-0.0284 -0.60319,0.231227 -1.29505,0.576954 -0.83734,0.418421 -2.02901,0.764153 -3.56412,1.034031 -6.23029,1.095311 -8.39236,3.339436 -9.44129,9.79959 -0.7723,4.75652 -0.78482,5.150459 -0.16848,5.305145 0.0354,0.0089 0.28617,-0.24742 0.55724,-0.569572 z m -2.80195,-1.307426 c 0.8231,-4.889196 0.75147,-6.081569 -0.36594,-6.091687 -0.42739,-0.0039 -4.08958,-1.238454 -5.7155,-1.926792 -2.90869,-1.231397 -2.92778,4.055646 -0.0272,7.529552 l 0.92099,1.103032 2.04666,0.302234 c 3.18007,0.469609 2.89358,0.553188 3.14097,-0.916339 z M 34.47248,26.095329 c 2.785799,-0.316704 4.744814,-4.777188 3.686472,-8.393744 -0.366973,-1.25402 -5.643348,0.19766 -6.726413,1.850627 -0.697881,1.065101 0.638384,7.015438 1.520769,6.771925 0.190136,-0.05247 0.873762,-0.155436 1.519172,-0.228808 z m -6.628204,-3.49731 C 29.032076,19.113226 28.944383,18.1394 27.234,15.820855 25.164967,13.016135 23.659672,12.004337 21.223744,11.781005 18.616049,11.541927 16.106431,10.701038 14.943176,9.6765998 14.330044,9.136635 14.162784,9.5594229 14.162784,11.649223 c 0,5.69702 1.911685,9.596983 5.014305,10.229514 2.008481,0.409468 3.696038,1.023458 5.690781,2.070502 2.217205,1.163814 2.101199,1.216479 2.976406,-1.35122 z M 165.099,23.12744 c 3.63282,-1.758615 4.50041,-11.112767 1.1086,-11.952547 -1.34242,-0.332368 -2.15985,-0.02163 -2.90005,1.102426 -1.43557,2.18004 -3.44975,2.471232 -6.59525,0.953483 -1.86735,-0.901026 -2.91283,-1.157985 -4.66329,-1.146147 l -1.68134,0.01137 0.60069,0.449127 c 1.33,0.994441 2.16536,1.852877 2.78773,2.864749 4.02072,6.537059 8.07842,9.297855 11.34291,7.717539 z M 51.425251,22.676912 c 1.85122,-0.925066 3.667153,-2.835853 5.506368,-5.793989 1.351842,-2.17426 3.234836,-4.400308 3.722179,-4.400308 0.095,0 0.17272,-0.09529 0.17272,-0.211752 0,-0.175425 -8.693937,-0.177859 -10.267536,-0.0029 -0.786356,0.08744 -2.732152,-1.107714 -4.103507,-2.5204794 L 45.057931,8.3077634 43.913049,8.906744 c -2.26926,1.187233 -2.873121,2.380361 -2.676675,5.288649 0.442137,6.545595 5.55155,10.798818 10.188877,8.481518 z M 180.60659,15.56252 c 0.74994,-0.839329 0.75291,-3.416888 0.006,-4.86507 -1.66551,-3.2275456 -7.01499,-1.609671 -7.01499,2.121583 0,2.757073 5.18422,4.786191 7.00938,2.743487 z M 35.436803,15.762973 c 1.722892,-0.878954 2.117041,-2.591101 1.069283,-4.644877 -1.888541,-3.7018465 -6.296129,-3.1368676 -6.905318,0.885145 -0.464515,3.066853 2.920114,5.247324 5.836035,3.759732 z m -7.505524,-4.252519 c 0.141485,-1.9617222 0.938796,-3.8177589 2.281609,-5.3112904 0.515423,-0.573274 0.937132,-1.1061121 0.937132,-1.1840843 0,-0.077972 -3.968419,-0.1143515 -8.818708,-0.080843 l -8.81871,0.060926 0.990254,0.94795 c 0.54464,0.5213727 1.348708,1.3873193 1.786818,1.924326 1.044558,1.2803497 1.643035,1.5005164 4.709867,1.7326553 3.136142,0.2373854 4.645682,0.8886114 5.851454,2.5243574 0.929441,1.260876 0.945733,1.251617 1.080284,-0.613997 z M 184.15678,11.204392 c 0.97891,-1.9079213 2.25317,-2.3995116 6.73466,-2.5981325 2.55998,-0.113459 3.42969,-0.2262211 3.98503,-0.5166818 0.75431,-0.3945238 3.07593,-2.5089436 3.07593,-2.8014091 0,-0.095431 -3.91423,-0.1735113 -8.69828,-0.1735113 -5.99603,0 -8.69829,0.067464 -8.69829,0.2171591 0,0.1194374 0.36271,0.98773 0.80601,1.9295392 0.4433,0.941809 1.0157,2.6000817 1.27199,3.6850504 0.51917,2.197843 0.52698,2.199166 1.52295,0.257986 z M 160.65784,9.7680043 c 1.03053,-1.0969582 1.32053,-2.640756 0.65499,-3.4868562 -1.0609,-1.3487211 -3.51572,-1.4539036 -29.20189,-1.2512273 l -18.05206,0.1424396 0.32781,0.6363114 c 0.18029,0.3499711 0.49829,0.756658 0.70666,0.9037484 0.20837,0.1470905 0.37886,0.3883303 0.37886,0.5360886 0,0.2123197 1.2338,0.2976675 5.88413,0.4070319 3.23627,0.076109 9.61416,0.2934983 14.17308,0.4830868 10.01869,0.4166391 12.49171,0.4254999 14.65563,0.052511 1.51148,-0.2605288 1.80333,-0.2524582 3.27465,0.090555 1.54214,0.3595243 2.00199,0.5186994 3.8666,1.3383955 1.22167,0.537057 1.3687,0.577478 2.16448,0.595048 0.51002,0.01126 0.86373,-0.124253 1.16706,-0.4471327 z M 78.734749,7.9994801 c 2.363886,-0.1109406 7.429357,-0.305057 11.256602,-0.4313698 8.214203,-0.2710983 9.107615,-0.5157808 9.107615,-2.4943411 0,-0.090978 -11.167062,-0.1420213 -24.815692,-0.1134295 l -24.815692,0.051985 0.0147,1.0013499 c 0.01289,0.8782917 0.10473,1.0838651 0.747361,1.6727931 l 0.732672,0.6714435 11.737233,-0.07836 c 6.455475,-0.043098 13.671319,-0.16913 16.035206,-0.2800706 z"
       id="path12643" /></g></svg>
