<?xml version="1.0" encoding="utf-8"?>
<!-- Generator: Adobe Illustrator 26.3.1, SVG Export Plug-In . SVG Version: 6.00 Build 0)  -->
<svg version="1.1" id="Layer_1" xmlns="http://www.w3.org/2000/svg" xmlns:xlink="http://www.w3.org/1999/xlink" x="0px" y="0px"
	 width="1440px" height="864px" viewBox="0 0 1440 864" style="enable-background:new 0 0 1440 864;" xml:space="preserve">
<style type="text/css">
	.st0{fill:none;stroke:#FF9999;stroke-miterlimit:10;}
	.st1{fill:none;stroke:#000088;stroke-miterlimit:10;}
</style>
<g id="Layer_1_00000070800200376030197310000014171184189769570958_">
	<path class="st0" d="M295.4,431.8H72.5c-3.9,0-7-3.1-7-7V82c0-3.9,3.1-7,7-7h222.9c3.9,0,7,3.1,7,7v342.9
		C302.4,428.7,299.3,431.8,295.4,431.8z"/>
</g>
<path class="st1" d="M190.8,205.1v96.4l0.1,0.9l0.3,0.9l0.4,0.8l0.6,0.7l0.7,0.6l0.8,0.4l0.9,0.3l0.9,0.1h96.2l0.9-0.1l0.9-0.3
	l0.8-0.4l0.7-0.6l0.6-0.7l0.4-0.8l0.3-0.9l0.1-0.9v-96.4l-0.1-0.9l-0.3-0.9l-0.4-0.8l-0.6-0.7l-0.7-0.6l-0.8-0.4l-0.9-0.3l-0.9-0.1
	h-96.4l-0.9,0.1l-0.9,0.3l-0.8,0.4l-0.7,0.6l-0.6,0.7l-0.4,0.8l-0.3,0.9L190.8,205.1z"/>
<path class="st1" d="M296.2,324.2l-0.1-0.9l-0.3-0.9l-0.4-0.8l-0.6-0.7l-0.7-0.6l-0.8-0.4l-0.9-0.3l-0.9-0.1h-96.4l-0.9,0.1
	l-0.9,0.3l-0.8,0.4l-0.7,0.6l-0.6,0.7l-0.4,0.8l-0.3,0.9l-0.1,0.9v96.4l0.1,0.9l0.3,0.9l0.4,0.8l0.6,0.7l0.7,0.6l0.8,0.4l0.9,0.3
	l0.9,0.1h96.6l0.9-0.1l0.9-0.3l0.8-0.4l0.7-0.6l0.6-0.7l0.4-0.8l0.3-0.9l0.1-0.9v-96.4H296.2z"/>
<path class="st1" d="M190.8,182.5l0.1,0.9l0.3,0.9l0.4,0.8l0.6,0.7l0.7,0.6l0.8,0.4l0.9,0.3l0.9,0.1h96.2l0.9-0.1l0.9-0.3l0.8-0.4
	l0.7-0.6l0.6-0.7l0.4-0.8l0.3-0.9l0.1-0.9V86.1l-0.1-0.9l-0.3-0.9l-0.4-0.8l-0.6-0.7l-0.7-0.6l-0.8-0.4l-0.9-0.3l-0.9-0.1h-96.4
	l-0.9,0.1l-0.9,0.3l-0.8,0.4l-0.7,0.6l-0.6,0.7l-0.4,0.8l-0.3,0.9l-0.1,0.9v96.4H190.8z"/>
<path class="st1" d="M177.1,182.5V86.1l-0.1-0.9l-0.3-0.9l-0.4-0.8l-0.6-0.7l-0.7-0.6l-0.8-0.4l-0.9-0.3l-0.9-0.1H76.2l-0.9,0.1
	l-0.8,0.4l-0.8,0.4L73,82.9l-0.6,0.7L72,84.4l-0.3,0.9v0.8v96.4l0.1,0.9l0.3,0.9l0.4,0.8l0.6,0.7l0.7,0.6l0.8,0.4l0.9,0.3l0.9,0.1
	h96.4l0.9-0.1l0.9-0.3l0.8-0.4l0.7-0.6l0.6-0.7l0.4-0.8l0.3-0.9L177.1,182.5z"/>
<path class="st1" d="M177.1,301.5v-96.4l-0.1-0.9l-0.3-0.9l-0.4-0.8l-0.6-0.7l-0.7-0.6l-0.8-0.4l-0.9-0.3l-0.9-0.1H76.2l-0.9,0.1
	l-0.9,0.3l-0.8,0.4l-0.7,0.6l-0.6,0.7l-0.4,0.8l-0.3,0.9l-0.1,0.9v96.4l0.1,0.9l0.3,0.9l0.4,0.8l0.6,0.7l0.7,0.6l0.8,0.4l0.9,0.3
	l0.9,0.1h96.4l0.9-0.1l0.9-0.3l0.8-0.4l0.7-0.6l0.6-0.7l0.4-0.8l0.3-0.9L177.1,301.5z"/>
<path class="st1" d="M177.1,420.6v-96.4l-0.1-0.9l-0.3-0.9l-0.4-0.8l-0.6-0.7l-0.7-0.6l-0.8-0.4l-0.9-0.3l-0.9-0.1H76.2l-0.9,0.1
	l-0.9,0.3l-0.8,0.4l-0.7,0.6l-0.6,0.7l-0.4,0.8l-0.3,0.9l-0.1,0.9v96.4l0.1,0.9l0.3,0.9l0.4,0.8l0.6,0.7l0.7,0.6l0.8,0.4l0.9,0.3
	l0.9,0.1h96.4l0.9-0.1l0.9-0.3l0.8-0.4l0.7-0.6l0.6-0.7l0.4-0.8l0.3-0.9L177.1,420.6z"/>
</svg>
