<?xml version="1.0" encoding="utf-8"?>
<!-- Generator: Fusion 360, Shaper Origin Export Add-In, Version 1.6.3  -->
<svg xmlns="http://www.w3.org/2000/svg" xmlns:xlink="http://www.w3.org/1999/xlink" xmlns:shaper="http://www.shapertools.com/namespaces/shaper" shaper:fusionaddin="version:1.6.3" width="12.1199036cm" height="12.1199036cm" version="1.1" x="0cm" y="0cm" viewBox="0 0 12.1199036 12.1199036" enable-background="new 0 0 12.1199036 12.1199036" xml:space="preserve"><path d="M4.0150472,7.8952897 L4.0150472,4.4951897 4.0181192,4.4639935 4.0272192,4.4339976 4.0419952,4.4063525 4.0618812,4.3821206 4.0861131,4.3622346 4.1137582,4.3474588 4.1437541,4.3383589 4.1749502,4.3352866 7.5750502,4.3352866 7.6062464,4.3383589 7.6362423,4.3474588 7.6638874,4.3622346 7.6881193,4.3821206 7.7080053,4.4063525 7.7227811,4.4339976 7.731881,4.4639935 7.7349533,4.4951897 7.7349533,7.8952897 7.731881,7.9264858 7.7227811,7.9564817 7.7080053,7.9841268 7.6881193,8.0083587 7.6638874,8.0282447 7.6362423,8.0430207 7.6062464,8.0521207 7.5750502,8.0551927 4.1749502,8.0551927 4.1437541,8.0521207 4.1137582,8.0430207 4.0861131,8.0282447 4.0618812,8.0083587 4.0419952,7.9841268 4.0272192,7.9564817 4.0181192,7.9264858 4.0150472,7.8952897z" transform="matrix(1,0,0,-1,0.1849529,12.2551928)" fill="rgb(0,0,0)" shaper:cutDepth="0" stroke-linecap="round" stroke-linejoin="round" /><path d="M8.3749498,8.0551927 L8.3437542,8.0521207 8.3137583,8.0430207 8.2861131,8.0282447 8.2618812,8.0083587 8.2419952,7.9841268 8.227219,7.9564817 8.218119,7.9264858 8.2150468,7.8952897 8.2150468,4.4951897 8.218119,4.4639935 8.227219,4.4339976 8.2419952,4.4063525 8.2618812,4.3821206 8.2861131,4.3622346 8.3137583,4.3474588 8.3437542,4.3383589 8.3749498,4.3352866 11.775051,4.3352866 11.8062505,4.3383589 11.8362397,4.3474588 11.8638905,4.3622346 11.8881205,4.3821206 11.9080008,4.4063525 11.9227799,4.4339976 11.9318808,4.4639935 11.9349507,4.4951897 11.9349507,7.8952897 11.9318808,7.9264858 11.9227799,7.9564817 11.9080008,7.9841268 11.8881205,8.0083587 11.8638905,8.0282447 11.8362397,8.0430207 11.8062505,8.0521207 11.775051,8.0551927 8.3749498,8.0551927z" transform="matrix(1,0,0,-1,0.1849529,12.2551928)" fill="rgb(0,0,0)" shaper:cutDepth="0" stroke-linecap="round" stroke-linejoin="round" /><path d="M7.7349533,3.6952901 L7.731881,3.7264857 7.7227811,3.7564816 7.7080053,3.7841268 7.6881193,3.8083587 7.6638874,3.8282447 7.6362423,3.8430209 7.6062464,3.8521209 7.5750502,3.8551931 4.1749502,3.8551931 4.1437541,3.8521209 4.1137582,3.8430209 4.0861131,3.8282447 4.0618812,3.8083587 4.0419952,3.7841268 4.0272192,3.7564816 4.0181192,3.7264857 4.0150472,3.6952901 4.0150472,0.2951889 4.0181192,0.2639894 4.0272192,0.2340002 4.0419952,0.2063494 4.0618812,0.1821194 4.0861131,0.1622391 4.1137582,0.14746 4.1437541,0.1383591 4.1749502,0.1352892 7.5750502,0.1352892 7.6062464,0.1383591 7.6362423,0.14746 7.6638874,0.1622391 7.6881193,0.1821194 7.7080053,0.2063494 7.7227811,0.2340002 7.731881,0.2639894 7.7349533,0.2951889 7.7349533,3.6952901z" transform="matrix(1,0,0,-1,0.1849529,12.2551928)" fill="rgb(0,0,0)" shaper:cutDepth="0" stroke-linecap="round" stroke-linejoin="round" /><path d="M8.3749498,3.8551931 L8.3437542,3.8521209 8.3137583,3.8430209 8.2861131,3.8282447 8.2618812,3.8083587 8.2419952,3.7841268 8.227219,3.7564816 8.218119,3.7264857 8.2150468,3.6952901 8.2150468,0.2951889 8.218119,0.2639894 8.227219,0.2340002 8.2419952,0.2063494 8.2618812,0.1821194 8.2861131,0.1622391 8.3137583,0.14746 8.3437542,0.1383591 8.3749498,0.1352892 11.775051,0.1352892 11.8062505,0.1383591 11.8362397,0.14746 11.8638905,0.1622391 11.8881205,0.1821194 11.9080008,0.2063494 11.9227799,0.2340002 11.9318808,0.2639894 11.9349507,0.2951889 11.9349507,3.6952901 11.9318808,3.7264857 11.9227799,3.7564816 11.9080008,3.7841268 11.8881205,3.8083587 11.8638905,3.8282447 11.8362397,3.8430209 11.8062505,3.8521209 11.775051,3.8551931 8.3749498,3.8551931z" transform="matrix(1,0,0,-1,0.1849529,12.2551928)" fill="rgb(0,0,0)" shaper:cutDepth="0" stroke-linecap="round" stroke-linejoin="round" /><path d="M8.2150468,8.6951898 L8.218119,8.6639938 8.227219,8.6339979 8.2419952,8.6063528 8.2618812,8.5821209 8.2861131,8.5622349 8.3137583,8.5474588 8.3437542,8.5383588 8.3749498,8.5352869 11.775051,8.5352869 11.8062505,8.5383588 11.8362397,8.5474588 11.8638905,8.5622349 11.8881205,8.5821209 11.9080008,8.6063528 11.9227799,8.6339979 11.9318808,8.6639938 11.9349507,8.6951898 11.9349507,12.0952898 11.9318808,12.1264858 11.9227799,12.1564817 11.9080008,12.1841269 11.8881205,12.2083588 11.8638905,12.2282448 11.8362397,12.2430209 11.8062505,12.2521209 11.775051,12.2551928 8.3749498,12.2551928 8.3437542,12.2521209 8.3137583,12.2430209 8.2861131,12.2282448 8.2618812,12.2083588 8.2419952,12.1841269 8.227219,12.1564817 8.218119,12.1264858 8.2150468,12.0952898 8.2150468,8.6951898z" transform="matrix(1,0,0,-1,0.1849529,12.2551928)" fill="rgb(0,0,0)" shaper:cutDepth="0" stroke-linecap="round" stroke-linejoin="round" /><path d="M4.0150472,8.6951898 L4.0181192,8.6639938 4.0272192,8.6339979 4.0419952,8.6063528 4.0618812,8.5821209 4.0861131,8.5622349 4.1137582,8.5474588 4.1437541,8.5383588 4.1749502,8.5352869 7.5750502,8.5352869 7.6062464,8.5383588 7.6362423,8.5474588 7.6638874,8.5622349 7.6881193,8.5821209 7.7080053,8.6063528 7.7227811,8.6339979 7.731881,8.6639938 7.7349533,8.6951898 7.7349533,12.0952898 7.731881,12.1264858 7.7227811,12.1564817 7.7080053,12.1841269 7.6881193,12.2083588 7.6638874,12.2282448 7.6362423,12.2430209 7.6062464,12.2521209 7.5750502,12.2551928 4.1749502,12.2551928 4.1437541,12.2521209 4.1137582,12.2430209 4.0861131,12.2282448 4.0618812,12.2083588 4.0419952,12.1841269 4.0272192,12.1564817 4.0181192,12.1264858 4.0150472,12.0952898 4.0150472,8.6951898z" transform="matrix(1,0,0,-1,0.1849529,12.2551928)" fill="rgb(0,0,0)" shaper:cutDepth="0" stroke-linecap="round" stroke-linejoin="round" /><path d="M3.534953,8.6951898 L3.534953,12.0952898 3.5318811,12.1264858 3.5227811,12.1564817 3.508005,12.1841269 3.488119,12.2083588 3.4638871,12.2282448 3.436242,12.2430209 3.4062461,12.2521209 3.3750501,12.2551928 -0.0250499,12.2551928 -0.0562459,12.2521209 -0.0862418,12.2430209 -0.113887,12.2282448 -0.1381189,12.2083588 -0.1580049,12.1841269 -0.172781,12.1564817 -0.181881,12.1264858 -0.1849529,12.0952898 -0.1849529,8.6951898 -0.181881,8.6639938 -0.172781,8.6339979 -0.1580049,8.6063528 -0.1381189,8.5821209 -0.113887,8.5622349 -0.0862418,8.5474588 -0.0562459,8.5383588 -0.0250499,8.5352869 3.3750501,8.5352869 3.4062461,8.5383588 3.436242,8.5474588 3.4638871,8.5622349 3.488119,8.5821209 3.508005,8.6063528 3.5227811,8.6339979 3.5318811,8.6639938 3.534953,8.6951898z" transform="matrix(1,0,0,-1,0.1849529,12.2551928)" fill="rgb(0,0,0)" shaper:cutDepth="0" stroke-linecap="round" stroke-linejoin="round" /><path d="M3.534953,4.4951897 L3.534953,7.8952897 3.5318811,7.9264858 3.5227811,7.9564817 3.508005,7.9841268 3.488119,8.0083587 3.4638871,8.0282447 3.436242,8.0430207 3.4062461,8.0521207 3.3750501,8.0551927 -0.0250499,8.0551927 -0.0562459,8.0521207 -0.0862418,8.0430207 -0.113887,8.0282447 -0.1381189,8.0083587 -0.1580049,7.9841268 -0.172781,7.9564817 -0.181881,7.9264858 -0.1849529,7.8952897 -0.1849529,4.4951897 -0.181881,4.4639935 -0.172781,4.4339976 -0.1580049,4.4063525 -0.1381189,4.3821206 -0.113887,4.3622346 -0.0862418,4.3474588 -0.0562459,4.3383589 -0.0250499,4.3352866 3.3750501,4.3352866 3.4062461,4.3383589 3.436242,4.3474588 3.4638871,4.3622346 3.488119,4.3821206 3.508005,4.4063525 3.5227811,4.4339976 3.5318811,4.4639935 3.534953,4.4951897z" transform="matrix(1,0,0,-1,0.1849529,12.2551928)" fill="rgb(0,0,0)" shaper:cutDepth="0" stroke-linecap="round" stroke-linejoin="round" /><path d="M3.534953,0.2951889 L3.534953,3.6952901 3.5318811,3.7264857 3.5227811,3.7564816 3.508005,3.7841268 3.488119,3.8083587 3.4638871,3.8282447 3.436242,3.8430209 3.4062461,3.8521209 3.3750501,3.8551931 -0.0250499,3.8551931 -0.0562459,3.8521209 -0.0862418,3.8430209 -0.113887,3.8282447 -0.1381189,3.8083587 -0.1580049,3.7841268 -0.172781,3.7564816 -0.181881,3.7264857 -0.1849529,3.6952901 -0.1849529,0.2951889 -0.181881,0.2639894 -0.172781,0.2340002 -0.1580049,0.2063494 -0.1381189,0.1821194 -0.113887,0.1622391 -0.0862418,0.14746 -0.0562459,0.1383591 -0.0250499,0.1352892 3.3750501,0.1352892 3.4062461,0.1383591 3.436242,0.14746 3.4638871,0.1622391 3.488119,0.1821194 3.508005,0.2063494 3.5227811,0.2340002 3.5318811,0.2639894 3.534953,0.2951889z" transform="matrix(1,0,0,-1,0.1849529,12.2551928)" fill="rgb(0,0,0)" shaper:cutDepth="0" stroke-linecap="round" stroke-linejoin="round" /><path d="M4.2562453,7.5586438 L4.2747391,7.6196117 4.304772,7.6757996 4.3451902,7.7250497 4.3944403,7.7654679 4.4506282,7.7955008 4.5115961,7.8139946 4.5750002,7.8202398 4.6384043,7.8139946 4.6993719,7.7955008 4.75556,7.7654679 4.8048102,7.7250497 4.8452281,7.6757996 4.8752609,7.6196117 4.8937551,7.5586438 4.9000002,7.4952397 4.8937551,7.4318357 4.8752609,7.370868 4.8452281,7.3146799 4.8048102,7.2654297 4.75556,7.2250118 4.6993719,7.194979 4.6384043,7.1764848 4.5750002,7.1702397 4.5115961,7.1764848 4.4506282,7.194979 4.3944403,7.2250118 4.3451902,7.2654297 4.304772,7.3146799 4.2747391,7.370868 4.2562453,7.4318357 4.2500001,7.4952397 4.2562453,7.5586438z" transform="matrix(1,0,0,-1,0.1849529,12.2551928)" fill="rgb(255,255,255)" stroke="rgb(0,0,0)" stroke-width="0.0010cm" stroke-linecap="round" stroke-linejoin="round" shaper:cutDepth="0" /><path d="M6.8562454,7.5586438 L6.8747391,7.6196117 6.9047722,7.6757996 6.9451903,7.7250497 6.9944404,7.7654679 7.0506281,7.7955008 7.111596,7.8139946 7.1750001,7.8202398 7.2384042,7.8139946 7.2993721,7.7955008 7.3555602,7.7654679 7.4048103,7.7250497 7.445228,7.6757996 7.4752611,7.6196117 7.4937552,7.5586438 7.5000004,7.4952397 7.4937552,7.4318357 7.4752611,7.370868 7.445228,7.3146799 7.4048103,7.2654297 7.3555602,7.2250118 7.2993721,7.194979 7.2384042,7.1764848 7.1750001,7.1702397 7.111596,7.1764848 7.0506281,7.194979 6.9944404,7.2250118 6.9451903,7.2654297 6.9047722,7.3146799 6.8747391,7.370868 6.8562454,7.4318357 6.8500003,7.4952397 6.8562454,7.5586438z" transform="matrix(1,0,0,-1,0.1849529,12.2551928)" fill="rgb(255,255,255)" stroke="rgb(0,0,0)" stroke-width="0.0010cm" stroke-linecap="round" stroke-linejoin="round" shaper:cutDepth="0" /><path d="M4.2562453,4.9586439 L4.2747391,5.0196118 4.304772,5.0757995 4.3451902,5.1250496 4.3944403,5.1654677 4.4506282,5.1955009 4.5115961,5.2139945 4.5750002,5.2202396 4.6384043,5.2139945 4.6993719,5.1955009 4.75556,5.1654677 4.8048102,5.1250496 4.8452281,5.0757995 4.8752609,5.0196118 4.8937551,4.9586439 4.9000002,4.8952398 4.8937551,4.8318357 4.8752609,4.7708678 4.8452281,4.7146797 4.8048102,4.6654296 4.75556,4.6250119 4.6993719,4.5949788 4.6384043,4.5764847 4.5750002,4.5702395 4.5115961,4.5764847 4.4506282,4.5949788 4.3944403,4.6250119 4.3451902,4.6654296 4.304772,4.7146797 4.2747391,4.7708678 4.2562453,4.8318357 4.2500001,4.8952398 4.2562453,4.9586439z" transform="matrix(1,0,0,-1,0.1849529,12.2551928)" fill="rgb(255,255,255)" stroke="rgb(0,0,0)" stroke-width="0.0010cm" stroke-linecap="round" stroke-linejoin="round" shaper:cutDepth="0" /><path d="M6.8562454,4.9586439 L6.8747391,5.0196118 6.9047722,5.0757995 6.9451903,5.1250496 6.9944404,5.1654677 7.0506281,5.1955009 7.111596,5.2139945 7.1750001,5.2202396 7.2384042,5.2139945 7.2993721,5.1955009 7.3555602,5.1654677 7.4048103,5.1250496 7.445228,5.0757995 7.4752611,5.0196118 7.4937552,4.9586439 7.5000004,4.8952398 7.4937552,4.8318357 7.4752611,4.7708678 7.445228,4.7146797 7.4048103,4.6654296 7.3555602,4.6250119 7.2993721,4.5949788 7.2384042,4.5764847 7.1750001,4.5702395 7.111596,4.5764847 7.0506281,4.5949788 6.9944404,4.6250119 6.9451903,4.6654296 6.9047722,4.7146797 6.8747391,4.7708678 6.8562454,4.8318357 6.8500003,4.8952398 6.8562454,4.9586439z" transform="matrix(1,0,0,-1,0.1849529,12.2551928)" fill="rgb(255,255,255)" stroke="rgb(0,0,0)" stroke-width="0.0010cm" stroke-linecap="round" stroke-linejoin="round" shaper:cutDepth="0" /><path d="M11.0562447,4.9586439 L11.0747393,5.0196118 11.1047724,5.0757995 11.1451901,5.1250496 11.1944398,5.1654677 11.2506284,5.1955009 11.3115958,5.2139945 11.3749999,5.2202396 11.438404,5.2139945 11.4993724,5.1955009 11.5555609,5.1654677 11.6048106,5.1250496 11.6452283,5.0757995 11.6752604,5.0196118 11.6937598,4.9586439 11.7000006,4.8952398 11.6937598,4.8318357 11.6752604,4.7708678 11.6452283,4.7146797 11.6048106,4.6654296 11.5555609,4.6250119 11.4993724,4.5949788 11.438404,4.5764847 11.3749999,4.5702395 11.3115958,4.5764847 11.2506284,4.5949788 11.1944398,4.6250119 11.1451901,4.6654296 11.1047724,4.7146797 11.0747393,4.7708678 11.0562447,4.8318357 11.0500001,4.8952398 11.0562447,4.9586439z" transform="matrix(1,0,0,-1,0.1849529,12.2551928)" fill="rgb(255,255,255)" stroke="rgb(0,0,0)" stroke-width="0.0010cm" stroke-linecap="round" stroke-linejoin="round" shaper:cutDepth="0" /><path d="M8.4562448,4.9586439 L8.4747394,5.0196118 8.5047725,5.0757995 8.5451897,5.1250496 8.5944399,5.1654677 8.650628,5.1955009 8.7115959,5.2139945 8.775,5.2202396 8.8384041,5.2139945 8.8993725,5.1955009 8.9555606,5.1654677 9.0048107,5.1250496 9.0452279,5.0757995 9.075261,5.0196118 9.0937556,4.9586439 9.1000003,4.8952398 9.0937556,4.8318357 9.075261,4.7708678 9.0452279,4.7146797 9.0048107,4.6654296 8.9555606,4.6250119 8.8993725,4.5949788 8.8384041,4.5764847 8.775,4.5702395 8.7115959,4.5764847 8.650628,4.5949788 8.5944399,4.6250119 8.5451897,4.6654296 8.5047725,4.7146797 8.4747394,4.7708678 8.4562448,4.8318357 8.4500002,4.8952398 8.4562448,4.9586439z" transform="matrix(1,0,0,-1,0.1849529,12.2551928)" fill="rgb(255,255,255)" stroke="rgb(0,0,0)" stroke-width="0.0010cm" stroke-linecap="round" stroke-linejoin="round" shaper:cutDepth="0" /><path d="M11.0562447,7.5586438 L11.0747393,7.6196117 11.1047724,7.6757996 11.1451901,7.7250497 11.1944398,7.7654679 11.2506284,7.7955008 11.3115958,7.8139946 11.3749999,7.8202398 11.438404,7.8139946 11.4993724,7.7955008 11.5555609,7.7654679 11.6048106,7.7250497 11.6452283,7.6757996 11.6752604,7.6196117 11.6937598,7.5586438 11.7000006,7.4952397 11.6937598,7.4318357 11.6752604,7.370868 11.6452283,7.3146799 11.6048106,7.2654297 11.5555609,7.2250118 11.4993724,7.194979 11.438404,7.1764848 11.3749999,7.1702397 11.3115958,7.1764848 11.2506284,7.194979 11.1944398,7.2250118 11.1451901,7.2654297 11.1047724,7.3146799 11.0747393,7.370868 11.0562447,7.4318357 11.0500001,7.4952397 11.0562447,7.5586438z" transform="matrix(1,0,0,-1,0.1849529,12.2551928)" fill="rgb(255,255,255)" stroke="rgb(0,0,0)" stroke-width="0.0010cm" stroke-linecap="round" stroke-linejoin="round" shaper:cutDepth="0" /><path d="M8.4562448,7.5586438 L8.4747394,7.6196117 8.5047725,7.6757996 8.5451897,7.7250497 8.5944399,7.7654679 8.650628,7.7955008 8.7115959,7.8139946 8.775,7.8202398 8.8384041,7.8139946 8.8993725,7.7955008 8.9555606,7.7654679 9.0048107,7.7250497 9.0452279,7.6757996 9.075261,7.6196117 9.0937556,7.5586438 9.1000003,7.4952397 9.0937556,7.4318357 9.075261,7.370868 9.0452279,7.3146799 9.0048107,7.2654297 8.9555606,7.2250118 8.8993725,7.194979 8.8384041,7.1764848 8.775,7.1702397 8.7115959,7.1764848 8.650628,7.194979 8.5944399,7.2250118 8.5451897,7.2654297 8.5047725,7.3146799 8.4747394,7.370868 8.4562448,7.4318357 8.4500002,7.4952397 8.4562448,7.5586438z" transform="matrix(1,0,0,-1,0.1849529,12.2551928)" fill="rgb(255,255,255)" stroke="rgb(0,0,0)" stroke-width="0.0010cm" stroke-linecap="round" stroke-linejoin="round" shaper:cutDepth="0" /><path d="M4.2562453,3.358644 L4.2747391,3.4196119 4.304772,3.4758 4.3451902,3.5250502 4.3944403,3.5654674 4.4506282,3.5955005 4.5115961,3.6139951 4.5750002,3.6202397 4.6384043,3.6139951 4.6993719,3.5955005 4.75556,3.5654674 4.8048102,3.5250502 4.8452281,3.4758 4.8752609,3.4196119 4.8937551,3.358644 4.9000002,3.2952399 4.8937551,3.2318358 4.8752609,3.1708674 4.8452281,3.1146793 4.8048102,3.0654292 4.75556,3.025012 4.6993719,2.9949789 4.6384043,2.9764843 4.5750002,2.9702396 4.5115961,2.9764843 4.4506282,2.9949789 4.3944403,3.025012 4.3451902,3.0654292 4.304772,3.1146793 4.2747391,3.1708674 4.2562453,3.2318358 4.2500001,3.2952399 4.2562453,3.358644z" transform="matrix(1,0,0,-1,0.1849529,12.2551928)" fill="rgb(255,255,255)" stroke="rgb(0,0,0)" stroke-width="0.0010cm" stroke-linecap="round" stroke-linejoin="round" shaper:cutDepth="0" /><path d="M6.8562454,3.358644 L6.8747391,3.4196119 6.9047722,3.4758 6.9451903,3.5250502 6.9944404,3.5654674 7.0506281,3.5955005 7.111596,3.6139951 7.1750001,3.6202397 7.2384042,3.6139951 7.2993721,3.5955005 7.3555602,3.5654674 7.4048103,3.5250502 7.445228,3.4758 7.4752611,3.4196119 7.4937552,3.358644 7.5000004,3.2952399 7.4937552,3.2318358 7.4752611,3.1708674 7.445228,3.1146793 7.4048103,3.0654292 7.3555602,3.025012 7.2993721,2.9949789 7.2384042,2.9764843 7.1750001,2.9702396 7.111596,2.9764843 7.0506281,2.9949789 6.9944404,3.025012 6.9451903,3.0654292 6.9047722,3.1146793 6.8747391,3.1708674 6.8562454,3.2318358 6.8500003,3.2952399 6.8562454,3.358644z" transform="matrix(1,0,0,-1,0.1849529,12.2551928)" fill="rgb(255,255,255)" stroke="rgb(0,0,0)" stroke-width="0.0010cm" stroke-linecap="round" stroke-linejoin="round" shaper:cutDepth="0" /><path d="M4.2562453,0.7586441 L4.2747391,0.8196115 4.304772,0.8758001 4.3451902,0.9250498 4.3944403,0.9654675 4.4506282,0.9955006 4.5115961,1.0139952 4.5750002,1.0202398 4.6384043,1.0139952 4.6993719,0.9955006 4.75556,0.9654675 4.8048102,0.9250498 4.8452281,0.8758001 4.8752609,0.8196115 4.8937551,0.7586441 4.9000002,0.69524 4.8937551,0.6318359 4.8752609,0.5708675 4.8452281,0.514679 4.8048102,0.4654293 4.75556,0.4250116 4.6993719,0.3949795 4.6384043,0.3764801 4.5750002,0.3702393 4.5115961,0.3764801 4.4506282,0.3949795 4.3944403,0.4250116 4.3451902,0.4654293 4.304772,0.514679 4.2747391,0.5708675 4.2562453,0.6318359 4.2500001,0.69524 4.2562453,0.7586441z" transform="matrix(1,0,0,-1,0.1849529,12.2551928)" fill="rgb(255,255,255)" stroke="rgb(0,0,0)" stroke-width="0.0010cm" stroke-linecap="round" stroke-linejoin="round" shaper:cutDepth="0" /><path d="M6.8562454,0.7586441 L6.8747391,0.8196115 6.9047722,0.8758001 6.9451903,0.9250498 6.9944404,0.9654675 7.0506281,0.9955006 7.111596,1.0139952 7.1750001,1.0202398 7.2384042,1.0139952 7.2993721,0.9955006 7.3555602,0.9654675 7.4048103,0.9250498 7.445228,0.8758001 7.4752611,0.8196115 7.4937552,0.7586441 7.5000004,0.69524 7.4937552,0.6318359 7.4752611,0.5708675 7.445228,0.514679 7.4048103,0.4654293 7.3555602,0.4250116 7.2993721,0.3949795 7.2384042,0.3764801 7.1750001,0.3702393 7.111596,0.3764801 7.0506281,0.3949795 6.9944404,0.4250116 6.9451903,0.4654293 6.9047722,0.514679 6.8747391,0.5708675 6.8562454,0.6318359 6.8500003,0.69524 6.8562454,0.7586441z" transform="matrix(1,0,0,-1,0.1849529,12.2551928)" fill="rgb(255,255,255)" stroke="rgb(0,0,0)" stroke-width="0.0010cm" stroke-linecap="round" stroke-linejoin="round" shaper:cutDepth="0" /><path d="M11.0562447,0.7586441 L11.0747393,0.8196115 11.1047724,0.8758001 11.1451901,0.9250498 11.1944398,0.9654675 11.2506284,0.9955006 11.3115958,1.0139952 11.3749999,1.0202398 11.438404,1.0139952 11.4993724,0.9955006 11.5555609,0.9654675 11.6048106,0.9250498 11.6452283,0.8758001 11.6752604,0.8196115 11.6937598,0.7586441 11.7000006,0.69524 11.6937598,0.6318359 11.6752604,0.5708675 11.6452283,0.514679 11.6048106,0.4654293 11.5555609,0.4250116 11.4993724,0.3949795 11.438404,0.3764801 11.3749999,0.3702393 11.3115958,0.3764801 11.2506284,0.3949795 11.1944398,0.4250116 11.1451901,0.4654293 11.1047724,0.514679 11.0747393,0.5708675 11.0562447,0.6318359 11.0500001,0.69524 11.0562447,0.7586441z" transform="matrix(1,0,0,-1,0.1849529,12.2551928)" fill="rgb(255,255,255)" stroke="rgb(0,0,0)" stroke-width="0.0010cm" stroke-linecap="round" stroke-linejoin="round" shaper:cutDepth="0" /><path d="M8.4562448,0.7586441 L8.4747394,0.8196115 8.5047725,0.8758001 8.5451897,0.9250498 8.5944399,0.9654675 8.650628,0.9955006 8.7115959,1.0139952 8.775,1.0202398 8.8384041,1.0139952 8.8993725,0.9955006 8.9555606,0.9654675 9.0048107,0.9250498 9.0452279,0.8758001 9.075261,0.8196115 9.0937556,0.7586441 9.1000003,0.69524 9.0937556,0.6318359 9.075261,0.5708675 9.0452279,0.514679 9.0048107,0.4654293 8.9555606,0.4250116 8.8993725,0.3949795 8.8384041,0.3764801 8.775,0.3702393 8.7115959,0.3764801 8.650628,0.3949795 8.5944399,0.4250116 8.5451897,0.4654293 8.5047725,0.514679 8.4747394,0.5708675 8.4562448,0.6318359 8.4500002,0.69524 8.4562448,0.7586441z" transform="matrix(1,0,0,-1,0.1849529,12.2551928)" fill="rgb(255,255,255)" stroke="rgb(0,0,0)" stroke-width="0.0010cm" stroke-linecap="round" stroke-linejoin="round" shaper:cutDepth="0" /><path d="M11.0562447,3.358644 L11.0747393,3.4196119 11.1047724,3.4758 11.1451901,3.5250502 11.1944398,3.5654674 11.2506284,3.5955005 11.3115958,3.6139951 11.3749999,3.6202397 11.438404,3.6139951 11.4993724,3.5955005 11.5555609,3.5654674 11.6048106,3.5250502 11.6452283,3.4758 11.6752604,3.4196119 11.6937598,3.358644 11.7000006,3.2952399 11.6937598,3.2318358 11.6752604,3.1708674 11.6452283,3.1146793 11.6048106,3.0654292 11.5555609,3.025012 11.4993724,2.9949789 11.438404,2.9764843 11.3749999,2.9702396 11.3115958,2.9764843 11.2506284,2.9949789 11.1944398,3.025012 11.1451901,3.0654292 11.1047724,3.1146793 11.0747393,3.1708674 11.0562447,3.2318358 11.0500001,3.2952399 11.0562447,3.358644z" transform="matrix(1,0,0,-1,0.1849529,12.2551928)" fill="rgb(255,255,255)" stroke="rgb(0,0,0)" stroke-width="0.0010cm" stroke-linecap="round" stroke-linejoin="round" shaper:cutDepth="0" /><path d="M8.4562448,3.358644 L8.4747394,3.4196119 8.5047725,3.4758 8.5451897,3.5250502 8.5944399,3.5654674 8.650628,3.5955005 8.7115959,3.6139951 8.775,3.6202397 8.8384041,3.6139951 8.8993725,3.5955005 8.9555606,3.5654674 9.0048107,3.5250502 9.0452279,3.4758 9.075261,3.4196119 9.0937556,3.358644 9.1000003,3.2952399 9.0937556,3.2318358 9.075261,3.1708674 9.0452279,3.1146793 9.0048107,3.0654292 8.9555606,3.025012 8.8993725,2.9949789 8.8384041,2.9764843 8.775,2.9702396 8.7115959,2.9764843 8.650628,2.9949789 8.5944399,3.025012 8.5451897,3.0654292 8.5047725,3.1146793 8.4747394,3.1708674 8.4562448,3.2318358 8.4500002,3.2952399 8.4562448,3.358644z" transform="matrix(1,0,0,-1,0.1849529,12.2551928)" fill="rgb(255,255,255)" stroke="rgb(0,0,0)" stroke-width="0.0010cm" stroke-linecap="round" stroke-linejoin="round" shaper:cutDepth="0" /><path d="M8.4562448,11.7586439 L8.4747394,11.8196119 8.5047725,11.8757999 8.5451897,11.9250499 8.5944399,11.9654678 8.650628,11.9955008 8.7115959,12.0139948 8.775,12.0202398 8.8384041,12.0139948 8.8993725,11.9955008 8.9555606,11.9654678 9.0048107,11.9250499 9.0452279,11.8757999 9.075261,11.8196119 9.0937556,11.7586439 9.1000003,11.6952399 9.0937556,11.6318358 9.075261,11.5708679 9.0452279,11.5146798 9.0048107,11.4654298 8.9555606,11.4250119 8.8993725,11.394979 8.8384041,11.3764846 8.775,11.3702399 8.7115959,11.3764846 8.650628,11.394979 8.5944399,11.4250119 8.5451897,11.4654298 8.5047725,11.5146798 8.4747394,11.5708679 8.4562448,11.6318358 8.4500002,11.6952399 8.4562448,11.7586439z" transform="matrix(1,0,0,-1,0.1849529,12.2551928)" fill="rgb(255,255,255)" stroke="rgb(0,0,0)" stroke-width="0.0010cm" stroke-linecap="round" stroke-linejoin="round" shaper:cutDepth="0" /><path d="M11.0562447,11.7586439 L11.0747393,11.8196119 11.1047724,11.8757999 11.1451901,11.9250499 11.1944398,11.9654678 11.2506284,11.9955008 11.3115958,12.0139948 11.3749999,12.0202398 11.438404,12.0139948 11.4993724,11.9955008 11.5555609,11.9654678 11.6048106,11.9250499 11.6452283,11.8757999 11.6752604,11.8196119 11.6937598,11.7586439 11.7000006,11.6952399 11.6937598,11.6318358 11.6752604,11.5708679 11.6452283,11.5146798 11.6048106,11.4654298 11.5555609,11.4250119 11.4993724,11.394979 11.438404,11.3764846 11.3749999,11.3702399 11.3115958,11.3764846 11.2506284,11.394979 11.1944398,11.4250119 11.1451901,11.4654298 11.1047724,11.5146798 11.0747393,11.5708679 11.0562447,11.6318358 11.0500001,11.6952399 11.0562447,11.7586439z" transform="matrix(1,0,0,-1,0.1849529,12.2551928)" fill="rgb(255,255,255)" stroke="rgb(0,0,0)" stroke-width="0.0010cm" stroke-linecap="round" stroke-linejoin="round" shaper:cutDepth="0" /><path d="M8.4562448,9.1586438 L8.4747394,9.2196118 8.5047725,9.2757999 8.5451897,9.3250499 8.5944399,9.3654678 8.650628,9.3955007 8.7115959,9.4139951 8.775,9.4202398 8.8384041,9.4139951 8.8993725,9.3955007 8.9555606,9.3654678 9.0048107,9.3250499 9.0452279,9.2757999 9.075261,9.2196118 9.0937556,9.1586438 9.1000003,9.0952398 9.0937556,9.0318358 9.075261,8.9708678 9.0452279,8.9146798 9.0048107,8.8654298 8.9555606,8.8250118 8.8993725,8.7949789 8.8384041,8.7764848 8.775,8.7702398 8.7115959,8.7764848 8.650628,8.7949789 8.5944399,8.8250118 8.5451897,8.8654298 8.5047725,8.9146798 8.4747394,8.9708678 8.4562448,9.0318358 8.4500002,9.0952398 8.4562448,9.1586438z" transform="matrix(1,0,0,-1,0.1849529,12.2551928)" fill="rgb(255,255,255)" stroke="rgb(0,0,0)" stroke-width="0.0010cm" stroke-linecap="round" stroke-linejoin="round" shaper:cutDepth="0" /><path d="M11.0562447,9.1586438 L11.0747393,9.2196118 11.1047724,9.2757999 11.1451901,9.3250499 11.1944398,9.3654678 11.2506284,9.3955007 11.3115958,9.4139951 11.3749999,9.4202398 11.438404,9.4139951 11.4993724,9.3955007 11.5555609,9.3654678 11.6048106,9.3250499 11.6452283,9.2757999 11.6752604,9.2196118 11.6937598,9.1586438 11.7000006,9.0952398 11.6937598,9.0318358 11.6752604,8.9708678 11.6452283,8.9146798 11.6048106,8.8654298 11.5555609,8.8250118 11.4993724,8.7949789 11.438404,8.7764848 11.3749999,8.7702398 11.3115958,8.7764848 11.2506284,8.7949789 11.1944398,8.8250118 11.1451901,8.8654298 11.1047724,8.9146798 11.0747393,8.9708678 11.0562447,9.0318358 11.0500001,9.0952398 11.0562447,9.1586438z" transform="matrix(1,0,0,-1,0.1849529,12.2551928)" fill="rgb(255,255,255)" stroke="rgb(0,0,0)" stroke-width="0.0010cm" stroke-linecap="round" stroke-linejoin="round" shaper:cutDepth="0" /><path d="M6.8562454,9.1586438 L6.8747391,9.2196118 6.9047722,9.2757999 6.9451903,9.3250499 6.9944404,9.3654678 7.0506281,9.3955007 7.111596,9.4139951 7.1750001,9.4202398 7.2384042,9.4139951 7.2993721,9.3955007 7.3555602,9.3654678 7.4048103,9.3250499 7.445228,9.2757999 7.4752611,9.2196118 7.4937552,9.1586438 7.5000004,9.0952398 7.4937552,9.0318358 7.4752611,8.9708678 7.445228,8.9146798 7.4048103,8.8654298 7.3555602,8.8250118 7.2993721,8.7949789 7.2384042,8.7764848 7.1750001,8.7702398 7.111596,8.7764848 7.0506281,8.7949789 6.9944404,8.8250118 6.9451903,8.8654298 6.9047722,8.9146798 6.8747391,8.9708678 6.8562454,9.0318358 6.8500003,9.0952398 6.8562454,9.1586438z" transform="matrix(1,0,0,-1,0.1849529,12.2551928)" fill="rgb(255,255,255)" stroke="rgb(0,0,0)" stroke-width="0.0010cm" stroke-linecap="round" stroke-linejoin="round" shaper:cutDepth="0" /><path d="M4.2562453,9.1586438 L4.2747391,9.2196118 4.304772,9.2757999 4.3451902,9.3250499 4.3944403,9.3654678 4.4506282,9.3955007 4.5115961,9.4139951 4.5750002,9.4202398 4.6384043,9.4139951 4.6993719,9.3955007 4.75556,9.3654678 4.8048102,9.3250499 4.8452281,9.2757999 4.8752609,9.2196118 4.8937551,9.1586438 4.9000002,9.0952398 4.8937551,9.0318358 4.8752609,8.9708678 4.8452281,8.9146798 4.8048102,8.8654298 4.75556,8.8250118 4.6993719,8.7949789 4.6384043,8.7764848 4.5750002,8.7702398 4.5115961,8.7764848 4.4506282,8.7949789 4.3944403,8.8250118 4.3451902,8.8654298 4.304772,8.9146798 4.2747391,8.9708678 4.2562453,9.0318358 4.2500001,9.0952398 4.2562453,9.1586438z" transform="matrix(1,0,0,-1,0.1849529,12.2551928)" fill="rgb(255,255,255)" stroke="rgb(0,0,0)" stroke-width="0.0010cm" stroke-linecap="round" stroke-linejoin="round" shaper:cutDepth="0" /><path d="M6.8562454,11.7586439 L6.8747391,11.8196119 6.9047722,11.8757999 6.9451903,11.9250499 6.9944404,11.9654678 7.0506281,11.9955008 7.111596,12.0139948 7.1750001,12.0202398 7.2384042,12.0139948 7.2993721,11.9955008 7.3555602,11.9654678 7.4048103,11.9250499 7.445228,11.8757999 7.4752611,11.8196119 7.4937552,11.7586439 7.5000004,11.6952399 7.4937552,11.6318358 7.4752611,11.5708679 7.445228,11.5146798 7.4048103,11.4654298 7.3555602,11.4250119 7.2993721,11.394979 7.2384042,11.3764846 7.1750001,11.3702399 7.111596,11.3764846 7.0506281,11.394979 6.9944404,11.4250119 6.9451903,11.4654298 6.9047722,11.5146798 6.8747391,11.5708679 6.8562454,11.6318358 6.8500003,11.6952399 6.8562454,11.7586439z" transform="matrix(1,0,0,-1,0.1849529,12.2551928)" fill="rgb(255,255,255)" stroke="rgb(0,0,0)" stroke-width="0.0010cm" stroke-linecap="round" stroke-linejoin="round" shaper:cutDepth="0" /><path d="M4.2562453,11.7586439 L4.2747391,11.8196119 4.304772,11.8757999 4.3451902,11.9250499 4.3944403,11.9654678 4.4506282,11.9955008 4.5115961,12.0139948 4.5750002,12.0202398 4.6384043,12.0139948 4.6993719,11.9955008 4.75556,11.9654678 4.8048102,11.9250499 4.8452281,11.8757999 4.8752609,11.8196119 4.8937551,11.7586439 4.9000002,11.6952399 4.8937551,11.6318358 4.8752609,11.5708679 4.8452281,11.5146798 4.8048102,11.4654298 4.75556,11.4250119 4.6993719,11.394979 4.6384043,11.3764846 4.5750002,11.3702399 4.5115961,11.3764846 4.4506282,11.394979 4.3944403,11.4250119 4.3451902,11.4654298 4.304772,11.5146798 4.2747391,11.5708679 4.2562453,11.6318358 4.2500001,11.6952399 4.2562453,11.7586439z" transform="matrix(1,0,0,-1,0.1849529,12.2551928)" fill="rgb(255,255,255)" stroke="rgb(0,0,0)" stroke-width="0.0010cm" stroke-linecap="round" stroke-linejoin="round" shaper:cutDepth="0" /><path d="M0.0562451,11.7586439 L0.0747391,11.8196119 0.1047721,11.8757999 0.14519,11.9250499 0.19444,11.9654678 0.250628,11.9955008 0.311596,12.0139948 0.375,12.0202398 0.4384041,12.0139948 0.499372,11.9955008 0.5555601,11.9654678 0.6048101,11.9250499 0.645228,11.8757999 0.6752609,11.8196119 0.6937553,11.7586439 0.7,11.6952399 0.6937553,11.6318358 0.6752609,11.5708679 0.645228,11.5146798 0.6048101,11.4654298 0.5555601,11.4250119 0.499372,11.394979 0.4384041,11.3764846 0.375,11.3702399 0.311596,11.3764846 0.250628,11.394979 0.19444,11.4250119 0.14519,11.4654298 0.1047721,11.5146798 0.0747391,11.5708679 0.0562451,11.6318358 0.0500001,11.6952399 0.0562451,11.7586439z" transform="matrix(1,0,0,-1,0.1849529,12.2551928)" fill="rgb(255,255,255)" stroke="rgb(0,0,0)" stroke-width="0.0010cm" stroke-linecap="round" stroke-linejoin="round" shaper:cutDepth="0" /><path d="M2.6562448,11.7586439 L2.6747392,11.8196119 2.7047721,11.8757999 2.74519,11.9250499 2.79444,11.9654678 2.8506281,11.9955008 2.9115961,12.0139948 2.9750001,12.0202398 3.0384041,12.0139948 3.0993721,11.9955008 3.1555601,11.9654678 3.2048101,11.9250499 3.2452281,11.8757999 3.275261,11.8196119 3.2937551,11.7586439 3.3000001,11.6952399 3.2937551,11.6318358 3.275261,11.5708679 3.2452281,11.5146798 3.2048101,11.4654298 3.1555601,11.4250119 3.0993721,11.394979 3.0384041,11.3764846 2.9750001,11.3702399 2.9115961,11.3764846 2.8506281,11.394979 2.79444,11.4250119 2.74519,11.4654298 2.7047721,11.5146798 2.6747392,11.5708679 2.6562448,11.6318358 2.6500001,11.6952399 2.6562448,11.7586439z" transform="matrix(1,0,0,-1,0.1849529,12.2551928)" fill="rgb(255,255,255)" stroke="rgb(0,0,0)" stroke-width="0.0010cm" stroke-linecap="round" stroke-linejoin="round" shaper:cutDepth="0" /><path d="M0.0562451,9.1586438 L0.0747391,9.2196118 0.1047721,9.2757999 0.14519,9.3250499 0.19444,9.3654678 0.250628,9.3955007 0.311596,9.4139951 0.375,9.4202398 0.4384041,9.4139951 0.499372,9.3955007 0.5555601,9.3654678 0.6048101,9.3250499 0.645228,9.2757999 0.6752609,9.2196118 0.6937553,9.1586438 0.7,9.0952398 0.6937553,9.0318358 0.6752609,8.9708678 0.645228,8.9146798 0.6048101,8.8654298 0.5555601,8.8250118 0.499372,8.7949789 0.4384041,8.7764848 0.375,8.7702398 0.311596,8.7764848 0.250628,8.7949789 0.19444,8.8250118 0.14519,8.8654298 0.1047721,8.9146798 0.0747391,8.9708678 0.0562451,9.0318358 0.0500001,9.0952398 0.0562451,9.1586438z" transform="matrix(1,0,0,-1,0.1849529,12.2551928)" fill="rgb(255,255,255)" stroke="rgb(0,0,0)" stroke-width="0.0010cm" stroke-linecap="round" stroke-linejoin="round" shaper:cutDepth="0" /><path d="M2.6562448,9.1586438 L2.6747392,9.2196118 2.7047721,9.2757999 2.74519,9.3250499 2.79444,9.3654678 2.8506281,9.3955007 2.9115961,9.4139951 2.9750001,9.4202398 3.0384041,9.4139951 3.0993721,9.3955007 3.1555601,9.3654678 3.2048101,9.3250499 3.2452281,9.2757999 3.275261,9.2196118 3.2937551,9.1586438 3.3000001,9.0952398 3.2937551,9.0318358 3.275261,8.9708678 3.2452281,8.9146798 3.2048101,8.8654298 3.1555601,8.8250118 3.0993721,8.7949789 3.0384041,8.7764848 2.9750001,8.7702398 2.9115961,8.7764848 2.8506281,8.7949789 2.79444,8.8250118 2.74519,8.8654298 2.7047721,8.9146798 2.6747392,8.9708678 2.6562448,9.0318358 2.6500001,9.0952398 2.6562448,9.1586438z" transform="matrix(1,0,0,-1,0.1849529,12.2551928)" fill="rgb(255,255,255)" stroke="rgb(0,0,0)" stroke-width="0.0010cm" stroke-linecap="round" stroke-linejoin="round" shaper:cutDepth="0" /><path d="M2.6562448,4.9586439 L2.6747392,5.0196118 2.7047721,5.0757995 2.74519,5.1250496 2.79444,5.1654677 2.8506281,5.1955009 2.9115961,5.2139945 2.9750001,5.2202396 3.0384041,5.2139945 3.0993721,5.1955009 3.1555601,5.1654677 3.2048101,5.1250496 3.2452281,5.0757995 3.275261,5.0196118 3.2937551,4.9586439 3.3000001,4.8952398 3.2937551,4.8318357 3.275261,4.7708678 3.2452281,4.7146797 3.2048101,4.6654296 3.1555601,4.6250119 3.0993721,4.5949788 3.0384041,4.5764847 2.9750001,4.5702395 2.9115961,4.5764847 2.8506281,4.5949788 2.79444,4.6250119 2.74519,4.6654296 2.7047721,4.7146797 2.6747392,4.7708678 2.6562448,4.8318357 2.6500001,4.8952398 2.6562448,4.9586439z" transform="matrix(1,0,0,-1,0.1849529,12.2551928)" fill="rgb(255,255,255)" stroke="rgb(0,0,0)" stroke-width="0.0010cm" stroke-linecap="round" stroke-linejoin="round" shaper:cutDepth="0" /><path d="M0.0562451,4.9586439 L0.0747391,5.0196118 0.1047721,5.0757995 0.14519,5.1250496 0.19444,5.1654677 0.250628,5.1955009 0.311596,5.2139945 0.375,5.2202396 0.4384041,5.2139945 0.499372,5.1955009 0.5555601,5.1654677 0.6048101,5.1250496 0.645228,5.0757995 0.6752609,5.0196118 0.6937553,4.9586439 0.7,4.8952398 0.6937553,4.8318357 0.6752609,4.7708678 0.645228,4.7146797 0.6048101,4.6654296 0.5555601,4.6250119 0.499372,4.5949788 0.4384041,4.5764847 0.375,4.5702395 0.311596,4.5764847 0.250628,4.5949788 0.19444,4.6250119 0.14519,4.6654296 0.1047721,4.7146797 0.0747391,4.7708678 0.0562451,4.8318357 0.0500001,4.8952398 0.0562451,4.9586439z" transform="matrix(1,0,0,-1,0.1849529,12.2551928)" fill="rgb(255,255,255)" stroke="rgb(0,0,0)" stroke-width="0.0010cm" stroke-linecap="round" stroke-linejoin="round" shaper:cutDepth="0" /><path d="M2.6562448,7.5586438 L2.6747392,7.6196117 2.7047721,7.6757996 2.74519,7.7250497 2.79444,7.7654679 2.8506281,7.7955008 2.9115961,7.8139946 2.9750001,7.8202398 3.0384041,7.8139946 3.0993721,7.7955008 3.1555601,7.7654679 3.2048101,7.7250497 3.2452281,7.6757996 3.275261,7.6196117 3.2937551,7.5586438 3.3000001,7.4952397 3.2937551,7.4318357 3.275261,7.370868 3.2452281,7.3146799 3.2048101,7.2654297 3.1555601,7.2250118 3.0993721,7.194979 3.0384041,7.1764848 2.9750001,7.1702397 2.9115961,7.1764848 2.8506281,7.194979 2.79444,7.2250118 2.74519,7.2654297 2.7047721,7.3146799 2.6747392,7.370868 2.6562448,7.4318357 2.6500001,7.4952397 2.6562448,7.5586438z" transform="matrix(1,0,0,-1,0.1849529,12.2551928)" fill="rgb(255,255,255)" stroke="rgb(0,0,0)" stroke-width="0.0010cm" stroke-linecap="round" stroke-linejoin="round" shaper:cutDepth="0" /><path d="M0.0562451,7.5586438 L0.0747391,7.6196117 0.1047721,7.6757996 0.14519,7.7250497 0.19444,7.7654679 0.250628,7.7955008 0.311596,7.8139946 0.375,7.8202398 0.4384041,7.8139946 0.499372,7.7955008 0.5555601,7.7654679 0.6048101,7.7250497 0.645228,7.6757996 0.6752609,7.6196117 0.6937553,7.5586438 0.7,7.4952397 0.6937553,7.4318357 0.6752609,7.370868 0.645228,7.3146799 0.6048101,7.2654297 0.5555601,7.2250118 0.499372,7.194979 0.4384041,7.1764848 0.375,7.1702397 0.311596,7.1764848 0.250628,7.194979 0.19444,7.2250118 0.14519,7.2654297 0.1047721,7.3146799 0.0747391,7.370868 0.0562451,7.4318357 0.0500001,7.4952397 0.0562451,7.5586438z" transform="matrix(1,0,0,-1,0.1849529,12.2551928)" fill="rgb(255,255,255)" stroke="rgb(0,0,0)" stroke-width="0.0010cm" stroke-linecap="round" stroke-linejoin="round" shaper:cutDepth="0" /><path d="M0.0562451,3.358644 L0.0747391,3.4196119 0.1047721,3.4758 0.14519,3.5250502 0.19444,3.5654674 0.250628,3.5955005 0.311596,3.6139951 0.375,3.6202397 0.4384041,3.6139951 0.499372,3.5955005 0.5555601,3.5654674 0.6048101,3.5250502 0.645228,3.4758 0.6752609,3.4196119 0.6937553,3.358644 0.7,3.2952399 0.6937553,3.2318358 0.6752609,3.1708674 0.645228,3.1146793 0.6048101,3.0654292 0.5555601,3.025012 0.499372,2.9949789 0.4384041,2.9764843 0.375,2.9702396 0.311596,2.9764843 0.250628,2.9949789 0.19444,3.025012 0.14519,3.0654292 0.1047721,3.1146793 0.0747391,3.1708674 0.0562451,3.2318358 0.0500001,3.2952399 0.0562451,3.358644z" transform="matrix(1,0,0,-1,0.1849529,12.2551928)" fill="rgb(255,255,255)" stroke="rgb(0,0,0)" stroke-width="0.0010cm" stroke-linecap="round" stroke-linejoin="round" shaper:cutDepth="0" /><path d="M2.6562448,3.358644 L2.6747392,3.4196119 2.7047721,3.4758 2.74519,3.5250502 2.79444,3.5654674 2.8506281,3.5955005 2.9115961,3.6139951 2.9750001,3.6202397 3.0384041,3.6139951 3.0993721,3.5955005 3.1555601,3.5654674 3.2048101,3.5250502 3.2452281,3.4758 3.275261,3.4196119 3.2937551,3.358644 3.3000001,3.2952399 3.2937551,3.2318358 3.275261,3.1708674 3.2452281,3.1146793 3.2048101,3.0654292 3.1555601,3.025012 3.0993721,2.9949789 3.0384041,2.9764843 2.9750001,2.9702396 2.9115961,2.9764843 2.8506281,2.9949789 2.79444,3.025012 2.74519,3.0654292 2.7047721,3.1146793 2.6747392,3.1708674 2.6562448,3.2318358 2.6500001,3.2952399 2.6562448,3.358644z" transform="matrix(1,0,0,-1,0.1849529,12.2551928)" fill="rgb(255,255,255)" stroke="rgb(0,0,0)" stroke-width="0.0010cm" stroke-linecap="round" stroke-linejoin="round" shaper:cutDepth="0" /><path d="M0.0562451,0.7586441 L0.0747391,0.8196115 0.1047721,0.8758001 0.14519,0.9250498 0.19444,0.9654675 0.250628,0.9955006 0.311596,1.0139952 0.375,1.0202398 0.4384041,1.0139952 0.499372,0.9955006 0.5555601,0.9654675 0.6048101,0.9250498 0.645228,0.8758001 0.6752609,0.8196115 0.6937553,0.7586441 0.7,0.69524 0.6937553,0.6318359 0.6752609,0.5708675 0.645228,0.514679 0.6048101,0.4654293 0.5555601,0.4250116 0.499372,0.3949795 0.4384041,0.3764801 0.375,0.3702393 0.311596,0.3764801 0.250628,0.3949795 0.19444,0.4250116 0.14519,0.4654293 0.1047721,0.514679 0.0747391,0.5708675 0.0562451,0.6318359 0.0500001,0.69524 0.0562451,0.7586441z" transform="matrix(1,0,0,-1,0.1849529,12.2551928)" fill="rgb(255,255,255)" stroke="rgb(0,0,0)" stroke-width="0.0010cm" stroke-linecap="round" stroke-linejoin="round" shaper:cutDepth="0" /><path d="M2.6562448,0.7586441 L2.6747392,0.8196115 2.7047721,0.8758001 2.74519,0.9250498 2.79444,0.9654675 2.8506281,0.9955006 2.9115961,1.0139952 2.9750001,1.0202398 3.0384041,1.0139952 3.0993721,0.9955006 3.1555601,0.9654675 3.2048101,0.9250498 3.2452281,0.8758001 3.275261,0.8196115 3.2937551,0.7586441 3.3000001,0.69524 3.2937551,0.6318359 3.275261,0.5708675 3.2452281,0.514679 3.2048101,0.4654293 3.1555601,0.4250116 3.0993721,0.3949795 3.0384041,0.3764801 2.9750001,0.3702393 2.9115961,0.3764801 2.8506281,0.3949795 2.79444,0.4250116 2.74519,0.4654293 2.7047721,0.514679 2.6747392,0.5708675 2.6562448,0.6318359 2.6500001,0.69524 2.6562448,0.7586441z" transform="matrix(1,0,0,-1,0.1849529,12.2551928)" fill="rgb(255,255,255)" stroke="rgb(0,0,0)" stroke-width="0.0010cm" stroke-linecap="round" stroke-linejoin="round" shaper:cutDepth="0" /></svg>