<?xml version="1.0" encoding="utf-8"?>
<!-- Generator: Adobe Illustrator 26.3.1, SVG Export Plug-In . SVG Version: 6.00 Build 0)  -->
<svg version="1.1" id="Layer_1" xmlns="http://www.w3.org/2000/svg" xmlns:xlink="http://www.w3.org/1999/xlink" x="0px" y="0px"
	 width="1440px" height="864px" viewBox="0 0 1440 864" style="enable-background:new 0 0 1440 864;" xml:space="preserve">
<style type="text/css">
	.st0{fill:none;stroke:#FF9999;stroke-miterlimit:10;}
	.st1{fill:none;stroke:#000088;stroke-miterlimit:10;}
</style>
<g id="Layer_1_00000070800200376030197310000014171184189769570958_">
	<path class="st0" d="M176.6,312.9H72.2c-3.9,0-7-3.1-7-7v-224c0-3.9,3.1-7,7-7h104.4c3.9,0,7,3.1,7,7V306
		C183.6,309.8,180.5,312.9,176.6,312.9z"/>
</g>
<path class="st1" d="M177.4,182.6V86.2l-0.1-0.9l-0.3-0.9l-0.4-0.8l-0.6-0.7l-0.7-0.6l-0.8-0.4l-0.9-0.3l-0.9-0.1H76.5l-0.9,0.1
	L74.8,82L74,82.4L73.3,83l-0.6,0.7l-0.4,0.8L72,85.4v0.8v96.4l0.1,0.9l0.3,0.9l0.4,0.8l0.6,0.7l0.7,0.6l0.8,0.4l0.9,0.3l0.9,0.1
	h96.4l0.9-0.1l0.9-0.3l0.8-0.4l0.7-0.6l0.6-0.7l0.4-0.8l0.3-0.9L177.4,182.6z"/>
<path class="st1" d="M177.4,301.6v-96.4l-0.1-0.9l-0.3-0.9l-0.4-0.8l-0.6-0.7l-0.7-0.6l-0.8-0.4l-0.9-0.3l-0.9-0.1H76.5l-0.9,0.1
	l-0.9,0.3l-0.8,0.4l-0.7,0.6l-0.6,0.7l-0.4,0.8l-0.3,0.9l-0.1,0.9v96.4l0.1,0.9l0.3,0.9l0.4,0.8l0.6,0.7l0.7,0.6l0.8,0.4l0.9,0.3
	l0.9,0.1h96.4l0.9-0.1l0.9-0.3l0.8-0.4l0.7-0.6l0.6-0.7l0.4-0.8l0.3-0.9L177.4,301.6z"/>
</svg>
