<?xml version="1.0" encoding="utf-8"?>
<!-- Generator: Adobe Illustrator 26.3.1, SVG Export Plug-In . SVG Version: 6.00 Build 0)  -->
<svg version="1.1" id="Layer_1" xmlns="http://www.w3.org/2000/svg" xmlns:xlink="http://www.w3.org/1999/xlink" x="0px" y="0px"
	 width="1440px" height="864px" viewBox="0 0 1440 864" style="enable-background:new 0 0 1440 864;" xml:space="preserve">
<style type="text/css">
	.st0{fill:none;stroke:#FF9999;stroke-miterlimit:10;}
	.st1{fill:none;stroke:#000088;stroke-miterlimit:10;}
</style>
<g id="Layer_1_00000070800200376030197310000014171184189769570958_">
	<path class="st0" d="M1128.8,193.8H72.2c-3.9,0-7-3.1-7-7V81.9c0-3.9,3.1-7,7-7h1056.6c3.9,0,7,3.1,7,7v105
		C1135.8,190.7,1132.7,193.8,1128.8,193.8z"/>
</g>
<path class="st1" d="M310.1,182.6l0.1,0.9l0.3,0.9l0.4,0.8l0.6,0.7l0.7,0.6l0.8,0.4l0.9,0.3l0.9,0.1H411l0.9-0.1l0.9-0.3l0.8-0.4
	l0.7-0.6l0.6-0.7l0.4-0.8l0.3-0.9l0.1-0.9V86.2l-0.1-0.9l-0.3-0.9l-0.4-0.8l-0.6-0.7l-0.7-0.6l-0.8-0.4l-0.9-0.3l-0.9-0.1h-96.4
	l-0.9,0.1l-0.9,0.3l-0.8,0.4l-0.7,0.6l-0.6,0.7l-0.4,0.8l-0.3,0.9l-0.1,0.9v96.4H310.1z"/>
<path class="st1" d="M191.1,182.6l0.1,0.9l0.3,0.9l0.4,0.8l0.6,0.7l0.7,0.6l0.8,0.4l0.9,0.3l0.9,0.1H292l0.9-0.1l0.9-0.3l0.8-0.4
	l0.7-0.6l0.6-0.7l0.4-0.8l0.3-0.9l0.1-0.9V86.2l-0.1-0.9l-0.3-0.9l-0.4-0.8l-0.6-0.7l-0.7-0.6l-0.8-0.4l-0.9-0.3l-0.9-0.1h-96.4
	l-0.9,0.1l-0.9,0.3l-0.8,0.4l-0.7,0.6l-0.6,0.7l-0.4,0.8l-0.3,0.9l-0.1,0.9v96.4H191.1z"/>
<path class="st1" d="M177.4,182.6V86.2l-0.1-0.9l-0.3-0.9l-0.4-0.8l-0.6-0.7l-0.7-0.6l-0.8-0.4l-0.9-0.3l-0.9-0.1H76.5l-0.9,0.1
	L74.8,82L74,82.4L73.3,83l-0.6,0.7l-0.4,0.8L72,85.4v0.8v96.4l0.1,0.9l0.3,0.9l0.4,0.8l0.6,0.7l0.7,0.6l0.8,0.4l0.9,0.3l0.9,0.1
	h96.4l0.9-0.1l0.9-0.3l0.8-0.4l0.7-0.6l0.6-0.7l0.4-0.8l0.3-0.9L177.4,182.6z"/>
<path class="st1" d="M667.3,182.6l0.1,0.9l0.3,0.9l0.4,0.8l0.6,0.7l0.7,0.6l0.8,0.4l0.9,0.3l0.9,0.1h96.4l0.9-0.1l0.9-0.3l0.8-0.4
	l0.7-0.6l0.6-0.7l0.4-0.8l0.3-0.9l0.1-0.9V86.2l-0.1-0.9l-0.3-0.9l-0.4-0.8l-0.6-0.7l-0.7-0.6l-0.8-0.4l-0.9-0.3l-0.9-0.1H672
	l-0.9,0.1l-0.9,0.3l-0.8,0.4l-0.7,0.6l-0.6,0.7l-0.4,0.8l-0.3,0.9l-0.1,0.9V182.6z"/>
<path class="st1" d="M548.2,182.6l0.1,0.9l0.3,0.9l0.4,0.8l0.6,0.7l0.7,0.6l0.8,0.4l0.9,0.3l0.9,0.1h96.4l0.9-0.1l0.9-0.3l0.8-0.4
	l0.7-0.6l0.6-0.7l0.4-0.8l0.3-0.9l0.1-0.9V86.2l-0.1-0.9l-0.3-0.9l-0.4-0.8l-0.6-0.7l-0.7-0.6l-0.8-0.4l-0.9-0.3l-0.9-0.1h-96.4
	l-0.9,0.1l-1,0.4l-0.8,0.4l-0.7,0.6l-0.6,0.7l-0.4,0.8l-0.3,0.9l-0.1,0.9L548.2,182.6L548.2,182.6z"/>
<path class="st1" d="M534.6,182.6V86.2l-0.1-0.9l-0.3-0.9l-0.4-0.8l-0.6-0.7l-0.7-0.6l-0.8-0.4l-0.9-0.3l-0.9-0.1h-96.4l-0.9,0.1
	L432,82l-0.8,0.4l-0.7,0.6l-0.6,0.7l-0.4,0.8l-0.3,0.9l-0.1,0.9v96.4l0.1,0.9l0.3,0.9l0.4,0.8l0.6,0.7l0.7,0.6l0.8,0.4l0.9,0.3
	l0.9,0.1h96.4l0.9-0.1l0.9-0.3l0.8-0.4l0.7-0.6l0.6-0.7l0.4-0.8l0.3-0.9L534.6,182.6z"/>
<path class="st1" d="M1024.4,182.6l0.1,0.9l0.3,0.9l0.4,0.8l0.6,0.7l0.7,0.6l0.8,0.4l0.9,0.3l0.9,0.1h96.4l0.9-0.1l0.9-0.3l0.8-0.4
	l0.7-0.6l0.6-0.7l0.4-0.8l0.3-0.9l0.1-0.9V86.2l-0.1-0.9l-0.3-0.9l-0.4-0.8l-0.6-0.7l-0.7-0.6l-0.8-0.4l-0.9-0.3l-0.9-0.1H1029
	l-0.9,0.1l-0.9,0.3l-0.8,0.4l-0.7,0.6l-0.6,0.7l-0.4,0.8l-0.3,0.9l-0.1,0.9v96.4H1024.4z"/>
<path class="st1" d="M905.4,182.6l0.1,0.9l0.3,0.9l0.4,0.8l0.6,0.7l0.7,0.6l0.8,0.4l0.9,0.3l0.9,0.1h96.4l0.9-0.1l0.9-0.3l0.8-0.4
	l0.7-0.6l0.6-0.7l0.4-0.8l0.3-0.9l0.1-0.9V86.2l-0.1-0.9l-0.3-0.9l-0.4-0.8l-0.6-0.7l-0.7-0.6L1008,82l-0.9-0.3l-0.9-0.1h-96.4
	l-0.9,0.1L908,82l-0.8,0.4l-0.7,0.6l-0.6,0.7l-0.4,0.8l-0.3,0.9l-0.1,0.9v96.3H905.4z"/>
<path class="st1" d="M891.8,182.6V86.2l-0.1-0.9l-0.3-0.9l-0.4-0.8l-0.6-0.7l-0.7-0.6L889,82l-0.9-0.3l-0.9-0.1h-96.4l-0.9,0.1
	L789,82l-0.8,0.4l-0.7,0.6l-0.6,0.7l-0.4,0.8l-0.3,0.9l-0.1,0.9v96.4l0.1,0.9l0.3,0.9l0.4,0.8l0.6,0.7l0.7,0.6l0.8,0.4l0.9,0.3
	l0.9,0.1h96.4l0.9-0.1l0.9-0.3l0.8-0.4l0.7-0.6l0.6-0.7l0.4-0.8l0.3-0.9L891.8,182.6L891.8,182.6z"/>
</svg>
